<?xml version="1.0" encoding="UTF-8"?>
<svg height="805.85" version="1.1" viewBox="0 0 595.25 805.85" width="595.25" xmlns="http://www.w3.org/2000/svg" xmlns:xlink="http://www.w3.org/1999/xlink">
<defs>
<clipPath clip-rule="evenodd" id="hkswfjson-cp1700000">
  <path d="M 0 0 L 595.25 0 L 595.25 805.85 L 0 805.85 L 0 0 "/>
</clipPath>
</defs>
<g clip-path="url(#hkswfjson-cp1700000)">
  <path d="M 0 0 L 595.25 0 L 595.25 805.85 L 0 805.85 L 0 0 " fill="rgb(255,255,255)" fill-rule="evenodd"/>
  <path d="M -.05 -.05 L 595.2 -.05 L 595.2 841.8 L -.05 841.8 L -.05 -.05 " fill="rgb(255,255,255)" fill-rule="evenodd"/>
  <text font-family="f0f7" font-size="10" x="240.00 248.00 254.00 257.00 264.00 270.00 277.00 284.00 290.00 298.00 305.00 314.00 321.00 327.00 335.00 338.00 344.00" y="80.00">2LITERATUREREVIEW</text>
  <path d="M 70.8 85.8 L 524.4 85.8 L 524.4 86.4 L 70.8 86.4 L 70.8 85.8 " fill-rule="evenodd"/>
  <clipPath clip-rule="evenodd" id="hkswfjson-cp1700001">
  <path d="M 292.05 770.6 L 303.1 770.6 L 303.1 782.85 L 292.05 782.85 L 292.05 770.6 "/>
</clipPath>
  <g clip-path="url(#hkswfjson-cp1700001)">
  <text font-family="f0f7" font-size="10" x="292.00 297.00" y="780.00">12</text>
</g>
  <text font-family="f0f7" font-size="12" x="70.00 74.00 80.00 88.00 94.00 97.00 103.00 109.00 113.00 117.00 126.00 132.00 137.00 142.00 148.00 156.00 162.00 169.00 174.00 180.00 186.00 191.00 197.00 206.00 212.00 216.00 223.00 232.00 238.00 242.00 245.00 251.00 260.00 263.00 269.00 275.00" y="113.00">thediverseneedsofconsumersworldwide.</text>
  <text font-family="f0f7" font-size="12" x="94.00 98.00 104.00 111.00 118.00 123.00 127.00 133.00 137.00 142.00 150.00 159.00 162.00 168.00 174.00 178.00 182.00 186.00 190.00 193.00 198.00 204.00 207.00 210.00 216.00" y="132.00">(1)ServiceDiversification</text>
  <text font-family="f0f7" font-size="12" x="94.00 103.00 109.00 115.00 120.00 124.00 129.00 132.00 138.00 144.00 150.00 153.00 159.00 174.00 177.00 183.00 189.00 201.00 207.00 210.00 214.00 218.00 224.00 228.00 233.00 239.00 251.00 261.00 266.00 270.00 276.00 281.00 285.00 298.00 304.00 310.00 316.00 330.00 336.00 339.00 343.00 347.00 353.00 356.00 362.00 368.00 380.00 386.00 392.00 397.00 403.00 417.00 423.00 428.00 433.00 438.00 453.00 459.00 474.00 479.00 485.00 491.00 497.00 503.00 512.00 515.00 521.00" y="152.00">Understandingthatdifferentmarketshavedifferentneedsbasedoneconomic,</text>
  <text font-family="f0f7" font-size="12" x="70.00 76.00 82.00 88.00 94.00 98.00 103.00 109.00 115.00 118.00 124.00 132.00 137.00 143.00 154.00 159.00 165.00 169.00 172.00 178.00 182.00 187.00 195.00 199.00 205.00 210.00 213.00 219.00 223.00 228.00 236.00 245.00 253.00 265.00 271.00 275.00 279.00 284.00 288.00 298.00 308.00 314.00 318.00 324.00 329.00 333.00 338.00 341.00 345.00 348.00 354.00 365.00 368.00 374.00 380.00 386.00 396.00 402.00 411.00 416.00 421.00 425.00 431.00 434.00 440.00 445.00 450.00 458.00 465.00 471.00 474.00 484.00 487.00 493.00 499.00 502.00 508.00 514.00 519.00" y="171.00">geographic,andculturalfactors,DHLoffersadiversifiedrangeofservices.Thisincludes</text>
  <text font-family="f0f7" font-size="12" x="70.00 76.00 82.00 88.00 92.00 97.00 102.00 113.00 119.00 124.00 128.00 133.00 138.00 148.00 154.00 159.00 163.00 166.00 172.00 177.00 181.00 187.00 196.00 199.00 205.00 208.00 214.00 218.00 224.00 229.00 232.00 236.00 242.00 248.00 253.00 263.00 267.00 271.00 276.00 279.00 285.00 291.00 301.00 305.00 311.00 315.00 323.00 329.00 333.00 339.00 342.00 348.00 354.00 363.00 369.00 375.00 387.00 392.00 398.00 404.00 410.00 413.00 425.00 430.00 436.00 442.00 445.00 457.00 462.00 468.00 471.00 477.00 481.00 484.00 490.00 496.00 501.00 510.00 518.00" y="191.00">expressparceldelivery,internationalfreightforwarding,andsupplychainsolutions.By</text>
  <text font-family="f0f7" font-size="12" x="70.00 76.00 80.00 86.00 91.00 95.00 100.00 103.00 107.00 113.00 116.00 122.00 135.00 139.00 142.00 154.00 158.00 164.00 168.00 174.00 177.00 182.00 188.00 192.00 202.00 211.00 220.00 234.00 239.00 244.00 258.00 267.00 272.00 277.00 288.00 291.00 297.00 310.00 316.00 321.00 325.00 331.00 334.00 340.00 353.00 359.00 365.00 370.00 376.00 388.00 394.00 405.00 411.00 414.00 418.00 422.00 427.00 431.00 436.00 442.00 453.00 456.00 462.00 468.00 474.00 479.00 482.00 486.00 489.00 495.00 506.00 512.00 518.00" y="210.00">diversifyingitsservices,DHLcanmeetthevaryingneedsofdifferentindustriesand</text>
  <text font-family="f0f7" font-size="12" x="70.00 76.00 82.00 88.00 92.00 98.00 108.00 113.00 120.00 125.00 130.00 136.00 145.00 151.00 157.00 160.00 168.00 173.00 178.00 182.00 188.00 193.00 201.00 210.00 215.00 219.00 225.00 231.00 234.00 239.00" y="230.00">consumersegmentsacrossmarkets.</text>
  <text font-family="f0f7" font-size="12" x="94.00 98.00 104.00 111.00 118.00 123.00 128.00 134.00 140.00 146.00 150.00 156.00 162.00 165.00 170.00 176.00 182.00 186.00 192.00 195.00 201.00 207.00 210.00 216.00 219.00 223.00 229.00" y="249.00">(2)TechnologicalIntegration</text>
  <text font-family="f0f7" font-size="12" x="94.00 103.00 112.00 123.00 127.00 132.00 138.00 143.00 147.00 153.00 159.00 164.00 173.00 177.00 182.00 187.00 193.00 199.00 205.00 209.00 215.00 221.00 231.00 235.00 246.00 249.00 252.00 262.00 271.00 276.00 280.00 286.00 291.00 295.00 298.00 304.00 315.00 320.00 323.00 327.00 332.00 336.00 341.00 347.00 350.00 356.00 365.00 368.00 379.00 384.00 390.00 396.00 402.00 408.00 413.00 423.00 428.00 434.00 439.00 443.00 449.00 458.00 463.00 472.00 477.00 483.00 489.00 495.00 499.00 502.00 507.00 513.00 518.00" y="269.00">DHLleveragestechnologyinitsmarketingstrategiestoenhancecustomerexperience</text>
  <text font-family="f0f7" font-size="12" x="70.00 76.00 82.00 91.00 97.00 103.00 109.00 113.00 118.00 121.00 125.00 131.00 137.00 142.00 149.00 154.00 158.00 162.00 165.00 171.00 174.00 179.00 185.00 191.00 196.00 202.00 210.00 216.00 219.00 227.00 231.00 237.00 242.00 245.00 251.00 257.00 262.00 271.00 277.00 282.00 285.00 291.00 300.00 306.00 312.00 318.00 323.00 329.00 334.00 340.00 349.00 353.00 357.00 362.00 367.00 373.00 377.00 383.00 392.00 397.00 403.00 408.00 411.00 416.00 426.00 430.00 437.00 442.00 448.00 452.00 458.00 467.00 472.00 476.00 481.00 491.00 495.00 501.00 505.00 509.00 512.00 518.00" y="288.00">andoperationalefficiency.Thisincludesusingadvancedtrackingsystems,automatedsorting</text>
  <text font-family="f0f7" font-size="12" x="70.00 76.00 82.00 91.00 97.00 102.00 105.00 109.00 115.00 120.00 124.00 133.00 139.00 143.00 149.00 154.00 160.00 164.00 169.00 174.00 179.00 185.00 190.00 196.00 206.00 212.00 215.00 221.00 224.00 228.00 233.00 239.00 249.00 254.00 258.00 264.00 269.00 272.00 276.00 282.00 291.00 294.00 300.00 305.00 308.00 312.00 317.00 325.00 329.00 335.00 341.00 350.00 355.00 363.00 369.00 377.00 388.00 394.00 400.00 409.00 414.00 420.00 425.00 428.00 433.00 440.00 449.00 455.00 461.00 464.00 472.00 482.00 487.00 491.00 497.00 502.00 506.00 509.00 515.00 521.00" y="308.00">anddeliveryprocesses,anddigitalmarketingtacticssuchasSEOandsocialmediamarketing.</text>
  <text font-family="f0f7" font-size="12" x="70.00 79.00 88.00 94.00 97.00 106.00 111.00 120.00 126.00 132.00 138.00 142.00 146.00 155.00 161.00 171.00 174.00 179.00 184.00 190.00 196.00 202.00 206.00 212.00 218.00 228.00 233.00 236.00 241.00 251.00 256.00 263.00 266.00 271.00 277.00 283.00 292.00 295.00 305.00 314.00 320.00 326.00 330.00 333.00 342.00 348.00 354.00 360.00 368.00 374.00 380.00 390.00 395.00 401.00 406.00 409.00 415.00 424.00 430.00 438.00 444.00 450.00 454.00 457.00 462.00 466.00 470.00 477.00 487.00 492.00 498.00 501.00 507.00 517.00 521.00" y="327.00">DHL’semphasisontechnologyalsoextendstomobileappsandcustomerportals,makingit</text>
  <text font-family="f0f7" font-size="12" x="70.00 76.00 81.00 86.00 89.00 94.00 101.00 105.00 111.00 118.00 124.00 130.00 134.00 138.00 144.00 153.00 158.00 162.00 170.00 173.00 182.00 192.00 197.00 203.00 208.00 214.00 223.00 226.00 232.00 237.00 241.00 248.00 254.00 259.00 262.00 266.00 272.00 277.00 281.00 284.00 289.00 294.00" y="347.00">easierforcustomerstomanagetheirdeliveries.</text>
  <text font-family="f0f7" font-size="12" x="94.00 98.00 104.00 111.00 118.00 124.00 129.00 132.00 137.00 141.00 147.00 152.00 158.00 161.00 165.00 168.00 171.00 180.00 191.00 196.00 200.00 206.00 212.00 215.00 218.00 224.00" y="366.00">(3)SustainabilityMarketing</text>
  <text font-family="f0f7" font-size="12" x="94.00 103.00 112.00 124.00 128.00 134.00 139.00 145.00 149.00 155.00 161.00 165.00 170.00 174.00 179.00 189.00 194.00 200.00 205.00 208.00 213.00 217.00 223.00 228.00 234.00 237.00 241.00 244.00 247.00 259.00 263.00 269.00 272.00 284.00 287.00 290.00 301.00 310.00 315.00 319.00 325.00 331.00 334.00 337.00 343.00 355.00 360.00 363.00 367.00 372.00 376.00 381.00 387.00 392.00 401.00 405.00 410.00 416.00 422.00 428.00 434.00 437.00 442.00 446.00 452.00 463.00 467.00 473.00 484.00 490.00 494.00 500.00 508.00 512.00 518.00" y="386.00">DHLincorporatessustainabilityintoitsmarketingstrategy,recognizingthegrowing</text>
  <text font-family="f0f7" font-size="12" x="70.00 76.00 82.00 88.00 92.00 98.00 108.00 113.00 121.00 127.00 133.00 142.00 147.00 153.00 164.00 168.00 174.00 182.00 188.00 194.00 200.00 203.00 207.00 213.00 219.00 228.00 234.00 240.00 243.00 248.00 252.00 255.00 265.00 269.00 273.00 277.00 282.00 288.00 294.00 297.00 308.00 314.00 320.00 325.00 328.00 334.00 339.00 344.00 353.00 359.00 363.00 368.00 374.00 377.00 380.00 386.00 391.00 396.00 403.00 410.00 416.00 420.00 429.00 432.00 438.00 444.00 450.00 453.00 459.00 465.00 474.00 480.00 484.00 490.00 499.00 505.00 509.00 512.00 518.00" y="405.00">consumerdemandforenvironmentallyfriendlybusinesspractices.Thisinvolvespromoting</text>
  <text font-family="f0f7" font-size="12" x="70.00 74.00 77.00 85.00 91.00 95.00 100.00 105.00 115.00 118.00 124.00 130.00 133.00 138.00 141.00 145.00 150.00 158.00 163.00 169.00 172.00 178.00 181.00 185.00 191.00 197.00 201.00 207.00 212.00 218.00 223.00 233.00 238.00 246.00 251.00 254.00 260.00 265.00 268.00 272.00 276.00 284.00 290.00 296.00 302.00 305.00 310.00 314.00 319.00 327.00 332.00 338.00 347.00 353.00 358.00 362.00 368.00 374.00 380.00 384.00 390.00 395.00 401.00 404.00 408.00 414.00 420.00 425.00 431.00 434.00 440.00 446.00 450.00 456.00 465.00 471.00 477.00 480.00 484.00 490.00 496.00 500.00 507.00 512.00 518.00" y="425.00">itsgreenlogisticssolutions,suchaselectricvehiclesandcarbon-neutralshippingoptions,and</text>
  <text font-family="f0f7" font-size="12" x="70.00 76.00 80.00 86.00 92.00 95.00 98.00 104.00 110.00 114.00 117.00 123.00 132.00 135.00 139.00 146.00 152.00 158.00 167.00 176.00 180.00 183.00 192.00 198.00 204.00 210.00 213.00 222.00 226.00 232.00 238.00 244.00 249.00 252.00 258.00 267.00 271.00 277.00 283.00 286.00 291.00 294.00 297.00 303.00 307.00 311.00 315.00 321.00 324.00 329.00 333.00 338.00 347.00 352.00 362.00 365.00 370.00 374.00 378.00 384.00 390.00 394.00" y="444.00">highlightingitscommitmenttoreducinglogistics-relatedemissions.</text>
  <text font-family="f0f7" font-size="12" x="94.00 98.00 104.00 111.00 118.00 121.00 125.00 131.00 134.00 139.00 145.00 149.00 157.00 164.00 169.00 173.00 176.00 182.00 188.00 192.00 196.00 202.00 206.00 212.00 219.00 225.00 231.00 239.00 248.00 251.00 254.00 258.00 263.00 269.00 274.00 279.00" y="464.00">(4)StrategicPartnershipsand********s</text>
  <text font-family="f0f7" font-size="12" x="94.00 103.00 112.00 122.00 126.00 132.00 136.00 146.00 154.00 159.00 162.00 166.00 171.00 175.00 180.00 186.00 189.00 198.00 204.00 210.00 214.00 217.00 223.00 228.00 232.00 237.00 243.00 246.00 252.00 261.00 266.00 272.00 282.00 287.00 291.00 294.00 297.00 303.00 309.00 314.00 319.00 328.00 331.00 341.00 345.00 349.00 353.00 358.00 364.00 370.00 373.00 379.00 385.00 395.00 398.00 401.00 410.00 419.00 424.00 428.00 434.00 440.00 447.00 453.00 457.00 462.00 467.00 472.00 478.00 483.00 489.00 495.00 502.00 508.00 514.00 518.00" y="483.00">DHLformsstrategicpartnershipsand********stostrengthenitsmarketpresence.These</text>
  <text font-family="f0f7" font-size="12" x="70.00 76.00 82.00 86.00 89.00 95.00 100.00 104.00 109.00 115.00 118.00 124.00 134.00 140.00 144.00 147.00 152.00 163.00 166.00 172.00 178.00 184.00 187.00 193.00 203.00 207.00 213.00 218.00 223.00 231.00 237.00 243.00 252.00 258.00 263.00 269.00 273.00 278.00 287.00 291.00 297.00 302.00 310.00 315.00 320.00 331.00 337.00 341.00 347.00 353.00 356.00 362.00 372.00 381.00 389.00 401.00 410.00 413.00 416.00 427.00 436.00 441.00 445.00 451.00 457.00 465.00 468.00 474.00 479.00 482.00 488.00 494.00 497.00 507.00 512.00 518.00" y="503.00">partnershipsofteninvolvelocalcompaniesthatcanprovideDHLwithmarketinsightsand</text>
  <text font-family="f0f7" font-size="12" x="70.00 76.00 82.00 88.00 93.00 99.00 105.00 110.00 127.00 133.00 137.00 141.00 145.00 149.00 152.00 158.00 164.00 167.00 171.00 177.00 194.00 200.00 205.00 209.00 217.00 223.00 227.00 233.00 238.00 252.00 260.00 266.00 270.00 273.00 278.00 284.00 290.00 294.00 299.00 303.00 306.00 312.00 329.00 338.00 341.00 345.00 362.00 368.00 374.00 380.00 385.00 389.00 395.00 404.00 410.00 416.00 419.00 435.00 440.00 446.00 463.00 467.00 473.00 476.00 481.00 485.00 491.00 496.00 500.00 503.00 509.00 515.00 520.00" y="522.00">expandeddistributionnetworks.Collaboratingwithgovernmentsandinternational</text>
  <text font-family="f0f7" font-size="12" x="70.00 76.00 80.00 86.00 91.00 97.00 101.00 106.00 111.00 115.00 118.00 124.00 130.00 138.00 143.00 148.00 157.00 161.00 167.00 172.00 175.00 179.00 182.00 185.00 191.00 194.00 202.00 207.00 216.00 222.00 228.00 232.00 238.00 243.00 250.00 256.00 262.00 267.00 271.00 277.00 280.00 283.00 289.00 295.00 303.00 308.00 314.00 318.00 324.00 328.00 336.00 342.00 348.00 352.00 358.00 363.00 367.00 372.00" y="542.00">organizationscanfacilitatesmootheroperationsacrossborders.</text>
  <text font-family="f0f7" font-size="12" x="94.00 98.00 104.00 111.00 119.00 125.00 130.00 133.00 139.00 149.00 154.00 158.00 162.00 170.00 175.00 181.00 184.00 188.00 192.00 196.00 208.00 217.00 223.00 229.00 233.00 239.00 244.00 249.00" y="561.00">(5)Customer-CentrismApproach</text>
  <text font-family="f0f7" font-size="12" x="94.00 102.00 108.00 113.00 116.00 122.00 132.00 137.00 145.00 149.00 155.00 159.00 165.00 168.00 173.00 182.00 186.00 194.00 203.00 209.00 213.00 219.00 225.00 228.00 233.00 240.00 246.00 251.00 255.00 263.00 269.00 276.00 285.00 294.00 300.00 303.00 312.00 321.00 326.00 330.00 336.00 341.00 345.00 348.00 354.00 364.00 369.00 372.00 376.00 381.00 384.00 390.00 396.00 401.00 408.00 415.00 421.00 430.00 435.00 441.00 450.00 456.00 462.00 468.00 478.00 481.00 487.00 493.00 498.00 503.00 506.00 515.00 518.00" y="581.00">CustomerserviceisapivotalpartofDHL’smarketingstrategy.Thecompanyinvestsin</text>
  <text font-family="f0f7" font-size="12" x="70.00 76.00 82.00 88.00 94.00 98.00 102.00 106.00 111.00 117.00 123.00 126.00 132.00 143.00 148.00 154.00 159.00 162.00 168.00 177.00 183.00 191.00 197.00 202.00 208.00 214.00 223.00 228.00 234.00 245.00 250.00 256.00 262.00 265.00 269.00 275.00 281.00 287.00 293.00 297.00 301.00 311.00 314.00 324.00 330.00 334.00 340.00 346.00 349.00 355.00 366.00 370.00 375.00 379.00 385.00 389.00 394.00 404.00 410.00 415.00 420.00 425.00 436.00 442.00 452.00 456.00 461.00 467.00 473.00 479.00 484.00 489.00 495.00 503.00 510.00 516.00 519.00" y="600.00">understandingcustomerneedsandcontinuouslyimprovingservicebasedonfeedback.This</text>
  <text font-family="f0f7" font-size="12" x="70.00 74.00 80.00 85.00 88.00 94.00 100.00 106.00 115.00 118.00 124.00 127.00 130.00 136.00 140.00 144.00 150.00 160.00 166.00 171.00 175.00 178.00 184.00 189.00 193.00 204.00 210.00 216.00 219.00 223.00 229.00 235.00 239.00 247.00 252.00 258.00 264.00 270.00 276.00 281.00 284.00 290.00 301.00 307.00 313.00 316.00 319.00 325.00 335.00 339.00 345.00 348.00 353.00 357.00 361.00 366.00 372.00 377.00 382.00 390.00 395.00 401.00 411.00 417.00 423.00 427.00 433.00 437.00 441.00 447.00 457.00 461.00 467.00 472.00 480.00 485.00 491.00 496.00 499.00 505.00 515.00 520.00" y="620.00">includestailoringdeliveryoptions,enhancingonlineinterfaces,andensuringthatcustomer</text>
  <text font-family="f0f7" font-size="12" x="70.00 75.00 80.00 84.00 90.00 94.00 99.00 109.00 112.00 121.00 126.00 132.00 137.00 142.00 147.00 152.00 155.00 161.00 164.00 174.00 179.00 185.00 195.00 201.00 205.00 209.00 214.00 219.00 222.00 226.00 232.00 237.00 244.00 256.00 261.00 267.00 272.00 275.00 281.00 291.00 296.00 300.00 304.00 309.00 314.00 320.00 324.00 328.00 331.00 341.00 346.00 352.00 358.00 362.00 368.00 373.00 379.00 389.00 392.00 401.00 405.00 414.00 420.00 426.00 430.00 433.00 439.00 445.00 452.00 461.00 467.00 472.00 483.00 488.00 494.00 499.00 505.00 509.00 512.00 518.00" y="639.00">serviceisaccessibleandeffective.Acustomer-centricapproachisimportantwhenadapting</text>
  <text font-family="f0f7" font-size="12" x="70.00 79.00 88.00 95.00 97.00 109.00 113.00 119.00 122.00 127.00 131.00 137.00 143.00 146.00 149.00 155.00 161.00 167.00 177.00 187.00 192.00 196.00 202.00 207.00 211.00 214.00 220.00 234.00 238.00 242.00 246.00 251.00 254.00 259.00 265.00 269.00 274.00 279.00 289.00 295.00 301.00 305.00 308.00 311.00 317.00 323.00 326.00 331.00 335.00 339.00 352.00 356.00 362.00 367.00 373.00 378.00 381.00 387.00 401.00 407.00 420.00 424.00 427.00 439.00 443.00 448.00 452.00 457.00 463.00 468.00 474.00 479.00 492.00 496.00 509.00 512.00 518.00" y="659.00">DHL'sinternationalmarketingstrategies,particularlyfocusingonitsrelevancetothe</text>
  <text font-family="f0f7" font-size="12" x="70.00 79.00 82.00 88.00 94.00 98.00 101.00 106.00 116.00 125.00 131.00 135.00 141.00 146.00 149.00 156.00 160.00 167.00 176.00 179.00 182.00 189.00 195.00 198.00 204.00 210.00 214.00 217.00 223.00 229.00 236.00 240.00 246.00 254.00 260.00 266.00 271.00 276.00 281.00 286.00 289.00 293.00 302.00 308.00 316.00 319.00 324.00 328.00 331.00 337.00 341.00 344.00 350.00 360.00 369.00 377.00 384.00 387.00 395.00 404.00 410.00 414.00 420.00 425.00 428.00 432.00 438.00 447.00 452.00 455.00 459.00 465.00 468.00 473.00 479.00 483.00 488.00 496.00 500.00 509.00 513.00 519.00" y="678.00">Nigerianmarket.ItwillhighlightthenecessityoftailoringDHL'smarketingstrategiestothe</text>
  <text font-family="f0f7" font-size="12" x="70.00 76.00 82.00 86.00 92.00 98.00 106.00 112.00 118.00 123.00 129.00 134.00 140.00 146.00 150.00 155.00 159.00 164.00 168.00 174.00 180.00 185.00 190.00 195.00 201.00 207.00 213.00 222.00 228.00 233.00 239.00 244.00 250.00 254.00 260.00 264.00 272.00 278.00 285.00 294.00 297.00 303.00 308.00 312.00 316.00 321.00 330.00 336.00 342.00 348.00 352.00 358.00 368.00 373.00 377.00 382.00 388.00 395.00 401.00 410.00 415.00 424.00 430.00 436.00 441.00 446.00 449.00 458.00 466.00 470.00 473.00 479.00 485.00 494.00 500.00 509.00 512.00 518.00" y="698.00">uniqueneeds,preferences,andbehaviorsofNigerianconsumers.Theemphasiswillbeonthe</text>
  <text font-family="f0f7" font-size="12" x="70.00 74.00 80.00 84.00 94.00 100.00 108.00 118.00 124.00 130.00 134.00 138.00 144.00 153.00 158.00 162.00 166.00 171.00 177.00 183.00 186.00 190.00 193.00 204.00 209.00 215.00 221.00 225.00 231.00 236.00 241.00 252.00 258.00 267.00 277.00 282.00 286.00 290.00 293.00 296.00 302.00 307.00 315.00 321.00 326.00 330.00 335.00 339.00 348.00 352.00 358.00 363.00 369.00 377.00 383.00 392.00 396.00 402.00 408.00 413.00 418.00 423.00 432.00 436.00 446.00 452.00 458.00 463.00 469.00 472.00 476.00 482.00 492.00 501.00 510.00 517.00 519.00" y="717.00">roleofacustomer-centricapproachasacriticaldeterminantofsuccessinadaptingDHL's</text>
  <text font-family="f0f7" font-size="12" x="70.00 74.00 80.00 83.00 88.00 92.00 98.00 104.00 107.00 110.00 116.00 122.00 128.00 134.00 143.00 149.00 153.00 159.00 164.00 167.00 171.00 177.00 186.00 190.00 194.00 198.00 203.00 206.00 212.00 218.00 221.00 226.00 234.00 238.00 244.00 251.00 260.00 263.00 269.00 274.00 278.00 282.00 287.00" y="737.00">internationalmarketingstrategiesforNigeria.</text>
  <text font-family="f0f7" font-size="12" x="94.00 101.00 104.00 110.00 116.00 122.00 128.00 131.00 138.00 145.00 153.00 166.00 174.00 180.00 183.00 189.00 196.00 203.00 206.00 213.00 218.00 226.00 231.00 234.00 242.00 246.00 252.00 258.00 264.00 270.00 278.00 283.00 289.00 295.00 301.00 307.00 312.00 315.00 321.00 331.00 340.00 345.00 348.00 354.00 360.00 370.00 374.00 384.00 389.00 395.00 404.00 410.00 416.00 420.00 429.00 435.00 439.00 445.00 451.00 457.00 462.00 466.00 470.00 475.00 480.00 486.00 490.00 494.00 497.00 506.00 512.00 518.00" y="756.00">Stoppel,E.&Roth,S.,etal.(2017)conductedastudytocompareproduct-centricand</text>
</g>
<style >@font-face {
font-family: "f0f7";
src: url("../font/f0f7.ttf");
}
</style>
</svg>