<?xml version="1.0" encoding="UTF-8"?>
<svg height="805.85" version="1.1" viewBox="0 0 595.25 805.85" width="595.25" xmlns="http://www.w3.org/2000/svg" xmlns:xlink="http://www.w3.org/1999/xlink">
<defs>
<clipPath clip-rule="evenodd" id="hkswfjson-cp1200000">
  <path d="M 0 0 L 595.25 0 L 595.25 805.85 L 0 805.85 L 0 0 "/>
</clipPath>
</defs>
<g clip-path="url(#hkswfjson-cp1200000)">
  <path d="M 0 0 L 595.25 0 L 595.25 805.85 L 0 805.85 L 0 0 " fill="rgb(255,255,255)" fill-rule="evenodd"/>
  <path d="M -.05 -.05 L 595.2 -.05 L 595.2 841.8 L -.05 841.8 L -.05 -.05 " fill="rgb(255,255,255)" fill-rule="evenodd"/>
  <text font-family="f0f7" font-size="10" x="76.00 86.00 93.00 98.00 102.00 106.00 111.00 115.00 119.00 127.00 132.00 140.00 143.00 148.00 156.00 159.00 167.00 172.00 177.00 182.00 187.00 193.00 199.00 206.00 214.00 220.00 222.00 229.00 232.00 238.00 240.00 245.00 249.00 254.00 259.00 262.00 265.00 270.00 275.00 280.00 285.00 294.00 299.00 303.00 308.00 313.00 316.00 318.00 324.00 332.00 337.00 340.00 344.00 348.00 351.00 356.00 361.00 364.00 369.00 376.00 381.00 389.00 396.00 401.00 406.00 410.00 416.00 424.00 428.00 435.00 441.00 446.00 451.00 456.00 461.00 464.00 470.00 476.00 478.00 486.00 494.00 497.00 502.00 507.00 510.00 513.00" y="80.00">AResearchontheImpactofDHL'sInternationalMarketingStrategiesonConsumerBehaviorinNigeria</text>
  <path d="M 70.8 82.8 L 524.4 82.8 L 524.4 83.4 L 70.8 83.4 L 70.8 82.8 " fill-rule="evenodd"/>
  <text font-family="f0f7" font-size="10" x="307.00" y="780.00">7</text>
  <text font-family="f0f7" font-size="12" x="70.00 81.00 86.00 90.00 96.00 101.00 105.00 108.00 114.00 128.00 134.00 138.00 142.00 147.00 150.00 156.00 162.00 165.00 170.00 182.00 188.00 194.00 207.00 215.00 221.00 227.00 232.00 238.00 247.00 252.00 264.00 271.00 277.00 283.00 288.00 294.00 297.00 303.00 315.00 318.00 331.00 340.00 343.00 349.00 355.00 359.00 362.00 367.00 378.00 382.00 388.00 392.00 398.00 401.00 407.00 420.00 426.00 438.00 450.00 456.00 460.00 466.00 471.00 474.00 479.00 490.00 496.00 500.00 504.00 510.00 515.00 521.00" y="113.00">MarketingStrategiesandConsumerBehaviorinNigeria,servingasacrucialbridge,</text>
  <text font-family="f0f7" font-size="12" x="70.00 76.00 85.00 91.00 94.00 98.00 102.00 107.00 112.00 116.00 119.00 129.00 134.00 138.00 141.00 147.00 153.00 156.00 162.00 172.00 181.00 189.00 197.00 199.00 208.00 211.00 220.00 226.00 230.00 235.00 244.00 250.00 256.00 259.00 264.00 274.00 279.00 282.00 286.00 292.00 295.00 300.00 306.00 310.00 315.00 323.00 332.00 335.00 339.00 349.00 352.00 358.00 367.00 372.00 378.00 383.00 389.00 392.00 396.00 399.00 409.00 415.00 419.00 424.00 428.00 433.00 437.00 443.00 449.00 454.00 459.00 468.00 474.00 482.00 491.00 494.00 500.00 505.00 509.00 512.00 518.00" y="132.00">empiricallyaligningDHL'simplementedstrategieswiththespecificpreferencesofNigerian</text>
  <text font-family="f0f7" font-size="12" x="70.00 76.00 82.00 88.00 92.00 98.00 108.00 113.00 117.00 122.00 130.00 141.00 147.00 151.00 156.00 162.00 168.00 174.00 177.00 186.00 193.00 199.00 202.00 213.00 218.00 224.00 229.00 235.00 239.00 244.00 254.00 260.00 265.00 270.00 275.00 279.00 282.00 288.00 294.00 304.00 308.00 314.00 325.00 330.00 336.00 341.00 347.00 350.00 354.00 360.00 372.00 380.00 389.00 395.00 398.00 409.00 412.00 418.00 422.00 427.00 431.00 437.00 442.00 446.00 449.00 455.00 461.00 466.00 475.00 485.00 490.00 494.00 500.00 505.00 509.00 512.00 518.00" y="152.00">consumers.Moreover,ThischapterdescribestheadaptingDHL’sinternationalmarketing</text>
  <text font-family="f0f7" font-size="12" x="70.00 75.00 78.00 82.00 88.00 91.00 96.00 102.00 106.00 111.00 121.00 124.00 135.00 140.00 146.00 152.00 157.00 163.00 172.00 177.00 186.00 192.00 198.00 204.00 209.00 215.00 218.00 224.00 233.00 237.00 247.00 256.00 259.00 265.00 271.00 275.00 278.00 283.00 291.00 297.00 300.00 303.00 309.00 315.00 324.00 330.00 336.00 344.00 350.00 359.00 368.00 376.00 383.00 386.00 396.00 406.00 411.00 415.00 421.00 427.00 430.00 433.00 439.00 450.00 457.00 460.00 464.00 470.00 473.00 478.00 484.00 488.00 493.00 503.00 511.00 515.00 518.00" y="171.00">strategiestoconsumerbehaviorinNigeria,alignmentofDHL’sMarketingStrategieswith</text>
  <text font-family="f0f7" font-size="12" x="70.00 79.00 82.00 88.00 94.00 98.00 101.00 106.00 115.00 123.00 129.00 135.00 140.00 146.00 155.00 161.00 165.00 171.00 178.00 182.00 187.00 191.00 196.00 201.00 206.00 212.00 217.00 222.00 227.00" y="191.00">NigerianConsumer’Preferences.</text>
  <text font-family="f0f7" font-size="12" x="94.00 102.00 108.00 114.00 120.00 123.00 128.00 144.00 161.00 170.00 176.00 182.00 185.00 188.00 194.00 200.00 216.00 220.00 225.00 230.00 235.00 241.00 245.00 250.00 267.00 277.00 282.00 285.00 291.00 297.00 303.00 309.00 313.00 319.00 325.00 342.00 345.00 351.00 357.00 371.00 377.00 383.00 386.00 391.00 395.00 398.00 414.00 417.00 423.00 440.00 444.00 448.00 454.00 460.00 466.00 468.00 484.00 488.00 491.00 497.00 503.00 507.00 513.00 519.00" y="210.00">Chapter4mentionsresearchmethodologythatdetailsthestudy'srigorous</text>
  <text font-family="f0f7" font-size="12" x="70.00 80.00 85.00 88.00 94.00 100.00 106.00 112.00 116.00 122.00 128.00 131.00 136.00 142.00 153.00 159.00 164.00 169.00 172.00 178.00 184.00 195.00 199.00 211.00 216.00 219.00 225.00 230.00 234.00 237.00 251.00 257.00 261.00 264.00 267.00 273.00 279.00 282.00 287.00 291.00 296.00 309.00 312.00 318.00 331.00 335.00 341.00 345.00 350.00 356.00 360.00 365.00 379.00 385.00 391.00 395.00 399.00 404.00 410.00 422.00 425.00 431.00 435.00 441.00 446.00 450.00 455.00 470.00 476.00 481.00 487.00 493.00 497.00 503.00 508.00 513.00 516.00 521.00" y="230.00">methodologicaldesign.Itclearlyarticulatestheresearchdesign,researchhypothesis,</text>
  <text font-family="f0f7" font-size="12" x="70.00 76.00 82.00 85.00 90.00 94.00 104.00 107.00 113.00 116.00 122.00 131.00 135.00 141.00 149.00 154.00 159.00 168.00 174.00 178.00 186.00 191.00 194.00 199.00 205.00 211.00 215.00 221.00 230.00 236.00 239.00 243.00 249.00 258.00 261.00 266.00 272.00 278.00 284.00 287.00 293.00 299.00 304.00 312.00 317.00 323.00 332.00 342.00 347.00 350.00 356.00 362.00 371.00 377.00 384.00 389.00 392.00 398.00 404.00 410.00" y="249.00">determiningthesamplesize,samplingtechniquesandmethodofstudy.</text>
  <text font-family="f0f7" font-size="12" x="94.00 102.00 108.00 114.00 120.00 123.00 128.00 136.00 147.00 153.00 158.00 163.00 168.00 172.00 175.00 181.00 186.00 195.00 199.00 205.00 214.00 219.00 222.00 228.00 231.00 234.00 239.00 242.00 246.00 251.00 256.00 264.00 269.00 275.00 280.00 284.00 290.00 294.00 298.00 306.00 312.00 318.00 322.00 332.00 335.00 341.00 351.00 357.00 362.00 367.00 372.00 376.00 379.00 385.00 389.00 392.00 398.00 408.00 412.00 416.00 421.00 424.00 428.00 432.00 436.00 439.00 444.00 453.00 458.00 464.00 475.00 478.00 484.00 488.00 493.00 497.00 502.00 508.00 512.00 515.00 520.00" y="269.00">Chapter5describesthestatisticalanalysisboththedescriptivestatisticsandinferential</text>
  <text font-family="f0f7" font-size="12" x="70.00 76.00 82.00 87.00 90.00 96.00 101.00 104.00 109.00 119.00 126.00 132.00 144.00 148.00 152.00 157.00 163.00 169.00 175.00 181.00 186.00 199.00 202.00 207.00 213.00 217.00 222.00 227.00 237.00 242.00 246.00 252.00 258.00 264.00 275.00 280.00 286.00 299.00 305.00 311.00 316.00 320.00 323.00 335.00 340.00 344.00 356.00 361.00 367.00 373.00 379.00 385.00 391.00 394.00 399.00 405.00 415.00 421.00 425.00 430.00 435.00 440.00 446.00 450.00 453.00 459.00 472.00 477.00 483.00 487.00 491.00 497.00 500.00 505.00 509.00 512.00 518.00" y="288.00">analysis.Thefrequencytables,graphsandchartsareconducted,presentingcorrelation</text>
  <text font-family="f0f7" font-size="12" x="70.00 80.00 85.00 88.00 92.00 96.00 101.00 106.00 114.00 119.00 125.00 134.00 140.00 146.00 149.00 154.00 158.00 161.00 166.00 175.00 179.00 185.00 191.00 195.00 200.00 205.00 209.00 213.00 219.00 228.00 234.00 243.00 247.00 252.00 257.00 263.00 266.00 269.00" y="308.00">matricesanddetailedregressiononresults</text>
  <text font-family="f0f7" font-size="12" x="94.00 102.00 108.00 114.00 120.00 123.00 128.00 135.00 144.00 148.00 154.00 159.00 162.00 168.00 174.00 180.00 187.00 191.00 197.00 205.00 210.00 216.00 222.00 228.00 231.00 237.00 242.00 245.00 251.00 260.00 265.00 271.00 280.00 284.00 290.00 295.00 301.00 310.00 320.00 325.00 331.00 337.00 342.00 346.00 349.00 355.00 364.00 370.00 377.00 380.00 386.00 395.00 399.00 403.00 409.00 415.00 420.00 426.00 431.00 436.00 442.00 446.00 452.00 457.00 462.00 465.00 471.00 474.00 480.00 489.00 492.00 498.00 506.00 513.00 518.00" y="327.00">Chapter6includestheconclusionandrecommendationofthestudy,synthesizingthekey</text>
  <text font-family="f0f7" font-size="12" x="70.00 74.00 78.00 84.00 90.00 93.00 99.00 105.00 120.00 126.00 140.00 144.00 150.00 165.00 169.00 174.00 179.00 184.00 190.00 194.00 199.00 216.00 219.00 225.00 228.00 244.00 260.00 265.00 271.00 277.00 283.00 287.00 292.00 298.00 312.00 317.00 323.00 339.00 343.00 352.00 358.00 363.00 369.00 372.00 376.00 382.00 396.00 400.00 406.00 419.00 425.00 440.00 445.00 451.00 457.00 462.00 465.00 471.00 476.00 479.00 485.00 491.00 506.00 512.00 518.00" y="347.00">findingsoftheresearchintoacoherentandimpactfulsetofconclusionsand</text>
  <text font-family="f0f7" font-size="12" x="70.00 74.00 80.00 85.00 91.00 100.00 110.00 115.00 121.00 127.00 132.00 136.00 139.00 145.00 151.00 156.00" y="366.00">recommendations.</text>
</g>
<style >@font-face {
font-family: "f0f7";
src: url("../font/f0f7.ttf");
}
</style>
</svg>