<?xml version="1.0" encoding="UTF-8"?>
<svg height="805.85" version="1.1" viewBox="0 0 595.25 805.85" width="595.25" xmlns="http://www.w3.org/2000/svg" xmlns:xlink="http://www.w3.org/1999/xlink">
<defs>
<clipPath clip-rule="evenodd" id="hkswfjson-cp1300000">
  <path d="M 0 0 L 595.25 0 L 595.25 805.85 L 0 805.85 L 0 0 "/>
</clipPath>
</defs>
<g clip-path="url(#hkswfjson-cp1300000)">
  <path d="M 0 0 L 595.25 0 L 595.25 805.85 L 0 805.85 L 0 0 " fill="rgb(255,255,255)" fill-rule="evenodd"/>
  <path d="M -.05 -.05 L 595.2 -.05 L 595.2 841.8 L -.05 841.8 L -.05 -.05 " fill="rgb(255,255,255)" fill-rule="evenodd"/>
  <text font-family="f0f7" font-size="10" x="254.00 261.00 265.00 272.00 279.00 286.00 293.00 301.00 308.00 316.00 322.00 325.00 333.00" y="80.00">1INTRODUCTION</text>
  <path d="M 70.8 82.8 L 524.4 82.8 L 524.4 83.4 L 70.8 83.4 L 70.8 82.8 " fill-rule="evenodd"/>
  <clipPath clip-rule="evenodd" id="hkswfjson-cp1300001">
  <path d="M 292.05 770.6 L 297.55 770.6 L 297.55 782.85 L 292.05 782.85 L 292.05 770.6 "/>
</clipPath>
  <g clip-path="url(#hkswfjson-cp1300001)">
  <text font-family="f0f7" font-size="10" x="292.00" y="780.00">8</text>
</g>
  <path d="M 139.4 99.95 L 474.8 99.95 L 474.8 162.45 L 139.4 162.45 L 139.4 99.95 " fill="rgb(233,113,50)" fill-rule="evenodd"/>
  <path d="M 139.55 100.15 L 474.95 100.15 L 474.95 162.55 L 139.55 162.55 L 139.55 100.15 " fill="none" stroke="rgb(21,96,130)" stroke-linecap="butt" stroke-linejoin="miter" stroke-miterlimit="10.000000" stroke-width="0.5"/>
  <text font-family="f0f7" font-size="9" x="148.00 154.00 159.00 162.00 167.00 169.00 173.00 179.00 185.00 190.00 194.00 198.00 201.00 206.00 208.00 211.00 216.00 220.00 225.00 229.00 231.00 234.00 238.00 245.00 249.00 254.00 260.00 266.00 270.00 274.00 279.00 283.00 286.00 291.00 295.00 300.00 304.00 309.00 314.00 318.00 322.00 327.00 331.00 335.00 339.00 344.00 351.00 356.00 358.00 363.00 367.00 370.00 372.00 375.00 379.00 383.00 387.00 391.00 398.00 402.00 408.00 413.00 415.00 420.00 424.00 428.00 432.00 438.00 442.00 446.00 450.00 454.00 457.00 461.00" y="116.00">ChapterOne:IntroductionandBackground,Scope,andSignificanceofStudy,Research</text>
  <text font-family="f0f7" font-size="9" x="147.00 154.00 158.00 161.00 165.00 169.00 171.00 174.00 178.00 182.00 186.00 190.00 195.00 198.00 202.00 204.00 208.00 215.00 219.00 224.00 229.00 233.00 238.00 241.00 245.00 252.00 256.00 259.00 264.00 268.00 271.00 275.00 284.00 288.00 292.00 299.00 302.00 306.00 309.00 313.00 318.00 321.00 324.00 331.00 336.00 340.00 344.00 348.00 350.00 353.00 357.00 362.00 365.00 370.00 376.00 380.00 385.00 387.00 390.00 393.00 397.00 402.00 404.00 407.00 411.00 416.00 422.00 426.00 431.00 435.00 437.00 442.00 446.00 453.00 457.00 462.00" y="134.00">Objectives,Statementoftheproblemandresearchquestions,Contributionsofstudyand</text>
  <text font-family="f0f7" font-size="9" x="213.00 219.00 223.00 227.00 231.00 235.00 238.00 242.00 249.00 254.00 256.00 263.00 266.00 268.00 272.00 275.00 277.00 282.00 286.00 292.00 296.00 301.00 308.00 314.00 317.00 321.00 325.00 330.00 332.00 336.00 340.00 343.00 345.00 350.00 357.00 361.00 366.00 369.00 373.00 380.00 382.00 387.00 391.00 394.00 397.00" y="152.00">ResearchLimitationsandOrganizationofthethesis</text>
  <path d="M 140.15 178.8 L 475.55 178.8 L 475.55 254.4 L 140.15 254.4 L 140.15 178.8 " fill="none" stroke="rgb(21,96,130)" stroke-linecap="butt" stroke-linejoin="miter" stroke-miterlimit="10.000000" stroke-width="0.5"/>
  <path d="M 140 178.55 L 475.4 178.55 L 475.4 254.25 L 140 254.25 L 140 178.55 " fill="rgb(233,113,50)" fill-rule="evenodd"/>
  <text font-family="f0f7" font-size="9" x="157.00 163.00 167.00 171.00 176.00 178.00 182.00 187.00 192.00 199.00 203.00 208.00 213.00 216.00 218.00 222.00 225.00 229.00 232.00 236.00 239.00 246.00 252.00 256.00 260.00 263.00 267.00 273.00 277.00 282.00 285.00 289.00 294.00 300.00 305.00 312.00 318.00 325.00 332.00 335.00 340.00 342.00 346.00 349.00 353.00 357.00 360.00 362.00 367.00 371.00 375.00 380.00 388.00 392.00 395.00 400.00 404.00 406.00 409.00 413.00 420.00 425.00 428.00 431.00 435.00 437.00 441.00 445.00 448.00 452.00 455.00" y="194.00">ChapterTwo:LiteratureReview,StudyonDHLInternationalMarketingStrategies,</text>
  <text font-family="f0f7" font-size="9" x="164.00 170.00 174.00 177.00 179.00 184.00 187.00 189.00 192.00 196.00 203.00 207.00 211.00 218.00 224.00 229.00 235.00 240.00 244.00 249.00 253.00 257.00 260.00 266.00 270.00 276.00 284.00 288.00 291.00 295.00 299.00 301.00 304.00 308.00 313.00 318.00 324.00 327.00 331.00 336.00 339.00 344.00 350.00 353.00 357.00 362.00 369.00 374.00 377.00 381.00 384.00 388.00 393.00 396.00 400.00 405.00 408.00 413.00 415.00 419.00 422.00 426.00 430.00 433.00 435.00 440.00 444.00 448.00" y="212.00">DefinitionandComponentsofMarketing,GlobalBrandPresence,International</text>
  <text font-family="f0f7" font-size="9" x="162.00 170.00 173.00 176.00 181.00 185.00 187.00 190.00 194.00 201.00 206.00 209.00 212.00 216.00 218.00 222.00 227.00 229.00 233.00 236.00 241.00 246.00 249.00 253.00 258.00 264.00 269.00 276.00 282.00 286.00 291.00 294.00 299.00 306.00 310.00 315.00 321.00 325.00 330.00 333.00 338.00 340.00 345.00 348.00 354.00 356.00 363.00 369.00 372.00 376.00 380.00 383.00 386.00 390.00 394.00 400.00 404.00 411.00 414.00 417.00 420.00 424.00 426.00 429.00 433.00 438.00 441.00 446.00 448.00" y="230.00">MarketingStrategies,StudyonConsumerBehaviorsinNigeria,Therelationship</text>
  <clipPath clip-rule="evenodd" id="hkswfjson-cp1300002">
  <path d="M 151.8 240.95 L 181.8 240.95 L 181.8 250.4 L 151.8 250.4 L 151.8 240.95 "/>
</clipPath>
  <g clip-path="url(#hkswfjson-cp1300002)">
  <text font-family="f0f7" font-size="9" x="151.00 156.00 160.00 162.00 169.00 173.00 177.00" y="249.00">between</text>
</g>
  <clipPath clip-rule="evenodd" id="hkswfjson-cp1300003">
  <path d="M 184.05 240.95 L 221.5 240.95 L 221.5 250.4 L 184.05 250.4 L 184.05 240.95 "/>
</clipPath>
  <g clip-path="url(#hkswfjson-cp1300003)">
  <text font-family="f0f7" font-size="9" x="184.00 192.00 196.00 199.00 203.00 207.00 210.00 212.00 217.00" y="249.00">Marketing</text>
</g>
  <clipPath clip-rule="evenodd" id="hkswfjson-cp1300004">
  <path d="M 223.8 240.95 L 259.2 240.95 L 259.2 250.4 L 223.8 250.4 L 223.8 240.95 "/>
</clipPath>
  <g clip-path="url(#hkswfjson-cp1300004)">
  <text font-family="f0f7" font-size="9" x="223.00 228.00 231.00 234.00 238.00 240.00 244.00 249.00 251.00 255.00" y="249.00">Strategies</text>
</g>
  <clipPath clip-rule="evenodd" id="hkswfjson-cp1300005">
  <path d="M 261.6 240.95 L 274.55 240.95 L 274.55 250.4 L 261.6 250.4 L 261.6 240.95 "/>
</clipPath>
  <g clip-path="url(#hkswfjson-cp1300005)">
  <text font-family="f0f7" font-size="9" x="261.00 265.00 270.00" y="249.00">and</text>
</g>
  <clipPath clip-rule="evenodd" id="hkswfjson-cp1300006">
  <path d="M 276.8 240.95 L 313.9 240.95 L 313.9 250.4 L 276.8 250.4 L 276.8 240.95 "/>
</clipPath>
  <g clip-path="url(#hkswfjson-cp1300006)">
  <text font-family="f0f7" font-size="9" x="276.00 282.00 287.00 291.00 295.00 299.00 306.00 310.00" y="249.00">Consumer</text>
</g>
  <clipPath clip-rule="evenodd" id="hkswfjson-cp1300007">
  <path d="M 316.05 240.95 L 354.8 240.95 L 354.8 250.4 L 316.05 250.4 L 316.05 240.95 "/>
</clipPath>
  <g clip-path="url(#hkswfjson-cp1300007)">
  <text font-family="f0f7" font-size="9" x="316.00 322.00 326.00 330.00 334.00 339.00 341.00 346.00 349.00 352.00" y="249.00">Behaviors,</text>
</g>
  <clipPath clip-rule="evenodd" id="hkswfjson-cp1300008">
  <path d="M 357 240.95 L 396.45 240.95 L 396.45 250.4 L 357 250.4 L 357 240.95 "/>
</clipPath>
  <g clip-path="url(#hkswfjson-cp1300008)">
  <text font-family="f0f7" font-size="9" x="357.00 363.00 367.00 372.00 374.00 378.00 382.00 385.00 389.00 393.00" y="249.00">Contextual</text>
</g>
  <clipPath clip-rule="evenodd" id="hkswfjson-cp1300009">
  <path d="M 398.75 240.95 L 425.25 240.95 L 425.25 250.4 L 398.75 250.4 L 398.75 240.95 "/>
</clipPath>
  <g clip-path="url(#hkswfjson-cp1300009)">
  <text font-family="f0f7" font-size="9" x="398.00 403.00 407.00 411.00 414.00 418.00 421.00" y="249.00">Factors</text>
</g>
  <clipPath clip-rule="evenodd" id="hkswfjson-cp1300010">
  <path d="M 427.4 240.95 L 434.5 240.95 L 434.5 250.4 L 427.4 250.4 L 427.4 240.95 "/>
</clipPath>
  <g clip-path="url(#hkswfjson-cp1300010)">
  <text font-family="f0f7" font-size="9" x="427.00 429.00" y="249.00">in</text>
</g>
  <clipPath clip-rule="evenodd" id="hkswfjson-cp1300011">
  <path d="M 436.65 240.95 L 463.8 240.95 L 463.8 250.4 L 436.65 250.4 L 436.65 240.95 "/>
</clipPath>
  <g clip-path="url(#hkswfjson-cp1300011)">
  <text font-family="f0f7" font-size="9" x="436.00 443.00 445.00 450.00 454.00 457.00 459.00" y="249.00">Nigeria</text>
</g>
  <path d="M 141.35 270.6 L 476.75 270.6 L 476.75 348.7 L 141.35 348.7 L 141.35 270.6 " fill="none" stroke="rgb(21,96,130)" stroke-linecap="butt" stroke-linejoin="miter" stroke-miterlimit="10.000000" stroke-width="0.5"/>
  <path d="M 141.2 270.35 L 476.6 270.35 L 476.6 348.6 L 141.2 348.6 L 141.2 270.35 " fill="rgb(233,113,50)" fill-rule="evenodd"/>
  <text font-family="f0f7" font-size="9" x="156.00 162.00 167.00 171.00 175.00 178.00 182.00 187.00 192.00 197.00 200.00 204.00 208.00 213.00 219.00 225.00 230.00 233.00 238.00 241.00 246.00 248.00 252.00 255.00 260.00 264.00 266.00 269.00 273.00 278.00 282.00 287.00 295.00 299.00 302.00 306.00 310.00 312.00 315.00 319.00 326.00 331.00 334.00 337.00 341.00 343.00 347.00 352.00 354.00 358.00 364.00 368.00 373.00 379.00 385.00 390.00 394.00 398.00 402.00 409.00 413.00 419.00 425.00 429.00 433.00 437.00 441.00 444.00 448.00 454.00 456.00" y="286.00">ChapterThree:DHL’sInternationalMarketingStrategiesandConsumerBehaviorin</text>
  <text font-family="f0f7" font-size="9" x="161.00 168.00 170.00 175.00 179.00 182.00 184.00 188.00 193.00 196.00 200.00 203.00 206.00 210.00 215.00 219.00 223.00 226.00 228.00 233.00 240.00 244.00 249.00 256.00 262.00 270.00 276.00 280.00 287.00 292.00 296.00 300.00 304.00 308.00 315.00 319.00 323.00 328.00 330.00 333.00 337.00 344.00 350.00 357.00 362.00 364.00 370.00 373.00 377.00 380.00 384.00 387.00 391.00 395.00 398.00 400.00 405.00 409.00 413.00 418.00 426.00 430.00 433.00 438.00 441.00 444.00 446.00 451.00" y="304.00">Nigeria,IntroductionofDHLCompany,AdaptingDHL’sInternationalMarketing</text>
  <text font-family="f0f7" font-size="9" x="152.00 157.00 159.00 162.00 166.00 169.00 173.00 177.00 180.00 184.00 190.00 192.00 199.00 205.00 209.00 214.00 217.00 222.00 229.00 233.00 238.00 244.00 248.00 253.00 257.00 261.00 263.00 268.00 273.00 276.00 283.00 289.00 292.00 296.00 300.00 303.00 306.00 309.00 314.00 320.00 323.00 325.00 330.00 334.00 341.00 345.00 349.00 354.00 359.00 364.00 371.00 377.00 382.00 384.00 390.00 398.00 402.00 405.00 409.00 413.00 416.00 418.00 423.00 430.00 435.00 437.00 440.00 444.00 447.00 451.00 455.00 458.00 462.00" y="322.00">StrategiestoConsumerBehaviorinNigeria,AlignmentofDHL’sMarketingStrategies</text>
  <text font-family="f0f7" font-size="9" x="241.00 248.00 250.00 253.00 260.00 266.00 269.00 273.00 277.00 280.00 282.00 286.00 293.00 299.00 304.00 308.00 312.00 316.00 323.00 327.00 331.00 334.00 339.00 342.00 346.00 349.00 353.00 356.00 360.00 364.00 368.00 372.00" y="340.00">withNigerianConsumer’Preferences</text>
  <path d="M 142.55 364.8 L 477.95 364.8 L 477.95 412.8 L 142.55 412.8 L 142.55 364.8 " fill="none" stroke="rgb(21,96,130)" stroke-linecap="butt" stroke-linejoin="miter" stroke-miterlimit="10.000000" stroke-width="0.5"/>
  <path d="M 142.4 364.55 L 477.8 364.55 L 477.8 412.65 L 142.4 412.65 L 142.4 364.55 " fill="rgb(233,113,50)" fill-rule="evenodd"/>
  <text font-family="f0f7" font-size="9" x="150.00 156.00 161.00 165.00 170.00 172.00 176.00 181.00 186.00 191.00 195.00 198.00 203.00 209.00 213.00 216.00 220.00 224.00 227.00 231.00 238.00 246.00 250.00 253.00 257.00 262.00 266.00 271.00 273.00 278.00 282.00 289.00 293.00 297.00 304.00 311.00 315.00 317.00 321.00 326.00 332.00 336.00 339.00 343.00 347.00 350.00 354.00 361.00 367.00 371.00 375.00 377.00 382.00 386.00 391.00 397.00 401.00 404.00 408.00 412.00 415.00 419.00 426.00 433.00 437.00 442.00 446.00 449.00 453.00 457.00 461.00 463.00 467.00" y="380.00">ChapterFour:ResearchMethodologyandData,ResearchDesign,ResearchHypothesis,</text>
  <text font-family="f0f7" font-size="9" x="176.00 183.00 187.00 189.00 193.00 196.00 203.00 206.00 210.00 213.00 217.00 224.00 227.00 231.00 237.00 243.00 246.00 253.00 258.00 260.00 267.00 272.00 274.00 278.00 282.00 287.00 292.00 296.00 303.00 307.00 310.00 312.00 317.00 323.00 328.00 332.00 336.00 341.00 345.00 348.00 352.00 357.00 361.00 364.00 369.00 377.00 381.00 383.00 388.00 392.00 399.00 403.00 409.00 411.00 416.00 422.00 427.00 429.00 434.00 438.00" y="398.00">DeterminingtheSampleSize,SamplingTechniques,MethodoftheStudy</text>
  <path d="M 142.55 428.35 L 477.95 428.35 L 477.95 482.35 L 142.55 482.35 L 142.55 428.35 " fill="none" stroke="rgb(21,96,130)" stroke-linecap="butt" stroke-linejoin="miter" stroke-miterlimit="10.000000" stroke-width="0.5"/>
  <path d="M 142.4 428.15 L 477.8 428.15 L 477.8 482.25 L 142.4 482.25 L 142.4 428.15 " fill="rgb(233,113,50)" fill-rule="evenodd"/>
  <text font-family="f0f7" font-size="9" x="153.00 159.00 163.00 167.00 172.00 174.00 178.00 183.00 188.00 191.00 195.00 199.00 204.00 209.00 212.00 216.00 218.00 221.00 224.00 227.00 229.00 233.00 237.00 241.00 248.00 252.00 256.00 259.00 263.00 267.00 269.00 273.00 277.00 284.00 288.00 291.00 295.00 298.00 301.00 305.00 308.00 310.00 315.00 321.00 327.00 332.00 336.00 338.00 343.00 346.00 349.00 352.00 357.00 363.00 367.00 370.00 376.00 381.00 385.00 388.00 390.00 395.00 397.00 400.00 406.00 411.00 415.00 419.00 421.00 426.00 432.00 436.00 439.00 442.00 446.00 449.00 453.00 455.00 458.00 462.00" y="444.00">ChapterFive:StatisticalAnalysis,DescriptiveAnalysis,DataValidityTest,Correlation</text>
  <text font-family="f0f7" font-size="9" x="195.00 201.00 205.00 209.00 212.00 216.00 220.00 222.00 226.00 231.00 239.00 243.00 246.00 248.00 251.00 255.00 258.00 264.00 270.00 274.00 278.00 281.00 285.00 289.00 292.00 295.00 299.00 306.00 314.00 319.00 323.00 327.00 330.00 334.00 340.00 344.00 348.00 350.00 355.00 359.00 361.00 364.00 369.00 375.00 380.00 385.00 388.00 392.00 398.00 404.00 408.00 412.00 416.00 419.00 421.00" y="462.00">Analysis,MultipleRegressionModel,EvaluationoftheResults</text>
  <path d="M 144.35 499.15 L 479.75 499.15 L 479.75 550.75 L 144.35 550.75 L 144.35 499.15 " fill="none" stroke="rgb(21,96,130)" stroke-linecap="butt" stroke-linejoin="miter" stroke-miterlimit="10.000000" stroke-width="0.5"/>
  <path d="M 144.2 498.95 L 479.6 498.95 L 479.6 550.65 L 144.2 550.65 L 144.2 498.95 " fill="rgb(233,113,50)" fill-rule="evenodd"/>
  <text font-family="f0f7" font-size="9" x="177.00 183.00 187.00 191.00 196.00 198.00 202.00 207.00 212.00 215.00 219.00 231.00 237.00 241.00 246.00 250.00 252.00 257.00 260.00 263.00 267.00 274.00 278.00 283.00 289.00 295.00 299.00 303.00 308.00 315.00 322.00 326.00 330.00 335.00 339.00 341.00 344.00 348.00 353.00 357.00 363.00 368.00 372.00 376.00 379.00 383.00 387.00 389.00 394.00 401.00 405.00 410.00 413.00 418.00 424.00 429.00 431.00 436.00 440.00 444.00" y="519.00">ChapterSix:ConclusionandRecommendation,ConclusionoftheStudy,</text>
  <text font-family="f0f7" font-size="9" x="198.00 204.00 208.00 212.00 216.00 223.00 230.00 234.00 239.00 243.00 247.00 250.00 252.00 257.00 264.00 268.00 273.00 276.00 280.00 287.00 292.00 294.00 299.00 303.00 307.00 312.00 317.00 321.00 325.00 330.00 334.00 338.00 340.00 342.00 347.00 354.00 358.00 363.00 369.00 373.00 376.00 378.00 383.00 387.00 392.00 398.00 402.00 406.00 410.00 414.00 417.00 421.00" y="537.00">RecommendationoftheStudy,SuggestionofFurtherResearch</text>
  <text font-family="f0f7" font-size="12" x="238.00 245.00 248.00 254.00 260.00 266.00 269.00 278.00 285.00 291.00 296.00 301.00 304.00 312.00 319.00 322.00 326.00 332.00 337.00 341.00 347.00 351.00" y="585.00">Fig.1.1ThesisStructure</text>
  <text font-family="f0f7" font-size="12" x="238.00 244.00 250.00 256.00 260.00 266.00" y="604.00">Source</text>
  <text font-family="f0f546" font-size="12" x="271.00" y="604.00">:</text>
  <text font-family="f0f7" font-size="12" x="277.00 286.00 292.00 295.00 301.00 307.00 312.00 315.00 323.00 331.00 337.00 341.00 345.00 351.00" y="604.00">Author’sDesign</text>
  <path d="M 305.6 421.9 L 310.9 421.9 L 310.9 412.75 L 321.45 412.75 L 321.45 421.9 L 326.6 421.9 L 316.15 430.9 L 305.6 421.9 " fill="rgb(21,96,130)" fill-rule="evenodd"/>
  <path d="M 305.75 421.9 L 311 421.9 L 311 412.75 L 321.45 412.75 L 321.45 421.9 L 326.75 421.9 L 316.15 431 L 305.75 421.9 " fill="none" stroke="rgb(8,40,55)" stroke-linecap="butt" stroke-linejoin="miter" stroke-miterlimit="10.000000" stroke-width="1.0"/>
  <path d="M 299.75 263.5 L 305 263.5 L 305 254.4 L 315.45 254.4 L 315.45 263.5 L 320.75 263.5 L 310.15 272.6 L 299.75 263.5 " fill="none" stroke="rgb(8,40,55)" stroke-linecap="butt" stroke-linejoin="miter" stroke-miterlimit="10.000000" stroke-width="1.0"/>
  <path d="M 299.6 263.5 L 304.9 263.5 L 304.9 254.4 L 315.45 254.4 L 315.45 263.5 L 320.6 263.5 L 310.15 272.5 L 299.6 263.5 " fill="rgb(21,96,130)" fill-rule="evenodd"/>
  <path d="M 304.55 358.3 L 309.8 358.3 L 309.8 349.15 L 320.25 349.15 L 320.25 358.3 L 325.55 358.3 L 314.95 367.4 L 304.55 358.3 " fill="none" stroke="rgb(8,40,55)" stroke-linecap="butt" stroke-linejoin="miter" stroke-miterlimit="10.000000" stroke-width="1.0"/>
  <path d="M 304.4 358.3 L 309.7 358.3 L 309.7 349.15 L 320.25 349.15 L 320.25 358.3 L 325.4 358.3 L 315 367.3 L 304.4 358.3 " fill="rgb(21,96,130)" fill-rule="evenodd"/>
  <path d="M 299.75 171.1 L 305 171.1 L 305 161.95 L 315.45 161.95 L 315.45 171.1 L 320.75 171.1 L 310.15 180.2 L 299.75 171.1 " fill="none" stroke="rgb(8,40,55)" stroke-linecap="butt" stroke-linejoin="miter" stroke-miterlimit="10.000000" stroke-width="1.0"/>
  <path d="M 299.6 171.1 L 304.9 171.1 L 304.9 161.95 L 315.45 161.95 L 315.45 171.1 L 320.6 171.1 L 310.15 180.1 L 299.6 171.1 " fill="rgb(21,96,130)" fill-rule="evenodd"/>
  <path d="M 304.8 492.2 L 310.05 492.2 L 310.05 483.2 L 320.6 483.2 L 320.6 492.2 L 325.8 492.2 L 315.35 501.35 L 304.8 492.2 " fill="none" stroke="rgb(8,40,55)" stroke-linecap="butt" stroke-linejoin="miter" stroke-miterlimit="10.000000" stroke-width="1.0"/>
  <path d="M 304.8 492.2 L 310.05 492.2 L 310.05 483.1 L 320.5 483.1 L 320.5 492.2 L 325.8 492.2 L 315.2 501.35 L 304.8 492.2 " fill="rgb(21,96,130)" fill-rule="evenodd"/>
</g>
<style >@font-face {
font-family: "f0f546";
src: url("../font/f0f546.ttf");
}
@font-face {
font-family: "f0f7";
src: url("../font/f0f7.ttf");
}
</style>
</svg>