<?xml version="1.0" encoding="UTF-8"?>
<svg height="805.85" version="1.1" viewBox="0 0 595.25 805.85" width="595.25" xmlns="http://www.w3.org/2000/svg" xmlns:xlink="http://www.w3.org/1999/xlink">
<defs>
<clipPath clip-rule="evenodd" id="hkswfjson-cp0">
  <path d="M 0 0 L 595.25 0 L 595.25 805.85 L 0 805.85 L 0 0 "/>
</clipPath>
</defs>
<g clip-path="url(#hkswfjson-cp0)">
  <path d="M 0 0 L 595.25 0 L 595.25 805.85 L 0 805.85 L 0 0 " fill="rgb(255,255,255)" fill-rule="evenodd"/>
  <path d="M -.05 -.05 L 595.2 -.05 L 595.2 841.8 L -.05 841.8 L -.05 -.05 " fill="rgb(255,255,255)" fill-rule="evenodd"/>
  <text font-family="f0f7" font-size="10" x="76.00 86.00 93.00 98.00 102.00 106.00 111.00 115.00 119.00 127.00 132.00 140.00 143.00 148.00 156.00 159.00 167.00 172.00 177.00 182.00 187.00 193.00 199.00 206.00 214.00 220.00 222.00 229.00 232.00 238.00 240.00 245.00 249.00 254.00 259.00 262.00 265.00 270.00 275.00 280.00 285.00 294.00 299.00 303.00 308.00 313.00 316.00 318.00 324.00 332.00 337.00 340.00 344.00 348.00 351.00 356.00 361.00 364.00 369.00 376.00 381.00 389.00 396.00 401.00 406.00 410.00 416.00 424.00 428.00 435.00 441.00 446.00 451.00 456.00 461.00 464.00 470.00 476.00 478.00 486.00 494.00 497.00 502.00 507.00 510.00 513.00" y="80.00">AResearchontheImpactofDHL'sInternationalMarketingStrategiesonConsumerBehaviorinNigeria</text>
  <path d="M 70.8 82.8 L 524.4 82.8 L 524.4 83.4 L 70.8 83.4 L 70.8 82.8 " fill-rule="evenodd"/>
  <clipPath clip-rule="evenodd" id="hkswfjson-cp1">
  <path d="M 294.2 770.6 L 297.8 770.6 L 297.8 782.85 L 294.2 782.85 L 294.2 770.6 "/>
</clipPath>
  <g clip-path="url(#hkswfjson-cp1)">
  <text font-family="f0f7" font-size="10" x="294.00" y="780.00">I</text>
</g>
  <text font-family="f0f12" font-size="14" x="267.00 312.00" y="120.00">摘要</text>
  <text font-family="f0f13" font-size="12" x="94.00 106.00 118.00 131.00 143.00" y="160.00">本文探讨了</text>
  <text font-family="f0f7" font-size="12" x="158.00 166.00 175.00" y="160.00">DHL</text>
  <text font-family="f0f13" font-size="12" x="186.00 198.00 210.00 222.00 234.00 246.00 258.00 270.00 282.00 294.00 306.00 318.00 330.00 342.00 354.00 367.00 379.00 391.00 403.00 415.00 427.00 439.00 451.00 463.00 475.00 487.00 499.00 511.00" y="160.00">的国际营销策略以及数字创新对尼日利亚消费者行为的影响。作</text>
  <text font-family="f0f13" font-size="12" x="70.00 83.00 95.00 107.00 119.00 131.00 143.00 155.00 168.00 180.00 192.00 204.00 216.00" y="179.00">为全球领先的物流公司之一</text>
  <text font-family="f0f7" font-size="12" x="229.00 237.00 246.00" y="179.00">DHL</text>
  <text font-family="f0f13" font-size="12" x="256.00 268.00 281.00 293.00 305.00 317.00 329.00 342.00 354.00 366.00" y="179.00">在包括尼日利亚在内的</text>
  <text font-family="f0f7" font-size="12" x="381.00 387.00 393.00" y="179.00">220</text>
  <text font-family="f0f13" font-size="12" x="402.00 414.00 427.00 439.00 451.00 463.00 475.00 487.00 500.00 512.00" y="179.00">多个国家开展业务尼</text>
  <text font-family="f0f13" font-size="12" x="70.00 82.00 94.00 106.00 118.00 130.00 142.00 154.00 166.00 178.00 190.00 202.00 214.00 226.00 238.00 250.00 262.00 273.00 285.00 297.00 309.00 321.00 333.00 345.00 357.00 369.00 381.00 393.00 405.00 417.00 429.00 441.00 453.00 464.00 476.00 488.00 500.00 512.00" y="199.00">日利亚是一个关键且快速增长的市场具有独特的文化、经济和社会动态。使用结构化</text>
  <text font-family="f0f13" font-size="12" x="70.00 83.00 94.00 107.00 119.00 131.00 143.00 155.00 167.00 179.00 191.00 203.00 215.00 227.00 239.00 251.00" y="218.00">问卷收集了初步调查数据分析了</text>
  <text font-family="f0f7" font-size="12" x="267.00 275.00 284.00" y="218.00">DHL</text>
  <text font-family="f0f13" font-size="12" x="294.00 306.00 318.00 331.00 343.00 355.00 367.00 379.00 391.00 403.00 415.00 427.00 439.00 451.00 463.00 475.00 487.00 500.00 512.00" y="218.00">物流公司的国际营销策略和消费者行为。该</text>
  <text font-family="f0f13" font-size="12" x="70.00 82.00 94.00 106.00 118.00" y="238.00">研究评估了</text>
  <text font-family="f0f7" font-size="12" x="133.00 142.00 151.00" y="237.00">DHL</text>
  <text font-family="f0f13" font-size="12" x="161.00 173.00 185.00 197.00 209.00 221.00 233.00 245.00 257.00 269.00 281.00 293.00 305.00 317.00 329.00 341.00 353.00 365.00 377.00 389.00 401.00 413.00 425.00 437.00 449.00 461.00 473.00 485.00 497.00 509.00 521.00" y="238.00">量身定制的营销方法如何与尼日利亚消费者的独特偏好和行为相一致</text>
  <text font-family="f0f13" font-size="12" x="70.00 82.00 94.00 106.00 118.00 130.00 142.00 154.00 166.00 178.00 190.00 202.00 214.00 226.00 238.00 250.00 262.00 274.00 286.00 298.00 310.00 322.00 334.00" y="257.00">特别关注文化适应、客户满意度和服务定制等因素。</text>
  <text font-family="f0f13" font-size="12" x="94.00 106.00 118.00 131.00 143.00 155.00 167.00 179.00 191.00 203.00 215.00 227.00 239.00 251.00 263.00 275.00 288.00 300.00 312.00 324.00 336.00 348.00 360.00 372.00 384.00 396.00 408.00" y="277.00">描述性统计提到了受访者的人口统计因素、客户的意见及其对</text>
  <text font-family="f0f7" font-size="12" x="424.00 432.00 441.00" y="276.00">DHL</text>
  <text font-family="f0f13" font-size="12" x="451.00 463.00 475.00 488.00 500.00 512.00" y="277.00">物流服务的信</text>
  <text font-family="f0f13" font-size="12" x="70.00 82.00 94.00 105.00 117.00 129.00 141.00 153.00 165.00 177.00 189.00 201.00 213.00 225.00 237.00 249.00 261.00 273.00 285.00 297.00 309.00 321.00 333.00 345.00 357.00 369.00 381.00 393.00 404.00 416.00 428.00 440.00 452.00 464.00 476.00 488.00 500.00 512.00" y="296.00">任以及经济因素对尼日利亚消费者行为的影响百分比。此外研究结果还考察了经济</text>
  <text font-family="f0f13" font-size="12" x="70.00 83.00 94.00 107.00 119.00 131.00" y="316.00">和文化因素对</text>
  <text font-family="f0f7" font-size="12" x="146.00 154.00 163.00" y="315.00">DHL</text>
  <text font-family="f0f13" font-size="12" x="174.00 186.00 198.00 210.00 222.00 234.00 246.00 258.00 270.00 282.00 294.00 306.00 318.00 330.00 342.00 354.00 367.00 379.00 391.00 403.00 415.00 427.00 439.00 451.00 463.00 475.00 487.00 499.00 511.00" y="316.00">在尼日利亚的国际营销策略的影响。这些策略包括服务多元化、技</text>
  <text font-family="f0f13" font-size="12" x="70.00 82.00 94.00 106.00 118.00 130.00 142.00 154.00 166.00 178.00 190.00 201.00 213.00 225.00 237.00 249.00 261.00 273.00 285.00 297.00 309.00 321.00 333.00 345.00 357.00 369.00 381.00 393.00 405.00 417.00 429.00 440.00 452.00 464.00 476.00 488.00 500.00 512.00" y="335.00">术整合、可持续性营销、战略伙伴关系和联盟、以客户为中心的方法。多元回归模型显</text>
  <text font-family="f0f13" font-size="12" x="70.00 83.00" y="355.00">示了</text>
  <text font-family="f0f7" font-size="12" x="98.00 106.00 115.00" y="354.00">DHL</text>
  <text font-family="f0f13" font-size="12" x="125.00 137.00 149.00 161.00 174.00 186.00 198.00 210.00 222.00 234.00 246.00 258.00 270.00 282.00 294.00 306.00 318.00 330.00 342.00 355.00 367.00 379.00 391.00 403.00 415.00 427.00 439.00 451.00 463.00 475.00 487.00 499.00 511.00" y="355.00">的营销策略和服务对消费者满意度的影响。此外本研究还考察了经济和文</text>
  <text font-family="f0f13" font-size="12" x="70.00 83.00 94.00 107.00 119.00 131.00 143.00 155.00 167.00 179.00 191.00 203.00 215.00" y="374.00">化因素的影响。该研究确定了</text>
  <text font-family="f0f7" font-size="12" x="230.00 239.00 248.00" y="374.00">DHL</text>
  <text font-family="f0f13" font-size="12" x="258.00 270.00 282.00 294.00 306.00 318.00 330.00 343.00 355.00 367.00 379.00 391.00 403.00 415.00 427.00 439.00 451.00 463.00 475.00 487.00 500.00 512.00" y="374.00">的全球营销策略与尼日利亚消费者的具体需求之间</text>
  <text font-family="f0f13" font-size="12" x="70.00 82.00 94.00 106.00 117.00 129.00 141.00 153.00 165.00 177.00 189.00 201.00 213.00 225.00 237.00" y="394.00">的差距。本研究采用混合方法对</text>
  <text font-family="f0f7" font-size="12" x="252.00 258.00 264.00" y="393.00">324</text>
  <text font-family="f0f13" font-size="12" x="273.00 285.00 297.00 309.00 321.00 333.00 345.00 357.00 369.00 381.00 393.00 405.00 416.00 428.00 440.00 452.00 464.00 476.00 488.00 500.00 512.00" y="394.00">名受访者进行了初步调查收集了尼日利亚消费</text>
  <text font-family="f0f13" font-size="12" x="70.00 83.00" y="413.00">者对</text>
  <text font-family="f0f7" font-size="12" x="98.00 106.00 115.00" y="413.00">DHL</text>
  <text font-family="f0f13" font-size="12" x="125.00 137.00 149.00 161.00 174.00 186.00 198.00 210.00 222.00 234.00 246.00 258.00 270.00 282.00 294.00 306.00 318.00 330.00 342.00 355.00 367.00 379.00 391.00 403.00 415.00 427.00 439.00 451.00 463.00 475.00 487.00 499.00 511.00" y="413.00">服务看法的定量数据。相关性和回归分析用于评估服务有形性、保证和客户</text>
  <text font-family="f0f13" font-size="12" x="70.00 82.00 94.00 106.00 118.00 130.00 142.00 154.00 166.00 178.00 190.00 202.00 214.00 226.00 238.00 250.00 262.00 274.00 286.00 298.00 310.00 322.00 334.00 346.00 358.00 370.00 382.00 394.00 406.00" y="433.00">满意度等关键变量之间的关系以及文化和经济因素的调节作用。</text>
  <text font-family="f0f13" font-size="12" x="94.00 106.00 118.00 131.00 143.00 155.00 167.00 179.00 191.00" y="452.00">调查结果显示虽然</text>
  <text font-family="f0f7" font-size="12" x="206.00 215.00 223.00" y="452.00">DHL</text>
  <text font-family="f0f13" font-size="12" x="234.00 246.00 258.00 270.00 282.00 294.00 306.00 318.00 330.00 343.00 355.00 367.00 379.00 391.00 403.00 415.00 427.00 439.00 451.00 463.00 475.00 487.00 500.00 512.00" y="452.00">的全球营销策略总体上符合消费者的期望但仍有需要</text>
  <text font-family="f0f13" font-size="12" x="70.00 82.00 94.00 106.00 118.00 130.00 141.00 153.00 165.00 177.00 189.00 201.00 213.00 225.00 237.00 249.00 261.00 273.00 285.00 297.00 309.00 321.00 333.00 345.00 357.00 369.00 381.00 393.00 405.00 417.00 428.00 440.00 452.00 464.00 476.00 488.00 500.00 512.00" y="472.00">改进的地方特别是在解决价格敏感性和当地语言考虑方面。此外该研究强调了文化</text>
  <text font-family="f0f13" font-size="12" x="70.00 82.00 94.00 106.00 118.00 130.00 142.00 154.00 166.00 178.00 190.00 202.00 214.00 226.00 238.00 250.00 262.00 274.00 286.00 298.00 308.00 320.00 332.00 344.00 356.00 368.00 380.00 392.00 404.00 416.00 428.00 440.00 452.00 464.00 476.00 488.00 500.00 512.00" y="491.00">因素在塑造客户感知和满意度方面的重要性。这项研究的建议包括进一步本地化服务和</text>
  <text font-family="f0f13" font-size="12" x="70.00 83.00 94.00 107.00 119.00 131.00 143.00 155.00 167.00 179.00 191.00 203.00 215.00 227.00 239.00 251.00 263.00 276.00 288.00 300.00 312.00 324.00 336.00 348.00 360.00 372.00 384.00 396.00 408.00" y="511.00">营销传播以更好地与尼日利亚消费者产生共鸣从而有可能提高</text>
  <text font-family="f0f7" font-size="12" x="424.00 432.00 441.00" y="510.00">DHL</text>
  <text font-family="f0f13" font-size="12" x="451.00 463.00 475.00 488.00 500.00 512.00" y="511.00">在这个充满活</text>
  <text font-family="f0f13" font-size="12" x="70.00 82.00 94.00 106.00 118.00 130.00 142.00 154.00 166.00 178.00 190.00 202.00 214.00 226.00 238.00 250.00 262.00" y="530.00">力的市场中的市场份额和运营成功率。</text>
  <text font-family="f0f12" font-size="12" x="94.00 106.00 118.00 130.00" y="581.00">关键词</text>
  <text font-family="f0f7" font-size="12" x="142.00 151.00 160.00" y="581.00">DHL</text>
  <text font-family="f0f15" font-size="12" x="167.00 179.00 191.00 203.00 215.00 227.00 239.00 251.00 263.00 275.00 287.00 299.00 311.00" y="581.00">国际营销策略消费者行为</text>
  <text font-family="f0f7" font-size="12" x="323.00" y="581.00">;</text>
  <text font-family="f0f15" font-size="12" x="326.00 338.00 350.00 362.00" y="581.00">数字创新</text>
</g>
<style >@font-face {
font-family: "f0f13";
src: url("../font/f0f13.ttf");
}
@font-face {
font-family: "f0f12";
src: url("../font/f0f12.ttf");
}
@font-face {
font-family: "f0f15";
src: url("../font/f0f15.ttf");
}
@font-face {
font-family: "f0f7";
src: url("../font/f0f7.ttf");
}
</style>
</svg>