<?xml version="1.0" encoding="UTF-8"?>
<svg height="805.85" version="1.1" viewBox="0 0 595.25 805.85" width="595.25" xmlns="http://www.w3.org/2000/svg" xmlns:xlink="http://www.w3.org/1999/xlink">
<defs>
<clipPath clip-rule="evenodd" id="hkswfjson-cp1500000">
  <path d="M 0 0 L 595.25 0 L 595.25 805.85 L 0 805.85 L 0 0 "/>
</clipPath>
</defs>
<g clip-path="url(#hkswfjson-cp1500000)">
  <path d="M 0 0 L 595.25 0 L 595.25 805.85 L 0 805.85 L 0 0 " fill="rgb(255,255,255)" fill-rule="evenodd"/>
  <path d="M -.05 -.05 L 595.2 -.05 L 595.2 841.8 L -.05 841.8 L -.05 -.05 " fill="rgb(255,255,255)" fill-rule="evenodd"/>
  <text font-family="f0f7" font-size="10" x="240.00 248.00 254.00 257.00 264.00 270.00 277.00 284.00 290.00 298.00 305.00 314.00 321.00 327.00 335.00 338.00 344.00" y="80.00">2LITERATUREREVIEW</text>
  <path d="M 70.8 85.8 L 524.4 85.8 L 524.4 86.4 L 70.8 86.4 L 70.8 85.8 " fill-rule="evenodd"/>
  <clipPath clip-rule="evenodd" id="hkswfjson-cp1500001">
  <path d="M 292.05 770.6 L 303.1 770.6 L 303.1 782.85 L 292.05 782.85 L 292.05 770.6 "/>
</clipPath>
  <g clip-path="url(#hkswfjson-cp1500001)">
  <text font-family="f0f7" font-size="10" x="292.00 297.00" y="780.00">10</text>
</g>
  <text font-family="f0f7" font-size="12" x="70.00 76.00 80.00 86.00 92.00 97.00 105.00 115.00 120.00 124.00 130.00 135.00 139.00 143.00" y="112.00">globalmarkets.</text>
  <text fill="rgb(34,34,34)" font-family="f0f7" font-size="12" x="151.00 160.00 166.00 172.00 175.00 181.00 184.00 192.00 198.00 201.00 208.00 222.00 231.00 235.00 244.00 249.00 252.00 256.00 262.00 268.00 274.00 282.00 291.00 299.00 303.00 309.00 315.00 321.00 327.00" y="112.00">Kohler,P.,&Armstrong,G.(2006)</text>
  <text font-family="f0f7" font-size="12" x="336.00 341.00 350.00 356.00 362.00 368.00 372.00 376.00 381.00 386.00 397.00 401.00 407.00 412.00 420.00 426.00 430.00 436.00 442.00 448.00 453.00 462.00 468.00 473.00 479.00 484.00 488.00 494.00 500.00 509.00 514.00 520.00" y="112.00">emphasizedthatproductdevelopment</text>
  <text font-family="f0f7" font-size="12" x="70.00 80.00 86.00 90.00 99.00 103.00 109.00 114.00 120.00 131.00 137.00 148.00 154.00 158.00 164.00 170.00 174.00 180.00 183.00 189.00 201.00 205.00 211.00 215.00 221.00 224.00 227.00 233.00 239.00 250.00 253.00 265.00 270.00 276.00 281.00 284.00 290.00 299.00 305.00 314.00 320.00 325.00 331.00 337.00 347.00 356.00 362.00 365.00 368.00 379.00 384.00 387.00 397.00 403.00 406.00 409.00 415.00 421.00 426.00 432.00 438.00 443.00 446.00 458.00 463.00 466.00 470.00 476.00 482.00 485.00 491.00 503.00 511.00 515.00 518.00" y="130.00">mustfocusonprovidingsolutionstocustomerneedswhilesimultaneouslyaligningwith</text>
  <text font-family="f0f7" font-size="12" x="70.00 76.00 80.00 86.00 92.00 102.00 105.00 111.00 117.00 123.00 126.00 129.00 133.00 143.00 148.00 154.00 165.00 170.00 176.00 181.00 187.00 191.00 194.00 200.00 210.00 214.00 224.00 228.00 234.00 239.00 244.00 252.00 258.00 262.00 267.00 271.00 276.00 280.00 286.00 292.00 297.00 302.00 307.00 314.00 320.00 329.00 334.00 340.00 346.00 355.00 361.00 364.00 368.00 372.00 375.00 380.00 391.00 397.00 407.00 416.00 424.00 431.00 434.00 443.00 446.00 452.00 455.00 458.00 464.00 468.00 473.00 484.00 487.00 493.00 499.00 502.00 507.00 510.00 514.00 519.00" y="148.00">brandidentityandadaptingtolocalpreferences,asexemplifiedbyDHL'stailoredlogistics</text>
  <text font-family="f0f7" font-size="12" x="70.00 75.00 80.00 84.00 90.00 94.00 99.00 104.00 113.00 116.00 126.00 134.00 138.00 143.00 149.00 153.00 156.00 161.00 168.00 176.00 182.00 188.00 194.00 199.00 205.00 209.00 217.00 223.00 226.00 231.00 235.00 241.00 247.00 256.00 261.00 268.00 273.00 277.00 283.00 287.00 293.00 299.00 305.00 311.00 319.00 325.00 328.00 334.00 340.00 343.00 347.00 353.00 359.00 362.00 367.00 377.00 381.00 387.00 395.00 399.00 408.00 414.00 420.00 424.00 427.00 433.00 439.00 444.00 453.00 459.00 467.00 473.00 478.00 481.00 487.00 492.00 496.00 502.00 508.00 513.00 518.00" y="166.00">servicesinNigeria.Rondan-Catalunaetal.(2019)highlightedtheimportanceofvalue-based</text>
  <text font-family="f0f7" font-size="12" x="70.00 76.00 80.00 84.00 89.00 92.00 98.00 113.00 118.00 121.00 125.00 131.00 134.00 139.00 145.00 149.00 154.00 159.00 171.00 177.00 182.00 186.00 189.00 192.00 198.00 204.00 207.00 212.00 216.00 220.00 235.00 238.00 253.00 258.00 268.00 273.00 277.00 283.00 286.00 292.00 307.00 316.00 322.00 326.00 332.00 337.00 340.00 345.00 357.00 366.00 372.00 377.00 381.00 395.00 400.00 404.00 408.00 414.00 418.00 424.00 429.00 435.00 439.00 442.00 446.00 449.00 464.00 469.00 472.00 478.00 484.00 487.00 491.00 494.00 500.00 505.00 511.00 515.00 518.00" y="184.00">pricingstrategies,particularlyinemergingmarkets,whereaffordabilitysignificantly</text>
  <text font-family="f0f7" font-size="12" x="70.00 74.00 80.00 84.00 87.00 93.00 98.00 104.00 110.00 115.00 125.00 131.00 135.00 141.00 147.00 153.00 158.00 167.00 173.00 182.00 187.00 192.00 196.00 202.00 205.00 211.00 221.00 227.00 233.00 239.00 245.00 248.00 251.00 257.00 263.00 271.00 279.00 285.00 288.00 298.00 304.00 308.00 311.00 317.00 323.00 326.00 332.00 335.00 346.00 349.00 359.00 365.00 370.00 374.00 378.00 381.00 387.00 392.00 398.00 407.00 410.00 422.00 430.00 439.00 446.00 448.00 458.00 464.00 470.00 475.00 486.00 490.00 501.00 507.00 511.00 515.00 520.00" y="202.00">influencesproductorserviceadoption.ThisprincipleispertinenttoDHL'sneedtooffer</text>
  <text font-family="f0f7" font-size="12" x="70.00 76.00 82.00 86.00 90.00 94.00 98.00 104.00 110.00 114.00 118.00 121.00 124.00 130.00 142.00 148.00 154.00 158.00 161.00 167.00 173.00 184.00 188.00 200.00 204.00 210.00 222.00 230.00 234.00 239.00 245.00 249.00 252.00 257.00 270.00 280.00 285.00 289.00 295.00 300.00 303.00 313.00 320.00 326.00 338.00 344.00 347.00 351.00 354.00 358.00 363.00 368.00 378.00 382.00 388.00 391.00 404.00 410.00 420.00 425.00 429.00 433.00 438.00 444.00 447.00 450.00 456.00 469.00 475.00 478.00 483.00 486.00 490.00 493.00 499.00 505.00 509.00 512.00 518.00" y="220.00">cost-sensitiveoptionsintheNigerianmarket.Thecriticalroleofeffectivedistribution</text>
  <text font-family="f0f7" font-size="12" x="70.00 75.00 78.00 82.00 88.00 91.00 96.00 102.00 106.00 111.00 116.00 126.00 132.00 138.00 141.00 144.00 150.00 163.00 166.00 172.00 178.00 188.00 191.00 197.00 201.00 205.00 209.00 218.00 221.00 225.00 237.00 243.00 248.00 252.00 255.00 261.00 266.00 270.00 276.00 285.00 294.00 300.00 303.00 309.00 322.00 328.00 332.00 337.00 342.00 347.00 353.00 356.00 368.00 374.00 380.00 383.00 389.00 395.00 407.00 413.00 419.00 424.00 427.00 431.00 436.00 442.00 448.00 453.00 465.00 468.00 481.00 490.00 493.00 499.00 504.00 508.00 512.00 517.00 519.00" y="238.00">strategies,notingthatlast-miledelivery,whichpresentsuniquechallengesinNigeria's</text>
  <text font-family="f0f7" font-size="12" x="70.00 74.00 80.00 84.00 88.00 93.00 98.00 101.00 105.00 111.00 116.00 120.00 126.00 130.00 135.00 141.00 144.00 152.00 160.00 166.00 172.00 181.00 187.00 192.00 195.00 201.00 204.00 214.00 217.00 223.00 228.00 234.00 241.00 247.00 254.00 260.00 266.00 271.00 275.00 281.00 284.00 290.00 295.00 300.00 304.00 310.00 314.00 319.00 327.00 333.00 339.00 344.00 348.00 351.00 355.00 360.00" y="257.00">infrastructure,isakeydeterminantofoverallservicequality.</text>
  <text font-family="f0f7" font-size="12" x="91.00 99.00 105.00 111.00 114.00 118.00 124.00 138.00 143.00 154.00 159.00 162.00 173.00 177.00 183.00 189.00 195.00 201.00 213.00 216.00 222.00 226.00 231.00 237.00 241.00 246.00 249.00 255.00 269.00 275.00 278.00 284.00 287.00 291.00 296.00 307.00 316.00 321.00 325.00 331.00 337.00 340.00 343.00 349.00 363.00 367.00 373.00 376.00 390.00 393.00 399.00 412.00 421.00 427.00 431.00 437.00 442.00 445.00 449.00 455.00 468.00 472.00 476.00 481.00 491.00 496.00 505.00 511.00 515.00 521.00" y="283.00">Chaffeyetal.(2016)integrateddigitalmarketingintothemarketingframework,</text>
  <text font-family="f0f7" font-size="12" x="70.00 74.00 80.00 85.00 91.00 97.00 103.00 106.00 112.00 115.00 121.00 135.00 139.00 142.00 155.00 161.00 164.00 170.00 176.00 180.00 185.00 196.00 200.00 206.00 210.00 223.00 227.00 241.00 245.00 251.00 255.00 259.00 264.00 268.00 271.00 277.00 292.00 297.00 303.00 309.00 314.00 320.00 329.00 334.00 347.00 350.00 354.00 360.00 365.00 376.00 381.00 387.00 402.00 408.00 412.00 415.00 421.00 424.00 430.00 445.00 450.00 456.00 462.00 467.00 473.00 479.00 488.00 493.00 499.00 503.00 514.00 519.00" y="301.00">recognizingitspivotalroleinfosteringconsumertrustanddrivingengagement,as</text>
  <text font-family="f0f7" font-size="12" x="70.00 76.00 82.00 91.00 97.00 103.00 108.00 111.00 115.00 120.00 124.00 129.00 139.00 145.00 154.00 163.00 172.00 179.00 181.00 190.00 196.00 199.00 202.00 206.00 209.00 214.00 220.00 223.00 226.00 232.00 242.00 248.00 256.00 260.00 266.00 272.00 275.00 280.00 287.00 297.00 302.00 308.00 311.00 320.00 329.00 332.00 336.00 342.00 345.00 355.00 358.00 364.00 373.00 382.00 385.00 391.00 396.00 400.00 404.00 409.00 419.00 424.00 430.00 436.00 440.00 445.00 451.00 454.00 461.00 468.00 474.00 477.00 481.00 487.00 492.00 496.00 506.00 512.00 515.00 521.00" y="319.00">demonstratedbyDHL'sutilizationofsocialmediawithintheNigeriancontext.Furthermore,</text>
  <text font-family="f0f7" font-size="12" x="70.00 76.00 88.00 93.00 99.00 103.00 108.00 114.00 119.00 122.00 128.00 141.00 147.00 157.00 160.00 166.00 178.00 184.00 191.00 202.00 205.00 218.00 221.00 227.00 232.00 236.00 242.00 248.00 259.00 264.00 270.00 276.00 280.00 283.00 287.00 293.00 299.00 304.00 314.00 319.00 322.00 327.00 337.00 342.00 348.00 351.00 363.00 367.00 373.00 379.00 384.00 387.00 391.00 395.00 400.00 405.00 409.00 412.00 424.00 428.00 434.00 437.00 442.00 448.00 454.00 460.00 469.00 473.00 485.00 490.00 495.00 499.00 505.00 508.00 514.00 519.00" y="337.00">anextensionofthe4Pstoincludeadditionalelementsspecificallyrelevanttoservices</text>
  <text font-family="f0f7" font-size="12" x="70.00 80.00 85.00 89.00 95.00 100.00 104.00 107.00 113.00 119.00 127.00 135.00 147.00 152.00 161.00 167.00 173.00 179.00 183.00 187.00 192.00 195.00 201.00 212.00 216.00 222.00 232.00 236.00 245.00 251.00 257.00 261.00 264.00 270.00 276.00 281.00 291.00 297.00 306.00 312.00 321.00 327.00 330.00 336.00 342.00 348.00 358.00 362.00 366.00 371.00 374.00 380.00 384.00 390.00 401.00 404.00 415.00 420.00 424.00 430.00 435.00 445.00 450.00 456.00 461.00 472.00 477.00 487.00 493.00 499.00 502.00 505.00 511.00 515.00 521.00" y="355.00">marketing:Byemphasizingtheimportanceofemployeetraininginareassuchascultural</text>
  <text font-family="f0f7" font-size="12" x="70.00 75.00 80.00 86.00 91.00 94.00 98.00 101.00 107.00 110.00 114.00 119.00 129.00 138.00 144.00 147.00 153.00 166.00 169.00 181.00 187.00 191.00 197.00 202.00 205.00 211.00 222.00 225.00 231.00 243.00 252.00 260.00 267.00 270.00 282.00 288.00 294.00 299.00 303.00 308.00 312.00 315.00 321.00 327.00 339.00 343.00 356.00 365.00 368.00 374.00 379.00 383.00 387.00 392.00 402.00 408.00 412.00 418.00 424.00 427.00 430.00 436.00 442.00 446.00 458.00 461.00 467.00 480.00 486.00 491.00 496.00 510.00 514.00 520.00" y="373.00">sensitivity,whichiscrucialforDHL'soperationsinNigeria,highlightstheneedfor</text>
  <text font-family="f0f7" font-size="12" x="70.00 75.00 78.00 82.00 88.00 93.00 102.00 106.00 109.00 115.00 120.00 131.00 137.00 141.00 147.00 152.00 158.00 162.00 167.00 172.00 177.00 185.00 189.00 195.00 201.00 211.00 217.00 226.00 231.00 237.00 242.00 246.00 252.00 261.00 270.00 276.00 279.00 284.00 289.00 294.00 299.00 305.00 310.00 316.00 323.00 327.00 337.00 343.00 349.00 355.00 360.00 366.00 371.00 381.00 386.00 391.00 395.00 401.00 405.00 410.00 420.00 425.00 429.00 433.00 436.00 442.00 445.00 450.00 456.00 462.00 473.00 476.00 487.00 491.00 497.00 503.00 508.00 511.00 515.00 518.00" y="391.00">streamlinedprocesses,suchascustomsclearance,toenhanceserviceefficiencyinspecific</text>
  <text font-family="f0f7" font-size="12" x="70.00 80.00 85.00 89.00 95.00 100.00 104.00 111.00 115.00 118.00 124.00 133.00 141.00 145.00 151.00 156.00 160.00 163.00 172.00 177.00 183.00 192.00 196.00 202.00 207.00 213.00 219.00 225.00 228.00 234.00 239.00 247.00 250.00 256.00 265.00 268.00 277.00 283.00 289.00 294.00 301.00 307.00 314.00 317.00 322.00 328.00 334.00 338.00 344.00 347.00 356.00 361.00 364.00 369.00 379.00 384.00 390.00 393.00 398.00 404.00 409.00 415.00 420.00 430.00 435.00 443.00 449.00 453.00 458.00 464.00 470.00 475.00 485.00 491.00 496.00 499.00 503.00 509.00 514.00 518.00" y="409.00">marketslikeNigeriaandrecognizestheimpactoftangibleelements,suchasbrandeddelivery</text>
  <text font-family="f0f7" font-size="12" x="70.00 76.00 82.00 88.00 91.00 96.00 100.00 105.00 113.00 118.00 124.00 133.00 138.00 144.00 150.00 156.00 159.00 164.00 167.00 170.00 176.00 181.00 184.00 190.00 199.00 202.00 206.00 211.00 216.00 222.00 226.00 232.00 241.00 246.00 251.00 256.00 260.00 265.00 274.00 279.00 285.00 288.00 297.00 302.00 308.00 313.00 319.00 323.00 329.00 338.00 343.00 349.00 354.00 357.00 363.00 372.00 378.00 385.00 391.00 396.00 400.00 405.00 411.00 417.00 420.00 423.00 429.00 435.00 440.00" y="427.00">vehiclesandsophisticatedtrackingsystems,inshapingcustomerperceptions.</text>
  <text font-family="f0f7" font-size="12" x="70.00 76.00 79.00 85.00 88.00 97.00 106.00 109.00 115.00 121.00 127.00 133.00 141.00 145.00 150.00 156.00 165.00 172.00 176.00 181.00 186.00 191.00 197.00 203.00" y="456.00">2.1.2GlobalBrandPresence</text>
  <text font-family="f0f7" font-size="12" x="94.00 103.00 112.00 124.00 130.00 136.00 146.00 152.00 156.00 160.00 165.00 171.00 174.00 178.00 182.00 188.00 194.00 206.00 217.00 221.00 225.00 229.00 235.00 241.00 253.00 259.00 262.00 268.00 274.00 279.00 289.00 295.00 299.00 304.00 310.00 322.00 326.00 332.00 338.00 344.00 350.00 356.00 366.00 372.00 378.00 388.00 397.00 400.00 404.00 416.00 420.00 425.00 428.00 432.00 437.00 443.00 446.00 450.00 453.00 456.00 462.00 470.00 475.00 481.00 486.00 492.00 498.00 507.00 512.00 518.00" y="477.00">DHLhasestablishedastrongglobalbrandsynonymouswithreliability,speed,and</text>
  <text font-family="f0f7" font-size="12" x="70.00 76.00 80.00 86.00 92.00 97.00 105.00 110.00 116.00 122.00 128.00 133.00 139.00 142.00 145.00 151.00 155.00 158.00 163.00 171.00 178.00 184.00 194.00 200.00 204.00 209.00 215.00 221.00 223.00 232.00 238.00 241.00 246.00 249.00 255.00 259.00 262.00 265.00 269.00 279.00 283.00 292.00 298.00 304.00 307.00 312.00 315.00 320.00 324.00 330.00 340.00 343.00 349.00 353.00 359.00 365.00 371.00 382.00 387.00 393.00 399.00 404.00 407.00 412.00 415.00 420.00 426.00 434.00 440.00 444.00 449.00 455.00 461.00 465.00 471.00 481.00 487.00 490.00 495.00 505.00 510.00 516.00 519.00" y="497.00">globalconnectivity.Thebrand'svisibilityisbolsteredthroughconsistentbrandingelements</text>
  <text font-family="f0f7" font-size="12" x="70.00 75.00 81.00 86.00 97.00 103.00 112.00 116.00 119.00 129.00 135.00 138.00 143.00 146.00 150.00 156.00 161.00 164.00 168.00 174.00 184.00 190.00 195.00 198.00 202.00 208.00 222.00 227.00 233.00 244.00 248.00 253.00 264.00 270.00 276.00 279.00 285.00 294.00 299.00 304.00 310.00 315.00 325.00 330.00 338.00 347.00 353.00 356.00 361.00 373.00 376.00 386.00 390.00 395.00 400.00 406.00 412.00 418.00 422.00 427.00 432.00 443.00 452.00 458.00 462.00 465.00 471.00 480.00 483.00 489.00 495.00 503.00 510.00 516.00 519.00" y="516.00">suchasitsdistinctiveyellowandredcolorscheme,whichisrecognizedworldwide.This</text>
  <text font-family="f0f7" font-size="12" x="70.00 76.00 80.00 86.00 92.00 97.00 104.00 110.00 114.00 119.00 125.00 135.00 140.00 143.00 147.00 153.00 156.00 161.00 167.00 177.00 183.00 189.00 193.00 199.00 203.00 209.00 217.00 221.00 227.00 232.00 239.00 248.00 254.00 257.00 260.00 270.00 273.00 279.00 284.00 290.00 297.00 302.00 308.00 313.00 319.00 323.00 328.00 331.00 335.00 341.00 347.00 355.00 365.00 370.00 380.00 386.00 391.00 396.00 402.00 406.00 413.00 416.00 422.00 431.00 437.00 443.00 447.00 456.00 462.00 466.00 471.00 477.00 487.00 491.00 497.00 502.00 508.00 511.00 515.00 518.00" y="536.00">globalbrandstrategyensuresthatwhilelocaladaptationsmayoccur,thecorebrandidentity</text>
  <text font-family="f0f7" font-size="12" x="70.00 74.00 80.00 89.00 94.00 98.00 104.00 111.00 117.00 123.00 129.00 133.00 137.00 142.00 148.00 151.00 157.00 161.00 167.00 172.00 175.00 181.00 185.00 188.00 194.00 203.00 209.00 212.00 218.00 224.00 230.00 236.00 239.00 243.00 249.00 254.00 260.00 266.00 272.00 281.00 285.00 290.00 295.00 301.00 307.00 313.00 317.00 320.00 323.00 329.00 338.00 344.00 353.00 359.00 365.00 374.00 379.00 385.00 391.00 396.00 402.00 411.00 417.00 420.00 425.00" y="555.00">remainsconstant,fosteringglobaltrustandrecognitionamongconsumers.</text>
  <text font-family="f0f7" font-size="12" x="94.00 99.00 104.00 114.00 117.00 120.00 127.00 138.00 145.00 153.00 161.00 167.00 174.00 178.00 184.00 190.00 196.00 202.00 211.00 216.00 222.00 227.00 231.00 237.00 242.00 245.00 251.00 261.00 264.00 270.00 280.00 286.00 291.00 295.00 299.00 305.00 309.00 318.00 324.00 330.00 335.00 345.00 351.00 359.00 367.00 376.00 387.00 393.00 403.00 409.00 415.00 421.00 425.00 429.00 435.00 440.00 444.00 447.00 453.00 464.00 467.00 476.00 486.00 492.00 496.00 499.00 509.00 514.00 518.00" y="575.00">Jamil,W.N.S.(2019)evaluatedtheperformanceofDHLbyconsideringtwoprimary</text>
  <text font-family="f0f7" font-size="12" x="70.00 74.00 80.00 85.00 88.00 94.00 98.00 103.00 111.00 114.00 120.00 124.00 129.00 133.00 139.00 144.00 152.00 158.00 164.00 174.00 180.00 186.00 189.00 194.00 198.00 204.00 210.00 213.00 220.00 228.00 234.00 244.00 250.00 255.00 258.00 268.00 274.00 279.00 284.00 295.00 299.00 305.00 313.00 317.00 323.00 326.00 335.00 341.00 347.00 352.00 355.00 361.00 366.00 369.00 379.00 387.00 393.00 402.00 407.00 413.00 417.00 420.00 425.00 431.00 434.00 439.00 450.00 455.00 461.00 472.00 475.00 481.00 485.00 490.00 494.00 500.00 504.00 509.00 512.00 518.00" y="594.00">factors:internalandexternal.Thedatausedforthisanalysiswascollectedandinterpreted</text>
  <text font-family="f0f7" font-size="12" x="70.00 74.00 78.00 84.00 98.00 107.00 115.00 123.00 125.00 134.00 140.00 146.00 152.00 158.00 163.00 171.00 175.00 180.00 186.00 192.00 196.00 199.00 209.00 215.00 221.00 226.00 235.00 245.00 249.00 252.00 258.00 263.00 267.00 273.00 278.00 284.00 292.00 298.00 304.00 308.00 311.00 317.00 328.00 332.00 335.00 341.00 356.00 362.00 368.00 374.00 384.00 387.00 398.00 404.00 410.00 416.00 422.00 429.00 436.00 442.00 448.00 457.00 460.00 466.00 472.00 477.00 487.00 493.00 501.00 505.00 508.00 513.00 519.00" y="614.00">fromDHL'sannualreportsoverafive-yearperiodfrom2014to2018.Fourtypesofrisks</text>
  <text font-family="f0f7" font-size="12" x="70.00 79.00 84.00 88.00 97.00 100.00 106.00 112.00 118.00 121.00 127.00 133.00 142.00 145.00 155.00 158.00 164.00 167.00 175.00 180.00 186.00 192.00 195.00 201.00 206.00 210.00 213.00 219.00 225.00 232.00 237.00 241.00 246.00 252.00 256.00 262.00 266.00 269.00 274.00 280.00 286.00 292.00 298.00 304.00 308.00 313.00 316.00 320.00 326.00 332.00 337.00 343.00 347.00 351.00 355.00 361.00 368.00 374.00 378.00 384.00 388.00 391.00 394.00 400.00 406.00 409.00 412.00 416.00 419.00 424.00 430.00 436.00 442.00 451.00 460.00 466.00 470.00 476.00 481.00 487.00 491.00 495.00 499.00 505.00 511.00 518.00" y="633.00">wereinvolvedinthisevaluation:creditrisk,operationalrisk,profitability,andmarketrisk.To</text>
  <text font-family="f0f7" font-size="12" x="70.00 76.00 80.00 85.00 90.00 95.00 103.00 111.00 120.00 127.00 129.00 137.00 141.00 144.00 150.00 156.00 159.00 165.00 169.00 172.00 181.00 185.00 188.00 193.00 202.00 208.00 214.00 219.00 227.00 230.00 236.00 244.00 248.00 252.00 258.00 266.00 272.00 277.00 283.00 287.00 291.00 297.00 302.00 307.00 313.00 319.00 323.00 328.00 335.00 344.00 349.00 354.00 359.00 365.00 369.00 375.00 384.00 389.00 395.00 399.00 406.00 415.00 420.00 424.00 433.00 439.00 443.00 449.00 455.00 461.00 464.00 470.00 475.00 479.00 485.00 491.00 494.00 500.00 509.00 513.00 519.00" y="653.00">assessDHL'sliquidityriskoverthefiveyears,severalmeasurementswereused,includingthe</text>
  <text font-family="f0f7" font-size="12" x="70.00 76.00 82.00 86.00 90.00 95.00 101.00 109.00 113.00 118.00 122.00 125.00 131.00 139.00 145.00 151.00 154.00 159.00 170.00 174.00 179.00 183.00 186.00 192.00 200.00 205.00 211.00 216.00 221.00 226.00 232.00 242.00 247.00 253.00 257.00 260.00 265.00 270.00 274.00 277.00 283.00 294.00 300.00 305.00 309.00 313.00 319.00 325.00 332.00 338.00 344.00 350.00 353.00 357.00 360.00 366.00 370.00 374.00 380.00 385.00 391.00 400.00 411.00 414.00 420.00 423.00 426.00 432.00 440.00 446.00 452.00 457.00 461.00 467.00 470.00 473.00 479.00 485.00 491.00 499.00 503.00 508.00 512.00 515.00 521.00" y="672.00">currentratio,quickratio,averagecollectionperiod,debt-to-incomeratio,operationalratio,</text>
  <text font-family="f0f7" font-size="12" x="70.00 76.00 82.00 92.00 98.00 104.00 110.00 114.00 119.00 122.00 126.00 132.00 143.00 152.00 157.00 161.00 167.00 170.00 176.00 184.00 191.00 197.00 200.00 210.00 215.00 218.00 224.00 230.00 241.00 249.00 255.00 264.00 269.00 273.00 277.00 288.00 293.00 299.00 305.00 311.00 317.00 323.00 326.00 331.00 342.00 346.00 356.00 362.00 366.00 370.00 375.00 381.00 384.00 388.00 392.00 403.00 406.00 412.00 423.00 426.00 432.00 435.00 440.00 444.00 447.00 453.00 459.00 464.00 470.00 473.00 484.00 490.00 495.00 499.00 507.00 513.00 518.00" y="692.00">andoperatingmargin.Thisstudywasalsoconductedtoestablishtherelationshipbetween</text>
  <text font-family="f0f7" font-size="12" x="70.00 74.00 80.00 85.00 90.00 102.00 106.00 109.00 114.00 127.00 131.00 137.00 142.00 145.00 151.00 155.00 167.00 172.00 178.00 192.00 195.00 201.00 213.00 219.00 225.00 234.00 240.00 245.00 251.00 257.00 259.00 271.00 277.00 283.00 287.00 291.00 297.00 301.00 310.00 315.00 321.00 327.00 332.00 342.00 349.00 355.00 368.00 373.00 376.00 382.00 388.00 401.00 407.00 412.00 417.00 430.00 434.00 440.00 446.00 449.00 454.00 459.00 463.00 469.00 473.00 485.00 489.00 495.00 501.00 514.00 519.00" y="711.00">theseriskfactorsandthecompany'sperformance.Thestudyusedindicatorssuchas</text>
  <text font-family="f0f7" font-size="12" x="70.00 76.00 80.00 86.00 90.00 94.00 97.00 102.00 108.00 112.00 115.00 119.00 122.00 127.00 133.00 139.00 143.00 148.00 154.00 157.00 164.00 168.00 171.00 176.00 182.00 188.00 194.00 200.00 205.00 209.00 215.00 218.00 221.00 227.00 233.00 239.00 245.00 249.00 252.00 257.00 263.00 269.00 279.00 284.00 288.00 294.00 299.00 306.00 310.00 313.00 318.00 324.00 330.00 336.00 340.00 346.00 351.00 358.00 364.00 370.00 380.00 385.00 390.00 393.00 396.00 405.00 411.00 415.00 421.00 427.00 433.00 438.00 445.00 449.00 457.00 466.00 473.00 477.00 483.00 486.00 492.00 496.00 500.00 505.00 508.00 512.00 518.00 524.00" y="731.00">profitability,creditrisk,operationalrisk,marketrisk,grossdomesticproduct(GDP),inflation,</text>
  <text font-family="f0f7" font-size="12" x="70.00 74.00 80.00 83.00 88.00 92.00 98.00 102.00 110.00 114.00 119.00 123.00 128.00 135.00 141.00 147.00 152.00 158.00 163.00 169.00 175.00 185.00 189.00 194.00 198.00 203.00 210.00 215.00 218.00 224.00 230.00 236.00 241.00 245.00 255.00 261.00 267.00 273.00 276.00 281.00 285.00 288.00 294.00 300.00 307.00 313.00 319.00 329.00 332.00 338.00 348.00 353.00 359.00 363.00 369.00 375.00 379.00 385.00 388.00 398.00 403.00 409.00 415.00 421.00 425.00 431.00 436.00 442.00 447.00 457.00 461.00 467.00 473.00 478.00 484.00 491.00 500.00 505.00 511.00 516.00 520.00" y="750.00">interestrate,exchangerate,standarddeviation,andthecorporategovernanceindex.Qaderi</text>
</g>
<style >@font-face {
font-family: "f0f7";
src: url("../font/f0f7.ttf");
}
</style>
</svg>