<?xml version="1.0" encoding="UTF-8"?>
<svg height="805.85" version="1.1" viewBox="0 0 595.25 805.85" width="595.25" xmlns="http://www.w3.org/2000/svg" xmlns:xlink="http://www.w3.org/1999/xlink">
<defs>
<clipPath clip-rule="evenodd" id="hkswfjson-cp900000">
  <path d="M 0 0 L 595.25 0 L 595.25 805.85 L 0 805.85 L 0 0 "/>
</clipPath>
</defs>
<g clip-path="url(#hkswfjson-cp900000)">
  <path d="M 0 0 L 595.25 0 L 595.25 805.85 L 0 805.85 L 0 0 " fill="rgb(255,255,255)" fill-rule="evenodd"/>
  <path d="M -.05 -.05 L 595.2 -.05 L 595.2 841.8 L -.05 841.8 L -.05 -.05 " fill="rgb(255,255,255)" fill-rule="evenodd"/>
  <text font-family="f0f7" font-size="10" x="254.00 261.00 265.00 272.00 279.00 286.00 293.00 301.00 308.00 316.00 322.00 325.00 333.00" y="80.00">1INTRODUCTION</text>
  <path d="M 70.8 82.8 L 524.4 82.8 L 524.4 83.4 L 70.8 83.4 L 70.8 82.8 " fill-rule="evenodd"/>
  <clipPath clip-rule="evenodd" id="hkswfjson-cp900001">
  <path d="M 292.05 770.6 L 297.55 770.6 L 297.55 782.85 L 292.05 782.85 L 292.05 770.6 "/>
</clipPath>
  <g clip-path="url(#hkswfjson-cp900001)">
  <text font-family="f0f7" font-size="10" x="292.00" y="780.00">4</text>
</g>
  <text font-family="f0f7" font-size="14" x="70.00 77.00 81.00 91.00 101.00 107.00 112.00 119.00 125.00 129.00 136.00 146.00 156.00 163.00 167.00 173.00 180.00 184.00 187.00 194.00 201.00" y="119.00">1.2ResearchObjectives</text>
  <text font-family="f0f7" font-size="12" x="70.00 76.00 79.00 85.00 88.00 97.00 106.00 111.00 117.00 123.00 127.00 132.00 138.00 147.00 153.00 156.00 162.00 167.00 170.00 174.00 180.00" y="154.00">1.2.1GeneralObjective</text>
  <text font-family="f0f7" font-size="12" x="94.00 102.00 108.00 111.00 120.00 124.00 128.00 134.00 140.00 145.00 147.00 156.00 165.00 171.00 174.00 184.00 190.00 196.00 199.00 204.00 210.00 213.00 216.00 222.00 232.00 235.00 243.00 247.00 257.00 263.00 269.00 272.00 275.00 285.00 288.00 293.00 302.00 308.00 314.00 323.00 329.00 335.00 341.00 346.00 352.00 357.00 366.00 375.00 384.00 391.00 393.00 402.00 411.00 416.00 420.00 426.00 432.00 435.00 438.00 444.00 454.00 459.00 465.00 471.00 475.00 481.00 487.00 492.00 498.00 503.00 512.00 518.00" y="175.00">Thisstudy'smainobjectiveistooptimizeandenhanceDHL'smarketingapproachesby</text>
  <text font-family="f0f7" font-size="12" x="70.00 76.00 82.00 87.00 93.00 96.00 111.00 117.00 123.00 129.00 134.00 138.00 143.00 146.00 152.00 158.00 164.00 167.00 173.00 188.00 193.00 199.00 214.00 219.00 223.00 227.00 232.00 238.00 241.00 244.00 250.00 256.00 259.00 274.00 278.00 283.00 288.00 294.00 300.00 306.00 312.00 315.00 321.00 336.00 339.00 354.00 357.00 363.00 377.00 383.00 389.00 393.00 399.00 405.00 419.00 424.00 430.00 436.00 441.00 447.00 456.00 461.00 474.00 480.00 485.00 491.00 497.00 503.00 506.00 512.00 516.00 521.00" y="195.00">deeplyunderstandingandeffectivelyrespondingtotheuniqueconsumerbehaviors,</text>
  <text font-family="f0f7" font-size="12" x="70.00 76.00 80.00 86.00 89.00 95.00 99.00 104.00 110.00 116.00 121.00 126.00 132.00 137.00 143.00 152.00 158.00 163.00 168.00 174.00 182.00 191.00 194.00 198.00 204.00 207.00 216.00 219.00 225.00 234.00 242.00 246.00 252.00 257.00 261.00 264.00 270.00 279.00 288.00 293.00 297.00 303.00 308.00 312.00" y="214.00">preferences,andneedswithintheNigerianmarket.</text>
  <text font-family="f0f7" font-size="12" x="70.00 76.00 79.00 85.00 88.00 97.00 104.00 110.00 115.00 121.00 124.00 128.00 131.00 140.00 148.00 154.00 158.00 163.00 168.00 172.00 175.00 181.00 186.00" y="234.00">1.2.2SpecificObjectives</text>
  <text font-family="f0f7" font-size="12" x="94.00 102.00 108.00 116.00 121.00 127.00 132.00 137.00 141.00 145.00 148.00 156.00 162.00 168.00 172.00 177.00 182.00 186.00 189.00 195.00 200.00 208.00 213.00 217.00 226.00 231.00 239.00 243.00 249.00 252.00 255.00 261.00 270.00 275.00" y="253.00">Thespecificobjectivesareasfollows:</text>
  <text font-family="f0f7" font-size="12" x="94.00 98.00 102.00 108.00 115.00 124.00 129.00 135.00 140.00 144.00 150.00 155.00 159.00 167.00 176.00 184.00 191.00 194.00 201.00 205.00 211.00 214.00 219.00 223.00 229.00 235.00 238.00 241.00 247.00 253.00 259.00 265.00 274.00 280.00 284.00 290.00 295.00 298.00 302.00 308.00 317.00 321.00 325.00 329.00 334.00 337.00 343.00 349.00 352.00 357.00 362.00" y="273.00">(i)ToevaluateDHL'sinternationalmarketingstrategies.</text>
  <text font-family="f0f7" font-size="12" x="94.00 98.00 102.00 105.00 112.00 118.00 127.00 133.00 139.00 145.00 151.00 155.00 159.00 163.00 168.00 174.00 183.00 188.00 194.00 200.00 205.00 211.00 220.00 225.00 233.00 239.00 244.00 250.00 255.00 261.00 264.00 270.00 278.00 281.00 290.00 299.00 302.00 308.00 313.00 317.00 321.00 326.00" y="292.00">(ii)TounderstandconsumerbehaviorinNigeria.</text>
  <text font-family="f0f7" font-size="12" x="94.00 98.00 102.00 105.00 108.00 115.00 122.00 131.00 134.00 140.00 145.00 151.00 155.00 158.00 162.00 171.00 177.00 182.00 188.00 196.00 202.00 207.00 211.00 219.00 225.00 230.00 239.00 248.00 256.00 263.00 266.00 273.00 278.00 281.00 285.00 291.00 294.00 299.00 305.00 309.00 314.00 322.00 327.00 333.00 342.00 351.00 354.00 360.00 365.00 369.00 373.00 378.00 387.00 392.00 398.00 404.00 409.00 415.00 424.00 430.00 437.00 443.00 448.00 454.00 459.00 465.00 469.00 475.00 478.00" y="312.00">(iii)ToidentifygapsbetweenDHL'sstrategiesandNigerianconsumerbehavior.</text>
  <text font-family="f0f7" font-size="12" x="94.00 98.00 102.00 108.00 114.00 121.00 130.00 135.00 141.00 147.00 151.00 157.00 161.00 169.00 172.00 178.00 187.00 190.00 199.00 205.00 211.00 216.00 222.00 228.00 235.00 240.00 246.00 251.00 255.00 261.00 266.00 271.00 277.00 283.00 289.00 299.00 302.00 310.00 315.00 321.00 330.00 336.00 342.00 345.00 348.00 354.00 358.00 364.00 370.00 374.00 379.00 385.00 388.00 394.00 398.00 406.00 412.00 421.00 430.00 435.00 439.00 445.00 451.00 454.00 457.00 463.00 472.00 478.00 482.00 485.00 489.00 494.00 499.00 505.00 510.00" y="331.00">(iv)Toexploretheimpactofsocioeconomicandculturalfactorsonmarketingefficacy.</text>
  <text font-family="f0f7" font-size="12" x="94.00 98.00 104.00 114.00 121.00 133.00 139.00 143.00 147.00 152.00 162.00 168.00 172.00 177.00 183.00 186.00 189.00 195.00 200.00 210.00 213.00 219.00 224.00 230.00 240.00 249.00 254.00 260.00 266.00 271.00 275.00 278.00 284.00 290.00 301.00 304.00 310.00 316.00 325.00 330.00 336.00 348.00 354.00 359.00 362.00 375.00 383.00 392.00 405.00 411.00 416.00 420.00 423.00 428.00 438.00 444.00 450.00 456.00 462.00 467.00 472.00 482.00 490.00 494.00 497.00 509.00 513.00 519.00" y="351.00">(v)ToofferpracticalrecommendationsthatcanhelpDHLbetterconnectwiththe</text>
  <text font-family="f0f7" font-size="12" x="70.00 79.00 82.00 88.00 94.00 98.00 101.00 106.00 115.00 125.00 130.00 134.00 140.00 145.00 149.00 155.00 158.00 164.00 169.00 173.00 178.00 184.00 194.00 197.00 206.00 212.00 216.00 222.00 228.00 232.00 238.00 247.00 252.00 258.00 263.00 266.00 272.00 281.00 287.00 294.00 298.00 304.00 307.00 310.00 315.00 319.00 324.00 330.00 333.00 336.00 342.00 351.00 357.00 363.00 372.00 378.00 384.00 388.00 392.00 398.00 403.00 408.00 415.00 421.00 427.00 431.00 436.00 442.00 451.00 457.00 461.00" y="370.00">Nigerianmarket,therebyimprovingcustomersatisfactionandbusinessoutcomes.</text>
  <text font-family="f0f7" font-size="14" x="70.00 77.00 81.00 91.00 99.00 103.00 109.00 113.00 119.00 130.00 136.00 144.00 151.00 158.00 166.00 170.00 177.00 187.00 194.00 199.00 206.00 213.00 217.00 223.00 237.00 244.00 251.00 261.00 271.00 277.00 282.00 288.00 295.00 299.00 306.00 316.00 326.00 333.00 339.00 345.00 349.00 353.00 360.00 367.00" y="404.00">1.3StatementoftheProblemandResearchQuestions</text>
  <text font-family="f0f7" font-size="12" x="91.00 100.00 109.00 123.00 127.00 133.00 138.00 143.00 156.00 161.00 167.00 173.00 176.00 179.00 185.00 191.00 197.00 202.00 215.00 220.00 223.00 227.00 232.00 238.00 242.00 248.00 262.00 265.00 268.00 281.00 284.00 290.00 294.00 299.00 303.00 309.00 314.00 318.00 321.00 327.00 333.00 338.00 350.00 359.00 364.00 368.00 374.00 379.00 383.00 386.00 392.00 406.00 411.00 414.00 418.00 423.00 427.00 432.00 438.00 441.00 447.00 459.00 468.00 471.00 475.00 489.00 495.00 498.00 503.00 506.00 509.00 515.00 521.00" y="429.00">DHLfaceschallengesaligningitsinternationalmarketingstrategieswithdistinct</text>
  <text font-family="f0f7" font-size="12" x="70.00 76.00 82.00 88.00 92.00 98.00 108.00 113.00 122.00 128.00 133.00 139.00 144.00 150.00 153.00 159.00 163.00 173.00 176.00 187.00 195.00 199.00 205.00 210.00 214.00 217.00 223.00 230.00 237.00 243.00 253.00 259.00 265.00 274.00 280.00 285.00 291.00 302.00 308.00 313.00 318.00 324.00 334.00 337.00 348.00 354.00 360.00 366.00 371.00 375.00 379.00 383.00 388.00 394.00 405.00 411.00 417.00 430.00 435.00 441.00 445.00 448.00 454.00 458.00 463.00 467.00 474.00 479.00 485.00 491.00 497.00 503.00 512.00 515.00 521.00" y="448.00">consumerbehaviorsinNigeria.Thecompanyneedstounderstandhowcultural,economic,</text>
  <text font-family="f0f7" font-size="12" x="70.00 76.00 82.00 94.00 98.00 103.00 109.00 115.00 118.00 124.00 127.00 133.00 137.00 149.00 155.00 159.00 163.00 167.00 172.00 176.00 181.00 187.00 192.00 198.00 209.00 212.00 218.00 222.00 225.00 231.00 237.00 243.00 248.00 259.00 268.00 271.00 277.00 283.00 287.00 290.00 295.00 308.00 313.00 319.00 325.00 330.00 336.00 345.00 350.00 354.00 359.00 367.00 373.00 377.00 383.00 387.00 392.00 396.00 401.00 407.00 413.00 418.00 429.00 434.00 440.00 452.00 458.00 464.00 470.00 475.00 481.00 484.00 490.00 494.00 503.00 510.00 516.00 519.00" y="468.00">andregulatorydifferencesinfluenceNigerianconsumers'preferencesandbehavior.This</text>
  <text font-family="f0f7" font-size="12" x="70.00 76.00 82.00 88.00 94.00 98.00 102.00 106.00 111.00 117.00 123.00 126.00 132.00 142.00 145.00 153.00 159.00 162.00 168.00 174.00 177.00 183.00 189.00 193.00 199.00 207.00 215.00 224.00 234.00 238.00 247.00 252.00 256.00 260.00 266.00 271.00 274.00 278.00 284.00 289.00 292.00 302.00 307.00 313.00 318.00 324.00 331.00 335.00 338.00 346.00 355.00 361.00 365.00 371.00 376.00 379.00 383.00 389.00 398.00 403.00 409.00 415.00 419.00 425.00 431.00 436.00 442.00 447.00 452.00 458.00 464.00 470.00 474.00 480.00 484.00 488.00 494.00 503.00 506.00 512.00 518.00" y="487.00">understandingiscrucialforDHLtoeffectivelyadaptitsmarketingapproaches,ensuringthey</text>
  <text font-family="f0f7" font-size="12" x="70.00 80.00 85.00 90.00 97.00 100.00 106.00 111.00 117.00 123.00 129.00 135.00 141.00 146.00 151.00 155.00 160.00 163.00 167.00 173.00 179.00 186.00 192.00 198.00 207.00 213.00 217.00 222.00 226.00 231.00 235.00 241.00 247.00 252.00 257.00 265.00 270.00 276.00 286.00 291.00 297.00 303.00 308.00 314.00 320.00 328.00 333.00 339.00 344.00 347.00 353.00 363.00 368.00 375.00 380.00 385.00 389.00 392.00 397.00 401.00 406.00 411.00 414.00 418.00 424.00 433.00 438.00 444.00 453.00 459.00 465.00 471.00 476.00 482.00 487.00 497.00 502.00 508.00 515.00 518.00" y="507.00">meetlocalexpectationsandpreferencesandenhancecustomersatisfactionandengagementin</text>
  <text font-family="f0f7" font-size="12" x="70.00 74.00 80.00 89.00 98.00 101.00 107.00 112.00 116.00 120.00 125.00 135.00 144.00 150.00 153.00 159.00 165.00 168.00 185.00 193.00 199.00 208.00 214.00 220.00 226.00 229.00 234.00 243.00 246.00 250.00 256.00 265.00 273.00 282.00 293.00 302.00 308.00 313.00 320.00 324.00 330.00 336.00 342.00 345.00 350.00 354.00 358.00 368.00 371.00 377.00 383.00 386.00 391.00 400.00 403.00 409.00 415.00 418.00 426.00 435.00 441.00 445.00 451.00 456.00 459.00 463.00 469.00 479.00 483.00 487.00 491.00 496.00 499.00 504.00 510.00 514.00 519.00" y="526.00">theNigerianmarket.CompanieslikeDHLmustregularlyrevisetheirmarketingstrategies</text>
  <text font-family="f0f7" font-size="12" x="70.00 74.00 83.00 87.00 92.00 97.00 103.00 112.00 118.00 121.00 127.00 133.00 138.00 145.00 150.00 156.00 161.00 164.00 170.00 179.00 185.00 189.00 196.00 200.00 209.00 217.00 221.00 226.00 232.00 236.00 242.00 245.00 254.00 259.00 265.00 271.00 275.00 281.00 284.00 290.00 299.00 305.00 309.00 315.00 321.00 326.00 332.00 342.00 347.00 351.00 357.00 362.00 366.00 372.00 380.00 384.00 390.00 395.00 399.00 402.00 408.00 410.00 417.00 423.00 429.00 433.00 439.00 445.00 453.00 459.00 462.00 468.00 474.00 483.00 489.00 496.00 501.00 507.00 512.00 515.00 520.00 524.00" y="546.00">toreachglobalcustomersinarapidlyevolvingglobalmarket.Nigeria'suniqueblendofsocial,</text>
  <text font-family="f0f7" font-size="12" x="70.00 76.00 81.00 87.00 93.00 99.00 108.00 112.00 117.00 125.00 130.00 136.00 147.00 153.00 159.00 162.00 165.00 171.00 175.00 181.00 189.00 194.00 199.00 205.00 210.00 216.00 219.00 229.00 235.00 239.00 245.00 251.00 254.00 260.00 265.00 275.00 286.00 295.00 300.00 304.00 310.00 315.00 324.00 329.00 335.00 341.00 345.00 348.00 354.00 360.00 370.00 375.00 381.00 390.00 396.00 399.00 404.00 407.00 410.00 416.00 422.00 430.00 434.00 438.00 444.00 458.00 462.00 468.00 478.00 488.00 493.00 498.00 507.00 512.00 518.00" y="565.00">economic,andculturalaspectsprovidesamarketenvironmentdistinctfromtheWestand</text>
  <text font-family="f0f7" font-size="12" x="70.00 76.00 80.00 86.00 91.00 97.00 106.00 110.00 114.00 117.00 122.00 128.00 137.00 141.00 146.00 152.00 156.00 162.00 168.00 172.00" y="585.00">otherAfricanregions.</text>
  <text font-family="f0f7" font-size="12" x="88.00 96.00 102.00 105.00 114.00 118.00 122.00 128.00 134.00 143.00 147.00 153.00 156.00 161.00 167.00 173.00 182.00 185.00 195.00 200.00 205.00 209.00 215.00 218.00 222.00 228.00 231.00 236.00 245.00 249.00 255.00 264.00 269.00 273.00 277.00 282.00 287.00 291.00 294.00 300.00 305.00 311.00 317.00 322.00 330.00 336.00 344.00 353.00 361.00 368.00 371.00 379.00 385.00 388.00 394.00 400.00 406.00 413.00 422.00 428.00 431.00 437.00 443.00 446.00 449.00 455.00 465.00 470.00 473.00 477.00 483.00 486.00 491.00 497.00 501.00 506.00 515.00 518.00" y="604.00">ThisstudyintendstoscrutinizetheeffectivenessofDHL'sglobalmarketingstrategiesin</text>
  <text font-family="f0f7" font-size="12" x="70.00 74.00 80.00 91.00 99.00 103.00 109.00 114.00 118.00 121.00 127.00 139.00 144.00 150.00 156.00 159.00 165.00 171.00 174.00 183.00 190.00 196.00 207.00 212.00 215.00 221.00 227.00 239.00 244.00 248.00 257.00 267.00 271.00 283.00 286.00 292.00 297.00 303.00 307.00 310.00 314.00 326.00 331.00 337.00 342.00 347.00 353.00 357.00 362.00 366.00 372.00 381.00 386.00 389.00 393.00 398.00 402.00 407.00 413.00 416.00 422.00 432.00 437.00 443.00 455.00 461.00 465.00 470.00 475.00 486.00 492.00 497.00 502.00 508.00 512.00 518.00" y="624.00">theNigeriancontext.Thestudyaimstoidentifysuccessfulstrategiesandareasneeding</text>
  <text font-family="f0f7" font-size="12" x="70.00 76.00 82.00 88.00 93.00 99.00 104.00 110.00 119.00 124.00 130.00 139.00 145.00 156.00 161.00 168.00 174.00 177.00 183.00 187.00 190.00 196.00 207.00 211.00 217.00 227.00 233.00 237.00 242.00 246.00 252.00 256.00 261.00 267.00 272.00 278.00 282.00 291.00 295.00 301.00 307.00 313.00 319.00 323.00 329.00 340.00 346.00 351.00 357.00 363.00 369.00 372.00 378.00 382.00 387.00 395.00 400.00 406.00 417.00 423.00 429.00 432.00 435.00 441.00 445.00 451.00 459.00 463.00 469.00 473.00 476.00 482.00 487.00 493.00 499.00 504.00 514.00 520.00" y="643.00">enhancementbyexploringthepreferences,shoppingbehaviors,andculturalinfluencesof</text>
  <text font-family="f0f7" font-size="12" x="70.00 79.00 82.00 88.00 94.00 98.00 101.00 106.00 118.00 123.00 129.00 135.00 140.00 146.00 155.00 160.00 164.00 169.00 177.00 183.00 192.00 201.00 206.00 210.00 219.00 224.00 234.00 237.00 243.00 254.00 260.00 266.00 271.00 275.00 280.00 284.00 292.00 298.00 303.00 309.00 315.00 321.00 330.00 334.00 344.00 348.00 353.00 359.00 365.00 370.00 375.00 380.00 386.00 392.00 400.00 405.00 411.00 422.00 428.00 434.00 440.00 446.00 449.00 455.00 466.00 472.00 478.00 492.00 501.00 510.00 517.00 519.00" y="663.00">Nigerianconsumers,aswellastheoveralleconomiclandscape,andgauginghowDHL's</text>
  <text font-family="f0f7" font-size="12" x="70.00 76.00 80.00 83.00 89.00 93.00 97.00 106.00 110.00 115.00 120.00 126.00 132.00 137.00 141.00 151.00 160.00 163.00 166.00 177.00 180.00 186.00 190.00 199.00 204.00 210.00 216.00 220.00 225.00 231.00 236.00 242.00 249.00 256.00 262.00 273.00 279.00 285.00 290.00 298.00 301.00 311.00 314.00 325.00 331.00 337.00 342.00 347.00 351.00 355.00 366.00 372.00 377.00 380.00 386.00 392.00 398.00 401.00 411.00 414.00 420.00 425.00 428.00 434.00 440.00 444.00 453.00 456.00 462.00 468.00 476.00 481.00 486.00 497.00 503.00 509.00 512.00 518.00" y="682.00">effortsresonatewiththisaudience.Thegoalistounearthvaluableinsightsthatcanguide</text>
  <text font-family="f0f7" font-size="12" x="70.00 79.00 88.00 101.00 104.00 117.00 121.00 126.00 130.00 133.00 139.00 143.00 149.00 161.00 164.00 168.00 179.00 188.00 193.00 197.00 203.00 209.00 212.00 215.00 221.00 234.00 239.00 242.00 246.00 251.00 255.00 260.00 266.00 278.00 282.00 294.00 303.00 309.00 314.00 320.00 323.00 329.00 335.00 339.00 345.00 349.00 352.00 364.00 368.00 374.00 379.00 384.00 397.00 402.00 408.00 420.00 426.00 432.00 438.00 443.00 449.00 461.00 464.00 470.00 482.00 491.00 494.00 500.00 505.00 509.00 512.00 518.00" y="702.00">DHLinrefiningitsmarketingstrategytomeaningfullyreachandengagetheNigerian</text>
  <text font-family="f0f7" font-size="12" x="70.00 76.00 82.00 88.00 91.00 96.00 102.00 108.00 113.00 119.00 126.00 132.00 136.00 144.00 153.00 156.00 159.00 166.00 172.00 178.00 181.00 186.00 189.00 195.00 202.00 211.00 219.00 226.00 229.00 237.00 241.00 247.00 253.00 256.00 262.00 266.00 269.00 275.00 282.00 286.00 295.00 304.00 307.00 313.00 318.00 322.00 326.00 334.00 340.00 346.00 355.00 360.00 365.00 370.00 376.00 380.00 389.00 392.00 396.00 404.00 407.00 413.00 419.00 425.00 429.00 432.00 438.00 442.00 454.00 459.00 465.00 470.00 476.00 481.00 486.00 494.00 497.00 507.00 510.00 516.00 519.00" y="721.00">audience.ThiswillbolsterDHL'sfootprintinNigeriaandsecureitslong-termsuccessinthis</text>
  <text font-family="f0f7" font-size="12" x="70.00 76.00 82.00 88.00 94.00 103.00 106.00 115.00 120.00 126.00 135.00 141.00 147.00 150.00 156.00 162.00 171.00 180.00 185.00 189.00 195.00 201.00 204.00" y="741.00">dynamicanduniquemarket.</text>
  <text font-family="f0f7" font-size="12" x="88.00 96.00 102.00 115.00 119.00 123.00 129.00 135.00 141.00 143.00 155.00 161.00 165.00 171.00 177.00 181.00 186.00 203.00 208.00 211.00 216.00 220.00 225.00 234.00 240.00 246.00 257.00 265.00 269.00 272.00 283.00 288.00 294.00 300.00 303.00 308.00 320.00 326.00 340.00 343.00 349.00 362.00 368.00 372.00 375.00 379.00 383.00 388.00 394.00 397.00 401.00 404.00 409.00 422.00 427.00 433.00 447.00 453.00 457.00 463.00 467.00 473.00 479.00 484.00 487.00 500.00 508.00 517.00" y="760.00">Thestudy'sproblemstatementwillcenteronthedifficultiesandprospectsDHL</text>
</g>
<style >@font-face {
font-family: "f0f7";
src: url("../font/f0f7.ttf");
}
</style>
</svg>