<?xml version="1.0" encoding="UTF-8"?>
<svg height="805.85" version="1.1" viewBox="0 0 595.25 805.85" width="595.25" xmlns="http://www.w3.org/2000/svg" xmlns:xlink="http://www.w3.org/1999/xlink">
<defs>
<clipPath clip-rule="evenodd" id="hkswfjson-cp500000">
  <path d="M 0 0 L 595.25 0 L 595.25 805.85 L 0 805.85 L 0 0 "/>
</clipPath>
</defs>
<g clip-path="url(#hkswfjson-cp500000)">
  <path d="M 0 0 L 595.25 0 L 595.25 805.85 L 0 805.85 L 0 0 " fill="rgb(255,255,255)" fill-rule="evenodd"/>
  <path d="M -.05 -.05 L 595.2 -.05 L 595.2 841.8 L -.05 841.8 L -.05 -.05 " fill="rgb(255,255,255)" fill-rule="evenodd"/>
  <text font-family="f0f7" font-size="10" x="255.00 261.00 265.00 271.00 279.00 287.00 296.00 301.00 305.00 312.00 320.00 327.00 333.00" y="80.00">LISTOFFIGURES</text>
  <path d="M 70.8 82.8 L 524.4 82.8 L 524.4 83.4 L 70.8 83.4 L 70.8 82.8 " fill-rule="evenodd"/>
  <text font-family="f0f7" font-size="10" x="292.00 296.00" y="780.00">IV</text>
  <text font-family="f0f7" font-size="14" x="237.00 246.00 251.00 259.00 272.00 283.00 295.00 303.00 308.00 319.00 330.00 340.00 349.00" y="120.00">LISTOFFIGURES</text>
  <text font-family="f0f7" font-size="12" x="70.00 77.00 80.00 86.00 92.00 98.00 101.00 110.00 117.00 123.00 129.00 133.00 137.00 144.00 151.00 155.00 158.00 164.00 170.00 173.00 179.00 183.00 190.00 193.00 196.00 199.00 202.00 205.00 208.00 211.00 214.00 217.00 220.00 223.00 226.00 229.00 232.00 235.00 238.00 241.00 244.00 247.00 250.00 253.00 256.00 259.00 262.00 265.00 268.00 271.00 274.00 277.00 280.00 283.00 286.00 289.00 292.00 295.00 298.00 301.00 304.00 307.00 310.00 313.00 316.00 319.00 322.00 325.00 328.00 331.00 334.00 337.00 340.00 343.00 346.00 349.00 352.00 355.00 358.00 361.00 364.00 367.00 370.00 373.00 376.00 379.00 382.00 385.00 388.00 391.00 394.00 397.00 400.00 403.00 406.00 409.00 412.00 415.00 418.00 421.00 424.00 427.00 430.00 433.00 436.00 439.00 442.00 445.00 448.00 451.00 454.00 457.00 460.00 463.00 466.00 469.00 472.00 475.00 478.00 481.00 484.00 487.00 490.00 493.00 496.00 499.00 502.00 505.00 508.00 511.00 514.00 518.00" y="159.00">Fig.1.1ThesisStructure.............................................................................................................8</text>
  <text font-family="f0f7" font-size="12" x="70.00 77.00 80.00 86.00 92.00 98.00 101.00 110.00 118.00 124.00 130.00 136.00 141.00 147.00 150.00 156.00 162.00 168.00 175.00 179.00 184.00 193.00 199.00 207.00 213.00 217.00 226.00 232.00 239.00 243.00 249.00 257.00 264.00 267.00 273.00 279.00 286.00 289.00 292.00 295.00 298.00 301.00 304.00 307.00 310.00 313.00 316.00 319.00 322.00 325.00 328.00 331.00 334.00 337.00 340.00 343.00 346.00 349.00 352.00 355.00 358.00 361.00 364.00 367.00 370.00 373.00 376.00 379.00 382.00 385.00 388.00 391.00 394.00 397.00 400.00 403.00 406.00 409.00 412.00 415.00 418.00 421.00 424.00 427.00 430.00 433.00 436.00 439.00 442.00 445.00 448.00 451.00 454.00 457.00 460.00 463.00 466.00 469.00 472.00 475.00 478.00 481.00 484.00 487.00 490.00 493.00 496.00 499.00 502.00 505.00 508.00 512.00 518.00" y="179.00">Fig.4.1ConceptualFrameworkoftheStudy...........................................................................34</text>
  <text font-family="f0f7" font-size="12" x="70.00 77.00 80.00 86.00 92.00 98.00 101.00 110.00 118.00 124.00 133.00 141.00 145.00 151.00 157.00 166.00 172.00 179.00 183.00 189.00 197.00 205.00 210.00 215.00 221.00 227.00 233.00 239.00 244.00 250.00 254.00 260.00 263.00 266.00 269.00 272.00 275.00 278.00 281.00 284.00 287.00 290.00 293.00 296.00 299.00 302.00 305.00 308.00 311.00 314.00 317.00 320.00 323.00 326.00 329.00 332.00 335.00 338.00 341.00 344.00 347.00 350.00 353.00 356.00 359.00 362.00 365.00 368.00 371.00 374.00 377.00 380.00 383.00 386.00 389.00 392.00 395.00 398.00 401.00 404.00 407.00 410.00 413.00 416.00 419.00 422.00 425.00 428.00 431.00 434.00 437.00 440.00 443.00 446.00 449.00 452.00 455.00 458.00 461.00 464.00 467.00 470.00 473.00 476.00 479.00 482.00 485.00 488.00 491.00 494.00 497.00 500.00 503.00 506.00 509.00 512.00 518.00" y="198.00">Fig.5.1AgeGroupoftheRespondents....................................................................................36</text>
  <text font-family="f0f7" font-size="12" x="70.00 77.00 80.00 86.00 92.00 98.00 101.00 110.00 119.00 124.00 130.00 136.00 142.00 149.00 155.00 162.00 170.00 175.00 180.00 186.00 192.00 198.00 204.00 209.00 215.00 218.00 225.00 228.00 231.00 234.00 237.00 240.00 243.00 246.00 249.00 252.00 255.00 258.00 261.00 264.00 267.00 270.00 273.00 276.00 279.00 282.00 285.00 288.00 291.00 294.00 297.00 300.00 303.00 306.00 309.00 312.00 315.00 318.00 321.00 324.00 327.00 330.00 333.00 336.00 339.00 342.00 345.00 348.00 351.00 354.00 357.00 360.00 363.00 366.00 369.00 372.00 375.00 378.00 381.00 384.00 387.00 390.00 393.00 396.00 399.00 402.00 405.00 408.00 411.00 414.00 417.00 420.00 423.00 426.00 429.00 432.00 435.00 438.00 441.00 444.00 447.00 450.00 453.00 456.00 459.00 462.00 465.00 468.00 471.00 474.00 477.00 480.00 483.00 486.00 489.00 492.00 495.00 498.00 501.00 504.00 507.00 512.00 518.00" y="218.00">Fig.5.2GenderofRespondents...............................................................................................36</text>
  <text font-family="f0f7" font-size="12" x="70.00 77.00 80.00 86.00 92.00 98.00 101.00 110.00 117.00 123.00 132.00 140.00 145.00 150.00 156.00 162.00 168.00 174.00 179.00 185.00 188.00 191.00 198.00 207.00 212.00 217.00 223.00 229.00 235.00 238.00 242.00 248.00 254.00 259.00 265.00 272.00 275.00 281.00 284.00 290.00 298.00 301.00 310.00 317.00 323.00 328.00 332.00 339.00 347.00 353.00 362.00 368.00 373.00 379.00 387.00 390.00 393.00 396.00 399.00 402.00 405.00 408.00 411.00 414.00 417.00 420.00 423.00 426.00 429.00 432.00 435.00 438.00 441.00 444.00 447.00 450.00 453.00 456.00 459.00 462.00 465.00 468.00 471.00 474.00 477.00 480.00 483.00 486.00 489.00 492.00 495.00 498.00 501.00 504.00 507.00 512.00 518.00" y="237.00">Fig.5.3TheRespondent'sOccupationalStatusinTheirCompany.........................................37</text>
  <text font-family="f0f7" font-size="12" x="70.00 77.00 80.00 86.00 93.00 99.00 102.00 111.00 120.00 125.00 130.00 135.00 140.00 143.00 149.00 152.00 156.00 162.00 171.00 177.00 185.00 188.00 194.00 203.00 207.00 212.00 217.00 223.00 229.00 235.00 241.00 246.00 252.00 255.00 260.00 267.00 270.00 276.00 282.00 287.00 290.00 294.00 300.00 309.00 313.00 319.00 323.00 329.00 334.00 344.00 350.00 355.00 361.00 365.00 371.00 375.00 380.00 384.00 391.00 395.00 401.00 405.00 408.00 414.00 419.00 425.00 431.00 436.00 444.00 449.00 454.00 458.00 461.00 466.00 470.00 475.00 480.00 484.00 487.00 493.00 503.00 511.00 515.00 518.00" y="257.00">Fig.5.4Descriptionoftherespondents’location(urbanvs.rural)influencessatisfactionwith</text>
  <text font-family="f0f7" font-size="12" x="70.00 74.00 80.00 86.00 89.00 94.00 97.00 100.00 106.00 113.00 118.00 123.00 127.00 133.00 137.00 142.00 147.00 153.00 156.00 159.00 162.00 165.00 168.00 171.00 174.00 177.00 180.00 183.00 186.00 189.00 192.00 195.00 198.00 201.00 204.00 207.00 210.00 213.00 216.00 219.00 222.00 225.00 228.00 231.00 234.00 237.00 240.00 243.00 246.00 249.00 252.00 255.00 258.00 261.00 264.00 267.00 270.00 273.00 276.00 279.00 282.00 285.00 288.00 291.00 294.00 297.00 300.00 303.00 306.00 309.00 312.00 315.00 318.00 321.00 324.00 327.00 330.00 333.00 336.00 339.00 342.00 345.00 348.00 351.00 354.00 357.00 360.00 363.00 366.00 369.00 372.00 375.00 378.00 381.00 384.00 387.00 390.00 393.00 396.00 399.00 402.00 405.00 408.00 411.00 414.00 417.00 420.00 423.00 426.00 429.00 432.00 435.00 438.00 441.00 444.00 447.00 450.00 453.00 456.00 459.00 462.00 465.00 468.00 471.00 474.00 477.00 480.00 483.00 486.00 489.00 492.00 495.00 498.00 501.00 504.00 507.00 512.00 518.00" y="276.00">logisticsservices.......................................................................................................................37</text>
  <text font-family="f0f7" font-size="12" x="70.00 77.00 80.00 86.00 92.00 98.00 101.00 110.00 119.00 124.00 129.00 134.00 138.00 142.00 148.00 151.00 154.00 160.00 169.00 175.00 182.00 186.00 192.00 200.00 209.00 215.00 219.00 224.00 227.00 231.00 237.00 246.00 252.00 259.00 267.00 276.00 282.00 285.00 293.00 301.00 307.00 312.00 315.00 321.00 331.00 336.00 340.00 346.00 349.00 352.00 355.00 358.00 361.00 364.00 367.00 370.00 373.00 376.00 379.00 382.00 385.00 388.00 391.00 394.00 397.00 400.00 403.00 406.00 409.00 412.00 415.00 418.00 421.00 424.00 427.00 430.00 433.00 436.00 439.00 442.00 445.00 448.00 451.00 454.00 457.00 460.00 463.00 466.00 469.00 472.00 475.00 478.00 481.00 484.00 487.00 490.00 493.00 496.00 499.00 502.00 505.00 508.00 512.00 518.00" y="296.00">Fig.5.5DescriptionoftheDurationofDHL’sCustomers.......................................................38</text>
  <text font-family="f0f7" font-size="12" x="70.00 77.00 80.00 86.00 92.00 98.00 101.00 110.00 119.00 124.00 129.00 134.00 138.00 142.00 148.00 151.00 154.00 160.00 169.00 175.00 182.00 186.00 192.00 200.00 206.00 212.00 218.00 224.00 227.00 233.00 236.00 240.00 243.00 246.00 255.00 259.00 264.00 268.00 276.00 282.00 289.00 298.00 307.00 313.00 316.00 324.00 332.00 338.00 342.00 346.00 352.00 361.00 366.00 370.00 377.00 380.00 383.00 386.00 389.00 392.00 395.00 398.00 401.00 404.00 407.00 410.00 413.00 416.00 419.00 422.00 425.00 428.00 431.00 434.00 437.00 440.00 443.00 446.00 449.00 452.00 455.00 458.00 461.00 464.00 467.00 470.00 473.00 476.00 479.00 482.00 485.00 488.00 491.00 494.00 497.00 500.00 503.00 506.00 509.00 512.00 518.00" y="315.00">Fig.5.6DescriptionoftheTangibilityrateofDHL’sCustomers.............................................38</text>
  <text font-family="f0f7" font-size="12" x="70.00 77.00 80.00 86.00 92.00 98.00 101.00 110.00 118.00 124.00 127.00 130.00 136.00 142.00 145.00 148.00 152.00 155.00 164.00 168.00 173.00 177.00 185.00 191.00 198.00 207.00 215.00 222.00 225.00 232.00 237.00 242.00 246.00 252.00 256.00 261.00 266.00 274.00 280.00 289.00 294.00 300.00 305.00 308.00 314.00 324.00 329.00 333.00 339.00 342.00 345.00 348.00 351.00 354.00 357.00 360.00 363.00 366.00 369.00 372.00 375.00 378.00 381.00 384.00 387.00 390.00 393.00 396.00 399.00 402.00 405.00 408.00 411.00 414.00 417.00 420.00 423.00 426.00 429.00 432.00 435.00 438.00 441.00 444.00 447.00 450.00 453.00 456.00 459.00 462.00 465.00 468.00 471.00 474.00 477.00 480.00 483.00 486.00 489.00 492.00 495.00 498.00 501.00 504.00 507.00 512.00 518.00" y="335.00">Fig.5.7ReliabilityrateofDHL'sservicesbycustomers.........................................................39</text>
  <text font-family="f0f7" font-size="12" x="70.00 77.00 80.00 86.00 92.00 98.00 101.00 110.00 118.00 124.00 128.00 134.00 140.00 146.00 151.00 155.00 161.00 166.00 172.00 177.00 182.00 189.00 193.00 199.00 202.00 210.00 216.00 223.00 232.00 241.00 248.00 250.00 258.00 263.00 272.00 278.00 282.00 288.00 294.00 299.00 304.00 312.00 318.00 327.00 332.00 338.00 343.00 346.00 352.00 362.00 367.00 371.00 377.00 380.00 383.00 386.00 389.00 392.00 395.00 398.00 401.00 404.00 407.00 410.00 413.00 416.00 419.00 422.00 425.00 428.00 431.00 434.00 437.00 440.00 443.00 446.00 449.00 452.00 455.00 458.00 461.00 464.00 467.00 470.00 473.00 476.00 479.00 482.00 485.00 488.00 491.00 494.00 497.00 500.00 503.00 506.00 512.00 518.00" y="354.00">Fig.5.8ResponsivenessrateofDHL'semployeesbycustomers............................................39</text>
  <text font-family="f0f7" font-size="12" x="70.00 77.00 80.00 86.00 92.00 98.00 101.00 110.00 119.00 124.00 129.00 134.00 138.00 142.00 148.00 151.00 154.00 160.00 169.00 175.00 182.00 186.00 192.00 200.00 204.00 209.00 213.00 221.00 227.00 234.00 239.00 244.00 249.00 255.00 259.00 264.00 270.00 275.00 281.00 288.00 294.00 298.00 304.00 310.00 313.00 319.00 325.00 334.00 340.00 349.00 358.00 366.00 373.00 376.00 383.00 388.00 393.00 397.00 403.00 407.00 412.00 417.00 424.00 427.00 430.00 433.00 436.00 439.00 442.00 445.00 448.00 451.00 454.00 457.00 460.00 463.00 466.00 469.00 472.00 475.00 478.00 481.00 484.00 487.00 490.00 493.00 496.00 499.00 502.00 505.00 508.00 512.00 518.00" y="374.00">Fig.5.9DescriptionoftherateofassurancesprovidedbyDHL'sservices.............................40</text>
  <text font-family="f0f7" font-size="12" x="70.00 77.00 80.00 86.00 93.00 99.00 102.00 108.00 118.00 125.00 131.00 140.00 146.00 152.00 156.00 160.00 165.00 171.00 178.00 183.00 189.00 195.00 201.00 207.00 216.00 219.00 229.00 234.00 237.00 241.00 250.00 255.00 259.00 268.00 271.00 281.00 290.00 293.00 299.00 304.00 308.00 312.00 321.00 327.00 335.00 338.00 341.00 347.00 353.00 356.00 366.00 369.00 379.00 385.00 389.00 392.00 398.00 402.00 406.00 409.00 413.00 418.00 427.00 432.00 438.00 443.00 450.00 456.00 462.00 467.00 475.00 480.00 486.00 491.00 497.00 506.00 512.00 518.00" y="393.00">Fig.5.10ThecurrenteconomicclimateinNigeriaoflikelytoprioritizecostoverspeedand</text>
  <text font-family="f0f7" font-size="12" x="70.00 74.00 80.00 83.00 86.00 92.00 98.00 101.00 104.00 108.00 111.00 120.00 126.00 133.00 139.00 144.00 148.00 151.00 157.00 162.00 166.00 174.00 177.00 180.00 183.00 186.00 189.00 192.00 195.00 198.00 201.00 204.00 207.00 210.00 213.00 216.00 219.00 222.00 225.00 228.00 231.00 234.00 237.00 240.00 243.00 246.00 249.00 252.00 255.00 258.00 261.00 264.00 267.00 270.00 273.00 276.00 279.00 282.00 285.00 288.00 291.00 294.00 297.00 300.00 303.00 306.00 309.00 312.00 315.00 318.00 321.00 324.00 327.00 330.00 333.00 336.00 339.00 342.00 345.00 348.00 351.00 354.00 357.00 360.00 363.00 366.00 369.00 372.00 375.00 378.00 381.00 384.00 387.00 390.00 393.00 396.00 399.00 402.00 405.00 408.00 411.00 414.00 417.00 420.00 423.00 426.00 429.00 432.00 435.00 438.00 441.00 444.00 447.00 450.00 453.00 456.00 459.00 462.00 465.00 468.00 471.00 474.00 477.00 480.00 483.00 486.00 489.00 492.00 495.00 498.00 501.00 504.00 507.00 512.00 518.00" y="413.00">reliabilityofdelivery................................................................................................................43</text>
  <text font-family="f0f7" font-size="12" x="70.00 77.00 80.00 86.00 92.00 98.00 101.00 107.00 116.00 125.00 130.00 134.00 140.00 144.00 147.00 153.00 157.00 160.00 166.00 175.00 181.00 188.00 193.00 199.00 204.00 207.00 213.00 223.00 228.00 232.00 234.00 242.00 247.00 253.00 259.00 262.00 266.00 272.00 278.00 281.00 284.00 293.00 302.00 305.00 309.00 318.00 326.00 335.00 345.00 348.00 357.00 361.00 367.00 375.00 380.00 386.00 396.00 399.00 405.00 414.00 420.00 425.00 430.00 435.00 441.00 444.00 447.00 450.00 453.00 456.00 459.00 462.00 465.00 468.00 471.00 474.00 477.00 480.00 483.00 486.00 489.00 492.00 495.00 498.00 501.00 504.00 507.00 512.00 518.00" y="432.00">Fig.5.11Descriptionofcustomer'scontinuitywithDHLinthecomingyears.......................44</text>
</g>
<style >@font-face {
font-family: "f0f7";
src: url("../font/f0f7.ttf");
}
</style>
</svg>