<?xml version="1.0" encoding="UTF-8"?>
<svg height="805.85" version="1.1" viewBox="0 0 595.25 805.85" width="595.25" xmlns="http://www.w3.org/2000/svg" xmlns:xlink="http://www.w3.org/1999/xlink">
<defs>
<clipPath clip-rule="evenodd" id="hkswfjson-cp200000">
  <path d="M 0 0 L 595.25 0 L 595.25 805.85 L 0 805.85 L 0 0 "/>
</clipPath>
</defs>
<g clip-path="url(#hkswfjson-cp200000)">
  <path d="M 0 0 L 595.25 0 L 595.25 805.85 L 0 805.85 L 0 0 " fill="rgb(255,255,255)" fill-rule="evenodd"/>
  <path d="M -.05 -.05 L 595.2 -.05 L 595.2 841.8 L -.05 841.8 L -.05 -.05 " fill="rgb(255,255,255)" fill-rule="evenodd"/>
  <text font-family="f0f7" font-size="10" x="76.00 86.00 93.00 98.00 102.00 106.00 111.00 115.00 119.00 127.00 132.00 140.00 143.00 148.00 156.00 159.00 167.00 172.00 177.00 182.00 187.00 193.00 199.00 206.00 214.00 220.00 222.00 229.00 232.00 238.00 240.00 245.00 249.00 254.00 259.00 262.00 265.00 270.00 275.00 280.00 285.00 294.00 299.00 303.00 308.00 313.00 316.00 318.00 324.00 332.00 337.00 340.00 344.00 348.00 351.00 356.00 361.00 364.00 369.00 376.00 381.00 389.00 396.00 401.00 406.00 410.00 416.00 424.00 428.00 435.00 441.00 446.00 451.00 456.00 461.00 464.00 470.00 476.00 478.00 486.00 494.00 497.00 502.00 507.00 510.00 513.00" y="80.00">AResearchontheImpactofDHL'sInternationalMarketingStrategiesonConsumerBehaviorinNigeria</text>
  <path d="M 70.8 82.8 L 524.4 82.8 L 524.4 83.4 L 70.8 83.4 L 70.8 82.8 " fill-rule="evenodd"/>
  <clipPath clip-rule="evenodd" id="hkswfjson-cp200001">
  <path d="M 294.2 770.6 L 297.8 770.6 L 297.8 782.85 L 294.2 782.85 L 294.2 770.6 "/>
</clipPath>
  <g clip-path="url(#hkswfjson-cp200001)">
  <text font-family="f0f7" font-size="10" x="294.00" y="780.00">I</text>
</g>
  <text font-family="f0f7" font-size="14" x="220.00 229.00 240.00 250.00 259.00 273.00 283.00 295.00 305.00 316.00 327.00 336.00 345.00 356.00 365.00" y="120.00">TABLEOFCONTENTS</text>
  <text font-family="f0f7" font-size="12" x="94.00 112.00 116.00 125.00 132.00 140.00 149.00 158.00 166.00 174.00 182.00 186.00 194.00 205.00 208.00 211.00 214.00 217.00 220.00 223.00 226.00 229.00 232.00 235.00 238.00 241.00 244.00 247.00 250.00 253.00 256.00 259.00 262.00 265.00 268.00 271.00 274.00 277.00 280.00 283.00 286.00 289.00 292.00 295.00 298.00 301.00 304.00 307.00 310.00 313.00 316.00 319.00 322.00 325.00 328.00 331.00 334.00 337.00 340.00 343.00 346.00 349.00 352.00 355.00 358.00 361.00 364.00 367.00 370.00 373.00 376.00 379.00 382.00 385.00 388.00 391.00 394.00 397.00 400.00 403.00 406.00 409.00 412.00 415.00 418.00 421.00 424.00 427.00 430.00 433.00 436.00 439.00 442.00 445.00 448.00 451.00 454.00 457.00 460.00 463.00 466.00 469.00 472.00 475.00 478.00 481.00 484.00 487.00 490.00 493.00 496.00 499.00 502.00 505.00 508.00 511.00 514.00 518.00" y="159.00">1INTRODUCTION........................................................................................................1</text>
  <text font-family="f0f7" font-size="12" x="114.00 120.00 123.00 141.00 149.00 155.00 160.00 166.00 172.00 176.00 182.00 188.00 194.00 200.00 206.00 213.00 218.00 224.00 230.00 238.00 244.00 250.00 259.00 265.00 269.00 275.00 281.00 284.00 288.00 291.00 297.00 302.00 308.00 313.00 322.00 328.00 335.00 341.00 345.00 351.00 357.00 364.00 367.00 370.00 373.00 376.00 379.00 382.00 385.00 388.00 391.00 394.00 397.00 400.00 403.00 406.00 409.00 412.00 415.00 418.00 421.00 424.00 427.00 430.00 433.00 436.00 439.00 442.00 445.00 448.00 451.00 454.00 457.00 460.00 463.00 466.00 469.00 472.00 475.00 478.00 481.00 484.00 487.00 490.00 493.00 496.00 499.00 502.00 505.00 508.00 511.00 514.00 518.00" y="179.00">1.1Background,ScopeandSignificanceofStudy...................................................1</text>
  <text font-family="f0f7" font-size="12" x="114.00 120.00 123.00 141.00 149.00 155.00 159.00 165.00 170.00 174.00 179.00 188.00 197.00 203.00 206.00 212.00 217.00 220.00 224.00 230.00 235.00 241.00 244.00 247.00 250.00 253.00 256.00 259.00 262.00 265.00 268.00 271.00 274.00 277.00 280.00 283.00 286.00 289.00 292.00 295.00 298.00 301.00 304.00 307.00 310.00 313.00 316.00 319.00 322.00 325.00 328.00 331.00 334.00 337.00 340.00 343.00 346.00 349.00 352.00 355.00 358.00 361.00 364.00 367.00 370.00 373.00 376.00 379.00 382.00 385.00 388.00 391.00 394.00 397.00 400.00 403.00 406.00 409.00 412.00 415.00 418.00 421.00 424.00 427.00 430.00 433.00 436.00 439.00 442.00 445.00 448.00 451.00 454.00 457.00 460.00 463.00 466.00 469.00 472.00 475.00 478.00 481.00 484.00 487.00 490.00 493.00 496.00 499.00 502.00 505.00 508.00 511.00 514.00 518.00" y="198.00">1.2ResearchObjectives............................................................................................4</text>
  <text font-family="f0f7" font-size="12" x="136.00 142.00 145.00 151.00 154.00 172.00 181.00 186.00 192.00 198.00 202.00 207.00 213.00 222.00 228.00 231.00 237.00 242.00 245.00 249.00 255.00 261.00 264.00 267.00 270.00 273.00 276.00 279.00 282.00 285.00 288.00 291.00 294.00 297.00 300.00 303.00 306.00 309.00 312.00 315.00 318.00 321.00 324.00 327.00 330.00 333.00 336.00 339.00 342.00 345.00 348.00 351.00 354.00 357.00 360.00 363.00 366.00 369.00 372.00 375.00 378.00 381.00 384.00 387.00 390.00 393.00 396.00 399.00 402.00 405.00 408.00 411.00 414.00 417.00 420.00 423.00 426.00 429.00 432.00 435.00 438.00 441.00 444.00 447.00 450.00 453.00 456.00 459.00 462.00 465.00 468.00 471.00 474.00 477.00 480.00 483.00 486.00 489.00 492.00 495.00 498.00 501.00 504.00 507.00 510.00 513.00 518.00" y="218.00">1.2.1GeneralObjective.....................................................................................4</text>
  <text font-family="f0f7" font-size="12" x="136.00 142.00 145.00 151.00 154.00 172.00 179.00 185.00 190.00 196.00 199.00 203.00 206.00 215.00 223.00 229.00 233.00 238.00 243.00 247.00 250.00 256.00 261.00 267.00 270.00 273.00 276.00 279.00 282.00 285.00 288.00 291.00 294.00 297.00 300.00 303.00 306.00 309.00 312.00 315.00 318.00 321.00 324.00 327.00 330.00 333.00 336.00 339.00 342.00 345.00 348.00 351.00 354.00 357.00 360.00 363.00 366.00 369.00 372.00 375.00 378.00 381.00 384.00 387.00 390.00 393.00 396.00 399.00 402.00 405.00 408.00 411.00 414.00 417.00 420.00 423.00 426.00 429.00 432.00 435.00 438.00 441.00 444.00 447.00 450.00 453.00 456.00 459.00 462.00 465.00 468.00 471.00 474.00 477.00 480.00 483.00 486.00 489.00 492.00 495.00 498.00 501.00 504.00 507.00 510.00 513.00 518.00" y="237.00">1.2.2SpecificObjectives...................................................................................4</text>
  <text font-family="f0f7" font-size="12" x="114.00 120.00 123.00 141.00 148.00 151.00 157.00 160.00 165.00 175.00 180.00 186.00 192.00 198.00 205.00 209.00 215.00 223.00 230.00 234.00 240.00 246.00 249.00 254.00 267.00 272.00 278.00 287.00 295.00 300.00 305.00 310.00 316.00 320.00 325.00 334.00 343.00 349.00 354.00 359.00 362.00 365.00 371.00 377.00 384.00 387.00 390.00 393.00 396.00 399.00 402.00 405.00 408.00 411.00 414.00 417.00 420.00 423.00 426.00 429.00 432.00 435.00 438.00 441.00 444.00 447.00 450.00 453.00 456.00 459.00 462.00 465.00 468.00 471.00 474.00 477.00 480.00 483.00 486.00 489.00 492.00 495.00 498.00 501.00 504.00 507.00 510.00 513.00 518.00" y="257.00">1.3StatementoftheProblemandResearchQuestions............................................4</text>
  <text font-family="f0f7" font-size="12" x="114.00 120.00 123.00 141.00 149.00 155.00 161.00 165.00 169.00 172.00 178.00 184.00 187.00 191.00 197.00 203.00 210.00 216.00 223.00 227.00 233.00 241.00 248.00 251.00 257.00 263.00 272.00 277.00 283.00 292.00 300.00 306.00 310.00 316.00 321.00 325.00 330.00 339.00 347.00 350.00 359.00 363.00 366.00 371.00 375.00 378.00 384.00 390.00 396.00 399.00 402.00 405.00 408.00 411.00 414.00 417.00 420.00 423.00 426.00 429.00 432.00 435.00 438.00 441.00 444.00 447.00 450.00 453.00 456.00 459.00 462.00 465.00 468.00 471.00 474.00 477.00 480.00 483.00 486.00 489.00 492.00 495.00 498.00 501.00 504.00 507.00 510.00 513.00 518.00" y="276.00">1.4ContributionsoftheStudyandResearchLimitations........................................5</text>
  <text font-family="f0f7" font-size="12" x="114.00 120.00 123.00 141.00 148.00 154.00 160.00 164.00 168.00 175.00 182.00 185.00 189.00 195.00 201.00 204.00 210.00 214.00 221.00 224.00 227.00 230.00 233.00 236.00 239.00 242.00 245.00 248.00 251.00 254.00 257.00 260.00 263.00 266.00 269.00 272.00 275.00 278.00 281.00 284.00 287.00 290.00 293.00 296.00 299.00 302.00 305.00 308.00 311.00 314.00 317.00 320.00 323.00 326.00 329.00 332.00 335.00 338.00 341.00 344.00 347.00 350.00 353.00 356.00 359.00 362.00 365.00 368.00 371.00 374.00 377.00 380.00 383.00 386.00 389.00 392.00 395.00 398.00 401.00 404.00 407.00 410.00 413.00 416.00 419.00 422.00 425.00 428.00 431.00 434.00 437.00 440.00 443.00 446.00 449.00 452.00 455.00 458.00 461.00 464.00 467.00 470.00 473.00 476.00 479.00 482.00 485.00 488.00 491.00 494.00 497.00 500.00 503.00 506.00 509.00 512.00 515.00 518.00" y="296.00">1.5ThesisStructure...................................................................................................6</text>
  <text font-family="f0f7" font-size="12" x="94.00 112.00 120.00 124.00 131.00 138.00 146.00 154.00 161.00 170.00 178.00 188.00 196.00 203.00 212.00 216.00 223.00 236.00 239.00 242.00 245.00 248.00 251.00 254.00 257.00 260.00 263.00 266.00 269.00 272.00 275.00 278.00 281.00 284.00 287.00 290.00 293.00 296.00 299.00 302.00 305.00 308.00 311.00 314.00 317.00 320.00 323.00 326.00 329.00 332.00 335.00 338.00 341.00 344.00 347.00 350.00 353.00 356.00 359.00 362.00 365.00 368.00 371.00 374.00 377.00 380.00 383.00 386.00 389.00 392.00 395.00 398.00 401.00 404.00 407.00 410.00 413.00 416.00 419.00 422.00 425.00 428.00 431.00 434.00 437.00 440.00 443.00 446.00 449.00 452.00 455.00 458.00 461.00 464.00 467.00 470.00 473.00 476.00 479.00 482.00 485.00 488.00 491.00 494.00 497.00 500.00 503.00 506.00 509.00 512.00 518.00" y="315.00">2LITERATUREREVIEW.............................................................................................9</text>
  <text font-family="f0f7" font-size="12" x="114.00 120.00 123.00 141.00 148.00 151.00 157.00 163.00 172.00 178.00 187.00 196.00 205.00 215.00 218.00 225.00 228.00 233.00 237.00 243.00 249.00 252.00 255.00 261.00 267.00 273.00 279.00 290.00 295.00 299.00 305.00 310.00 313.00 317.00 323.00 332.00 339.00 342.00 346.00 351.00 354.00 360.00 366.00 369.00 374.00 381.00 384.00 387.00 390.00 393.00 396.00 399.00 402.00 405.00 408.00 411.00 414.00 417.00 420.00 423.00 426.00 429.00 432.00 435.00 438.00 441.00 444.00 447.00 450.00 453.00 456.00 459.00 462.00 465.00 468.00 471.00 474.00 477.00 480.00 483.00 486.00 489.00 492.00 495.00 498.00 501.00 504.00 507.00 510.00 513.00 518.00" y="335.00">2.1StudyonDHLInternationalMarketingStrategies.............................................9</text>
  <text font-family="f0f7" font-size="12" x="136.00 142.00 145.00 151.00 154.00 172.00 181.00 186.00 190.00 194.00 200.00 203.00 206.00 210.00 216.00 225.00 230.00 236.00 245.00 253.00 259.00 268.00 274.00 280.00 286.00 292.00 298.00 301.00 309.00 315.00 322.00 332.00 338.00 342.00 348.00 353.00 356.00 360.00 366.00 373.00 376.00 379.00 382.00 385.00 388.00 391.00 394.00 397.00 400.00 403.00 406.00 409.00 412.00 415.00 418.00 421.00 424.00 427.00 430.00 433.00 436.00 439.00 442.00 445.00 448.00 451.00 454.00 457.00 460.00 463.00 466.00 469.00 472.00 475.00 478.00 481.00 484.00 487.00 490.00 493.00 496.00 499.00 502.00 505.00 508.00 511.00 514.00 518.00" y="354.00">2.1.1DefinitionandComponentsofMarketing................................................9</text>
  <text font-family="f0f7" font-size="12" x="136.00 142.00 145.00 151.00 154.00 172.00 181.00 184.00 190.00 196.00 202.00 208.00 216.00 220.00 225.00 231.00 240.00 247.00 251.00 256.00 261.00 266.00 272.00 278.00 284.00 287.00 290.00 293.00 296.00 299.00 302.00 305.00 308.00 311.00 314.00 317.00 320.00 323.00 326.00 329.00 332.00 335.00 338.00 341.00 344.00 347.00 350.00 353.00 356.00 359.00 362.00 365.00 368.00 371.00 374.00 377.00 380.00 383.00 386.00 389.00 392.00 395.00 398.00 401.00 404.00 407.00 410.00 413.00 416.00 419.00 422.00 425.00 428.00 431.00 434.00 437.00 440.00 443.00 446.00 449.00 452.00 455.00 458.00 461.00 464.00 467.00 470.00 473.00 476.00 479.00 482.00 485.00 488.00 491.00 494.00 497.00 500.00 503.00 506.00 512.00 518.00" y="374.00">2.1.2GlobalBrandPresence...........................................................................10</text>
  <text font-family="f0f7" font-size="12" x="136.00 142.00 145.00 151.00 154.00 172.00 176.00 182.00 186.00 191.00 195.00 201.00 206.00 210.00 213.00 219.00 225.00 230.00 237.00 247.00 253.00 257.00 263.00 268.00 271.00 275.00 281.00 290.00 296.00 300.00 304.00 309.00 312.00 318.00 324.00 327.00 332.00 339.00 342.00 345.00 348.00 351.00 354.00 357.00 360.00 363.00 366.00 369.00 372.00 375.00 378.00 381.00 384.00 387.00 390.00 393.00 396.00 399.00 402.00 405.00 408.00 411.00 414.00 417.00 420.00 423.00 426.00 429.00 432.00 435.00 438.00 441.00 444.00 447.00 450.00 453.00 456.00 459.00 462.00 465.00 468.00 471.00 474.00 477.00 480.00 483.00 486.00 489.00 492.00 495.00 498.00 501.00 504.00 507.00 512.00 518.00" y="393.00">2.1.3InternationalMarketingStrategies.........................................................11</text>
  <text font-family="f0f7" font-size="12" x="114.00 120.00 123.00 141.00 148.00 151.00 157.00 163.00 172.00 178.00 187.00 195.00 201.00 207.00 212.00 218.00 227.00 233.00 240.00 247.00 253.00 259.00 264.00 270.00 274.00 280.00 287.00 290.00 299.00 308.00 311.00 317.00 322.00 326.00 330.00 336.00 339.00 342.00 345.00 348.00 351.00 354.00 357.00 360.00 363.00 366.00 369.00 372.00 375.00 378.00 381.00 384.00 387.00 390.00 393.00 396.00 399.00 402.00 405.00 408.00 411.00 414.00 417.00 420.00 423.00 426.00 429.00 432.00 435.00 438.00 441.00 444.00 447.00 450.00 453.00 456.00 459.00 462.00 465.00 468.00 471.00 474.00 477.00 480.00 483.00 486.00 489.00 492.00 495.00 498.00 501.00 504.00 507.00 512.00 518.00" y="413.00">2.2StudyonConsumerBehaviorinNigeria..........................................................14</text>
  <text font-family="f0f7" font-size="12" x="114.00 120.00 123.00 141.00 148.00 154.00 163.00 171.00 176.00 179.00 185.00 188.00 191.00 197.00 203.00 208.00 214.00 217.00 226.00 234.00 240.00 243.00 252.00 257.00 262.00 271.00 282.00 287.00 291.00 297.00 303.00 306.00 309.00 315.00 324.00 331.00 334.00 338.00 344.00 347.00 352.00 358.00 362.00 367.00 375.00 380.00 386.00 395.00 403.00 409.00 415.00 420.00 426.00 435.00 440.00 447.00 455.00 461.00 467.00 472.00 478.00 481.00 487.00 491.00 497.00 500.00 503.00 506.00 512.00 518.00" y="432.00">2.3TheRelationshipBetweenMarketingStrategiesandConsumerBehaviors....19</text>
  <text font-family="f0f7" font-size="12" x="114.00 120.00 123.00 141.00 149.00 155.00 161.00 165.00 170.00 176.00 179.00 185.00 191.00 197.00 204.00 209.00 214.00 218.00 224.00 228.00 235.00 239.00 248.00 256.00 260.00 266.00 271.00 275.00 278.00 285.00 288.00 291.00 294.00 297.00 300.00 303.00 306.00 309.00 312.00 315.00 318.00 321.00 324.00 327.00 330.00 333.00 336.00 339.00 342.00 345.00 348.00 351.00 354.00 357.00 360.00 363.00 366.00 369.00 372.00 375.00 378.00 381.00 384.00 387.00 390.00 393.00 396.00 399.00 402.00 405.00 408.00 411.00 414.00 417.00 420.00 423.00 426.00 429.00 432.00 435.00 438.00 441.00 444.00 447.00 450.00 453.00 456.00 459.00 462.00 465.00 468.00 471.00 474.00 477.00 480.00 483.00 486.00 489.00 492.00 495.00 498.00 501.00 504.00 507.00 512.00 518.00" y="452.00">2.4ContextualFactorsinNigeria...........................................................................22</text>
  <text font-family="f0f7" font-size="12" x="94.00 122.00 130.00 139.00 146.00 148.00 163.00 167.00 176.00 183.00 190.00 198.00 207.00 214.00 222.00 225.00 234.00 243.00 251.00 266.00 277.00 285.00 293.00 302.00 309.00 317.00 321.00 329.00 346.00 352.00 360.00 368.00 375.00 382.00 390.00 398.00 402.00 410.00 424.00 432.00 441.00 457.00 465.00 474.00 482.00 489.00 498.00 509.00 516.00" y="471.00">3DHL'SINTERNATIONALMARKETINGSTRATEGIESANDCONSUMER</text>
  <text font-family="f0f7" font-size="12" x="94.00 102.00 110.00 118.00 126.00 134.00 138.00 147.00 155.00 167.00 170.00 182.00 191.00 195.00 203.00 211.00 219.00 223.00 233.00 236.00 239.00 242.00 245.00 248.00 251.00 254.00 257.00 260.00 263.00 266.00 269.00 272.00 275.00 278.00 281.00 284.00 287.00 290.00 293.00 296.00 299.00 302.00 305.00 308.00 311.00 314.00 317.00 320.00 323.00 326.00 329.00 332.00 335.00 338.00 341.00 344.00 347.00 350.00 353.00 356.00 359.00 362.00 365.00 368.00 371.00 374.00 377.00 380.00 383.00 386.00 389.00 392.00 395.00 398.00 401.00 404.00 407.00 410.00 413.00 416.00 419.00 422.00 425.00 428.00 431.00 434.00 437.00 440.00 443.00 446.00 449.00 452.00 455.00 458.00 461.00 464.00 467.00 470.00 473.00 476.00 479.00 482.00 485.00 488.00 491.00 494.00 497.00 500.00 503.00 506.00 512.00 518.00" y="491.00">BEHAVIOURINNIGERIA............................................................................................26</text>
  <text font-family="f0f7" font-size="12" x="114.00 120.00 123.00 141.00 145.00 151.00 155.00 159.00 165.00 171.00 177.00 182.00 185.00 189.00 195.00 204.00 210.00 217.00 225.00 231.00 234.00 239.00 244.00 249.00 255.00 264.00 267.00 271.00 274.00 280.00 283.00 289.00 298.00 305.00 310.00 316.00 325.00 332.00 337.00 343.00 353.00 357.00 365.00 374.00 381.00 388.00 396.00 402.00 412.00 418.00 423.00 429.00 436.00 439.00 442.00 445.00 448.00 451.00 454.00 457.00 460.00 463.00 466.00 469.00 472.00 475.00 478.00 481.00 484.00 487.00 490.00 493.00 496.00 499.00 502.00 505.00 508.00 512.00 518.00" y="510.00">3.1IntroductionofDalsey,Hillblom,andLynn(DHL)Company.........................26</text>
  <text font-family="f0f7" font-size="12" x="114.00 120.00 123.00 143.00 152.00 158.00 163.00 169.00 172.00 176.00 182.00 192.00 201.00 209.00 217.00 219.00 228.00 232.00 238.00 241.00 246.00 250.00 256.00 262.00 265.00 268.00 274.00 280.00 286.00 293.00 304.00 309.00 313.00 319.00 325.00 328.00 331.00 337.00 348.00 354.00 358.00 362.00 367.00 370.00 376.00 382.00 385.00 390.00 399.00 402.00 413.00 421.00 427.00 433.00 437.00 443.00 453.00 458.00 466.00 474.00 480.00 486.00 491.00 497.00 500.00 506.00 515.00 518.00" y="530.00">3.2AdaptingDHL'sInternationalMarketingStrategiestoConsumerBehaviorin</text>
  <text font-family="f0f7" font-size="12" x="92.00 101.00 104.00 110.00 116.00 120.00 123.00 130.00 133.00 136.00 139.00 142.00 145.00 148.00 151.00 154.00 157.00 160.00 163.00 166.00 169.00 172.00 175.00 178.00 181.00 184.00 187.00 190.00 193.00 196.00 199.00 202.00 205.00 208.00 211.00 214.00 217.00 220.00 223.00 226.00 229.00 232.00 235.00 238.00 241.00 244.00 247.00 250.00 253.00 256.00 259.00 262.00 265.00 268.00 271.00 274.00 277.00 280.00 283.00 286.00 289.00 292.00 295.00 298.00 301.00 304.00 307.00 310.00 313.00 316.00 319.00 322.00 325.00 328.00 331.00 334.00 337.00 340.00 343.00 346.00 349.00 352.00 355.00 358.00 361.00 364.00 367.00 370.00 373.00 376.00 379.00 382.00 385.00 388.00 391.00 394.00 397.00 400.00 403.00 406.00 409.00 412.00 415.00 418.00 421.00 424.00 427.00 430.00 433.00 436.00 439.00 442.00 445.00 448.00 451.00 454.00 457.00 460.00 463.00 466.00 469.00 472.00 475.00 478.00 481.00 484.00 487.00 490.00 493.00 496.00 499.00 502.00 505.00 508.00 512.00 518.00" y="549.00">Nigeria...............................................................................................................................27</text>
  <text font-family="f0f7" font-size="12" x="114.00 120.00 123.00 152.00 161.00 164.00 168.00 174.00 180.00 189.00 194.00 200.00 213.00 219.00 231.00 240.00 249.00 256.00 258.00 272.00 282.00 288.00 292.00 298.00 303.00 306.00 310.00 316.00 331.00 337.00 341.00 345.00 350.00 353.00 359.00 365.00 368.00 373.00 387.00 395.00 399.00 402.00 417.00 426.00 429.00 435.00 440.00 444.00 447.00 453.00 468.00 476.00 482.00 488.00 492.00 498.00 508.00 513.00 517.00 522.00" y="569.00">3.3AlignmentofDHL'sMarketingStrategieswithNigerianConsumers'</text>
  <text font-family="f0f7" font-size="12" x="92.00 99.00 103.00 108.00 112.00 118.00 122.00 127.00 133.00 138.00 144.00 150.00 153.00 156.00 159.00 162.00 165.00 168.00 171.00 174.00 177.00 180.00 183.00 186.00 189.00 192.00 195.00 198.00 201.00 204.00 207.00 210.00 213.00 216.00 219.00 222.00 225.00 228.00 231.00 234.00 237.00 240.00 243.00 246.00 249.00 252.00 255.00 258.00 261.00 264.00 267.00 270.00 273.00 276.00 279.00 282.00 285.00 288.00 291.00 294.00 297.00 300.00 303.00 306.00 309.00 312.00 315.00 318.00 321.00 324.00 327.00 330.00 333.00 336.00 339.00 342.00 345.00 348.00 351.00 354.00 357.00 360.00 363.00 366.00 369.00 372.00 375.00 378.00 381.00 384.00 387.00 390.00 393.00 396.00 399.00 402.00 405.00 408.00 411.00 414.00 417.00 420.00 423.00 426.00 429.00 432.00 435.00 438.00 441.00 444.00 447.00 450.00 453.00 456.00 459.00 462.00 465.00 468.00 471.00 474.00 477.00 480.00 483.00 486.00 489.00 492.00 495.00 498.00 501.00 504.00 507.00 512.00 518.00" y="588.00">Preferences........................................................................................................................29</text>
  <text font-family="f0f7" font-size="12" x="94.00 112.00 120.00 128.00 134.00 142.00 150.00 158.00 166.00 178.00 189.00 196.00 203.00 212.00 221.00 229.00 238.00 245.00 254.00 263.00 273.00 282.00 291.00 302.00 311.00 318.00 325.00 335.00 338.00 341.00 344.00 347.00 350.00 353.00 356.00 359.00 362.00 365.00 368.00 371.00 374.00 377.00 380.00 383.00 386.00 389.00 392.00 395.00 398.00 401.00 404.00 407.00 410.00 413.00 416.00 419.00 422.00 425.00 428.00 431.00 434.00 437.00 440.00 443.00 446.00 449.00 452.00 455.00 458.00 461.00 464.00 467.00 470.00 473.00 476.00 479.00 482.00 485.00 488.00 491.00 494.00 497.00 500.00 503.00 506.00 509.00 512.00 518.00" y="608.00">4RESEARCHMETHODOLOGYANDDATA...........................................................31</text>
  <text font-family="f0f7" font-size="12" x="114.00 120.00 123.00 141.00 149.00 155.00 159.00 165.00 170.00 174.00 179.00 188.00 197.00 202.00 207.00 210.00 216.00 224.00 227.00 230.00 233.00 236.00 239.00 242.00 245.00 248.00 251.00 254.00 257.00 260.00 263.00 266.00 269.00 272.00 275.00 278.00 281.00 284.00 287.00 290.00 293.00 296.00 299.00 302.00 305.00 308.00 311.00 314.00 317.00 320.00 323.00 326.00 329.00 332.00 335.00 338.00 341.00 344.00 347.00 350.00 353.00 356.00 359.00 362.00 365.00 368.00 371.00 374.00 377.00 380.00 383.00 386.00 389.00 392.00 395.00 398.00 401.00 404.00 407.00 410.00 413.00 416.00 419.00 422.00 425.00 428.00 431.00 434.00 437.00 440.00 443.00 446.00 449.00 452.00 455.00 458.00 461.00 464.00 467.00 470.00 473.00 476.00 479.00 482.00 485.00 488.00 491.00 494.00 497.00 500.00 503.00 506.00 509.00 512.00 518.00" y="627.00">4.1ResearchDesign................................................................................................31</text>
  <text font-family="f0f7" font-size="12" x="114.00 120.00 123.00 141.00 149.00 155.00 159.00 165.00 170.00 174.00 179.00 188.00 197.00 203.00 209.00 215.00 218.00 224.00 230.00 234.00 238.00 244.00 247.00 250.00 253.00 256.00 259.00 262.00 265.00 268.00 271.00 274.00 277.00 280.00 283.00 286.00 289.00 292.00 295.00 298.00 301.00 304.00 307.00 310.00 313.00 316.00 319.00 322.00 325.00 328.00 331.00 334.00 337.00 340.00 343.00 346.00 349.00 352.00 355.00 358.00 361.00 364.00 367.00 370.00 373.00 376.00 379.00 382.00 385.00 388.00 391.00 394.00 397.00 400.00 403.00 406.00 409.00 412.00 415.00 418.00 421.00 424.00 427.00 430.00 433.00 436.00 439.00 442.00 445.00 448.00 451.00 454.00 457.00 460.00 463.00 466.00 469.00 472.00 475.00 478.00 481.00 484.00 487.00 490.00 493.00 496.00 499.00 502.00 505.00 508.00 512.00 518.00" y="647.00">4.2ResearchHypothesis.........................................................................................31</text>
  <text font-family="f0f7" font-size="12" x="114.00 120.00 123.00 141.00 150.00 155.00 159.00 164.00 168.00 177.00 181.00 187.00 190.00 196.00 205.00 208.00 214.00 223.00 229.00 235.00 244.00 250.00 253.00 262.00 268.00 272.00 277.00 284.00 287.00 290.00 293.00 296.00 299.00 302.00 305.00 308.00 311.00 314.00 317.00 320.00 323.00 326.00 329.00 332.00 335.00 338.00 341.00 344.00 347.00 350.00 353.00 356.00 359.00 362.00 365.00 368.00 371.00 374.00 377.00 380.00 383.00 386.00 389.00 392.00 395.00 398.00 401.00 404.00 407.00 410.00 413.00 416.00 419.00 422.00 425.00 428.00 431.00 434.00 437.00 440.00 443.00 446.00 449.00 452.00 455.00 458.00 461.00 464.00 467.00 470.00 473.00 476.00 479.00 482.00 485.00 488.00 491.00 494.00 497.00 500.00 503.00 506.00 509.00 512.00 518.00" y="666.00">4.3DeterminingtheSampleSize............................................................................32</text>
  <text font-family="f0f7" font-size="12" x="114.00 120.00 123.00 141.00 148.00 153.00 163.00 169.00 172.00 175.00 181.00 190.00 197.00 202.00 207.00 213.00 219.00 223.00 229.00 235.00 240.00 246.00 249.00 252.00 255.00 258.00 261.00 264.00 267.00 270.00 273.00 276.00 279.00 282.00 285.00 288.00 291.00 294.00 297.00 300.00 303.00 306.00 309.00 312.00 315.00 318.00 321.00 324.00 327.00 330.00 333.00 336.00 339.00 342.00 345.00 348.00 351.00 354.00 357.00 360.00 363.00 366.00 369.00 372.00 375.00 378.00 381.00 384.00 387.00 390.00 393.00 396.00 399.00 402.00 405.00 408.00 411.00 414.00 417.00 420.00 423.00 426.00 429.00 432.00 435.00 438.00 441.00 444.00 447.00 450.00 453.00 456.00 459.00 462.00 465.00 468.00 471.00 474.00 477.00 480.00 483.00 486.00 489.00 492.00 495.00 498.00 501.00 504.00 507.00 512.00 518.00" y="686.00">4.4SamplingTechniques........................................................................................32</text>
  <text font-family="f0f7" font-size="12" x="114.00 120.00 123.00 141.00 152.00 157.00 161.00 167.00 173.00 182.00 188.00 195.00 198.00 204.00 212.00 219.00 222.00 228.00 234.00 242.00 245.00 248.00 251.00 254.00 257.00 260.00 263.00 266.00 269.00 272.00 275.00 278.00 281.00 284.00 287.00 290.00 293.00 296.00 299.00 302.00 305.00 308.00 311.00 314.00 317.00 320.00 323.00 326.00 329.00 332.00 335.00 338.00 341.00 344.00 347.00 350.00 353.00 356.00 359.00 362.00 365.00 368.00 371.00 374.00 377.00 380.00 383.00 386.00 389.00 392.00 395.00 398.00 401.00 404.00 407.00 410.00 413.00 416.00 419.00 422.00 425.00 428.00 431.00 434.00 437.00 440.00 443.00 446.00 449.00 452.00 455.00 458.00 461.00 464.00 467.00 470.00 473.00 476.00 479.00 482.00 485.00 488.00 491.00 494.00 497.00 500.00 503.00 506.00 509.00 512.00 518.00" y="705.00">4.5MethodoftheStudy..........................................................................................32</text>
  <text font-family="f0f7" font-size="12" x="94.00 112.00 119.00 126.00 133.00 140.00 144.00 151.00 158.00 162.00 170.00 179.00 188.00 197.00 205.00 214.00 220.00 229.00 235.00 239.00 248.00 251.00 254.00 257.00 260.00 263.00 266.00 269.00 272.00 275.00 278.00 281.00 284.00 287.00 290.00 293.00 296.00 299.00 302.00 305.00 308.00 311.00 314.00 317.00 320.00 323.00 326.00 329.00 332.00 335.00 338.00 341.00 344.00 347.00 350.00 353.00 356.00 359.00 362.00 365.00 368.00 371.00 374.00 377.00 380.00 383.00 386.00 389.00 392.00 395.00 398.00 401.00 404.00 407.00 410.00 413.00 416.00 419.00 422.00 425.00 428.00 431.00 434.00 437.00 440.00 443.00 446.00 449.00 452.00 455.00 458.00 461.00 464.00 467.00 470.00 473.00 476.00 479.00 482.00 485.00 488.00 491.00 494.00 497.00 500.00 503.00 506.00 509.00 512.00 518.00" y="725.00">5STATISTICALANALYSIS........................................................................................35</text>
  <text font-family="f0f7" font-size="12" x="114.00 120.00 123.00 141.00 150.00 155.00 160.00 165.00 169.00 173.00 179.00 182.00 185.00 191.00 199.00 208.00 214.00 219.00 222.00 228.00 233.00 236.00 243.00 246.00 249.00 252.00 255.00 258.00 261.00 264.00 267.00 270.00 273.00 276.00 279.00 282.00 285.00 288.00 291.00 294.00 297.00 300.00 303.00 306.00 309.00 312.00 315.00 318.00 321.00 324.00 327.00 330.00 333.00 336.00 339.00 342.00 345.00 348.00 351.00 354.00 357.00 360.00 363.00 366.00 369.00 372.00 375.00 378.00 381.00 384.00 387.00 390.00 393.00 396.00 399.00 402.00 405.00 408.00 411.00 414.00 417.00 420.00 423.00 426.00 429.00 432.00 435.00 438.00 441.00 444.00 447.00 450.00 453.00 456.00 459.00 462.00 465.00 468.00 471.00 474.00 477.00 480.00 483.00 486.00 489.00 492.00 495.00 498.00 501.00 504.00 507.00 512.00 518.00" y="744.00">5.1DescriptiveAnalysis.........................................................................................35</text>
  <text font-family="f0f7" font-size="12" x="114.00 120.00 123.00 141.00 150.00 155.00 159.00 167.00 174.00 179.00 183.00 186.00 192.00 195.00 199.00 208.00 214.00 219.00 224.00 230.00 236.00 243.00 251.00 257.00 260.00 263.00 269.00 275.00 278.00 281.00 285.00 288.00 296.00 305.00 311.00 316.00 320.00 326.00 330.00 334.00 340.00 343.00 346.00 349.00 352.00 355.00 358.00 361.00 364.00 367.00 370.00 373.00 376.00 379.00 382.00 385.00 388.00 391.00 394.00 397.00 400.00 403.00 406.00 409.00 412.00 415.00 418.00 421.00 424.00 427.00 430.00 433.00 436.00 439.00 442.00 445.00 448.00 451.00 454.00 457.00 460.00 463.00 466.00 469.00 472.00 475.00 478.00 481.00 484.00 487.00 490.00 493.00 496.00 499.00 502.00 505.00 508.00 512.00 518.00" y="764.00">5.2DataValidityTestorReliabilityAnalysis.........................................................45</text>
</g>
<style >@font-face {
font-family: "f0f7";
src: url("../font/f0f7.ttf");
}
</style>
</svg>