<?xml version="1.0" encoding="UTF-8"?>
<svg height="805.85" version="1.1" viewBox="0 0 595.25 805.85" width="595.25" xmlns="http://www.w3.org/2000/svg" xmlns:xlink="http://www.w3.org/1999/xlink">
<defs>
<clipPath clip-rule="evenodd" id="hkswfjson-cp100000">
  <path d="M 0 0 L 595.25 0 L 595.25 805.85 L 0 805.85 L 0 0 "/>
</clipPath>
</defs>
<g clip-path="url(#hkswfjson-cp100000)">
  <path d="M 0 0 L 595.25 0 L 595.25 805.85 L 0 805.85 L 0 0 " fill="rgb(255,255,255)" fill-rule="evenodd"/>
  <path d="M -.05 -.05 L 595.2 -.05 L 595.2 841.8 L -.05 841.8 L -.05 -.05 " fill="rgb(255,255,255)" fill-rule="evenodd"/>
  <text font-family="f0f7" font-size="10" x="270.00 277.00 284.00 290.00 296.00 303.00 311.00 318.00" y="80.00">ABSTRACT</text>
  <path d="M 70.8 82.8 L 524.4 82.8 L 524.4 83.4 L 70.8 83.4 L 70.8 82.8 " fill-rule="evenodd"/>
  <text font-family="f0f7" font-size="10" x="292.00 296.00" y="780.00">II</text>
  <text font-family="f0f7" font-size="14" x="258.00 269.00 279.00 287.00 296.00 306.00 317.00 327.00" y="120.00">ABSTRACT</text>
  <text font-family="f0f7" font-size="12" x="94.00 102.00 108.00 111.00 121.00 127.00 130.00 135.00 140.00 145.00 149.00 152.00 157.00 161.00 164.00 170.00 181.00 187.00 193.00 199.00 202.00 208.00 212.00 217.00 227.00 236.00 244.00 252.00 254.00 264.00 267.00 273.00 276.00 282.00 286.00 292.00 297.00 300.00 304.00 310.00 316.00 321.00 329.00 339.00 344.00 348.00 354.00 359.00 363.00 366.00 372.00 383.00 388.00 391.00 395.00 401.00 404.00 409.00 415.00 419.00 424.00 434.00 439.00 445.00 456.00 460.00 466.00 476.00 479.00 489.00 495.00 500.00 505.00 514.00 520.00" y="159.00">ThisdissertationexploresDHL'sinternationalmarketingstrategiesandtheimpactof</text>
  <text font-family="f0f7" font-size="12" x="70.00 76.00 80.00 86.00 89.00 92.00 98.00 106.00 109.00 115.00 121.00 127.00 133.00 138.00 142.00 145.00 151.00 162.00 168.00 179.00 184.00 190.00 196.00 201.00 207.00 216.00 221.00 230.00 236.00 242.00 248.00 253.00 259.00 262.00 268.00 277.00 280.00 291.00 300.00 303.00 309.00 315.00 318.00 322.00 327.00 334.00 343.00 353.00 359.00 365.00 375.00 381.00 390.00 393.00 399.00 409.00 412.00 418.00 423.00 429.00 432.00 438.00 449.00 455.00 458.00 464.00 470.00 476.00 484.00 487.00 493.00 499.00 503.00 507.00 511.00 514.00 519.00" y="177.00">digitalinnovationonconsumerbehaviorinNigeria.Asoneoftheleadinggloballogistics</text>
  <text font-family="f0f7" font-size="12" x="70.00 76.00 82.00 91.00 97.00 102.00 108.00 112.00 117.00 122.00 128.00 136.00 140.00 143.00 148.00 153.00 158.00 163.00 171.00 174.00 177.00 180.00 186.00 189.00 194.00 203.00 208.00 213.00 219.00 227.00 233.00 239.00 244.00 253.00 256.00 264.00 272.00 279.00 286.00 292.00 298.00 303.00 307.00 312.00 315.00 321.00 329.00 332.00 341.00 347.00 353.00 358.00 365.00 371.00 377.00 386.00 392.00 398.00 404.00 410.00 413.00 417.00 420.00 426.00 430.00 437.00 440.00 446.00 451.00 455.00 461.00 467.00 470.00 476.00 485.00 494.00 497.00 503.00 508.00 512.00 515.00 521.00" y="195.00">companies,Dalsey,Hillblom,andLynn(DHL)operatesinover220countries,includingNigeria,</text>
  <text font-family="f0f7" font-size="12" x="70.00 81.00 87.00 91.00 94.00 97.00 101.00 106.00 111.00 120.00 126.00 132.00 143.00 147.00 153.00 157.00 161.00 165.00 171.00 175.00 181.00 189.00 193.00 199.00 210.00 220.00 225.00 229.00 235.00 240.00 249.00 258.00 261.00 265.00 277.00 283.00 286.00 291.00 294.00 297.00 303.00 309.00 318.00 323.00 329.00 332.00 336.00 342.00 345.00 351.00 354.00 363.00 368.00 373.00 379.00 385.00 391.00 401.00 404.00 409.00 418.00 423.00 429.00 441.00 446.00 452.00 457.00 461.00 466.00 475.00 481.00 487.00 493.00 498.00 508.00 511.00 516.00 521.00" y="213.00">acriticalandfast-growingmarketwithdistinctcultural,economic,andsocialdynamics.</text>
  <text font-family="f0f7" font-size="12" x="70.00 79.00 84.00 87.00 93.00 107.00 120.00 125.00 128.00 132.00 138.00 143.00 147.00 153.00 157.00 162.00 176.00 182.00 188.00 193.00 198.00 201.00 205.00 211.00 217.00 223.00 228.00 231.00 235.00 241.00 252.00 258.00 262.00 265.00 274.00 280.00 284.00 297.00 302.00 308.00 312.00 318.00 323.00 337.00 343.00 348.00 352.00 365.00 374.00 379.00 383.00 396.00 402.00 408.00 411.00 414.00 420.00 425.00 428.00 434.00 447.00 451.00 465.00 470.00 476.00 481.00 485.00 491.00 496.00 509.00 512.00 518.00" y="231.00">Usingastructuredquestionnaire,primarysurveydatawerecollectedtoanalyzethe</text>
  <text font-family="f0f7" font-size="12" x="70.00 74.00 80.00 83.00 88.00 92.00 98.00 104.00 107.00 110.00 116.00 122.00 128.00 138.00 147.00 152.00 156.00 162.00 168.00 171.00 174.00 180.00 193.00 198.00 201.00 205.00 211.00 214.00 219.00 225.00 229.00 234.00 245.00 251.00 257.00 269.00 275.00 281.00 287.00 291.00 297.00 307.00 312.00 323.00 329.00 334.00 340.00 345.00 351.00 355.00 361.00 371.00 377.00 383.00 389.00 394.00 399.00 404.00 410.00 413.00 419.00 431.00 435.00 441.00 453.00 461.00 470.00 484.00 487.00 493.00 499.00 503.00 507.00 511.00 514.00 519.00" y="248.00">internationalmarketingstrategiesandconsumerbehaviorconcerningtheDHLlogistics</text>
  <text font-family="f0f7" font-size="12" x="70.00 76.00 82.00 91.00 97.00 102.00 108.00 114.00 120.00 127.00 133.00 142.00 146.00 150.00 156.00 162.00 171.00 176.00 181.00 186.00 191.00 196.00 200.00 206.00 214.00 220.00 226.00 238.00 246.00 255.00 262.00 264.00 272.00 276.00 281.00 284.00 288.00 294.00 297.00 303.00 312.00 321.00 327.00 331.00 337.00 342.00 345.00 349.00 355.00 364.00 369.00 375.00 381.00 385.00 391.00 397.00 402.00 408.00 413.00 421.00 427.00 430.00 433.00 439.00 449.00 457.00 461.00 464.00 473.00 477.00 483.00 491.00 497.00 503.00 506.00 513.00 519.00" y="266.00">company.ThestudyassesseshowDHL'stailoredmarketingapproachesalignwiththeunique</text>
  <text font-family="f0f7" font-size="12" x="70.00 76.00 80.00 86.00 90.00 95.00 99.00 104.00 110.00 116.00 121.00 131.00 136.00 142.00 153.00 159.00 164.00 170.00 176.00 182.00 185.00 191.00 195.00 205.00 211.00 220.00 228.00 232.00 237.00 243.00 247.00 250.00 255.00 267.00 272.00 278.00 284.00 288.00 294.00 304.00 309.00 313.00 318.00 326.00 332.00 337.00 341.00 344.00 348.00 353.00 359.00 362.00 368.00 372.00 375.00 386.00 390.00 396.00 401.00 407.00 412.00 415.00 421.00 432.00 438.00 449.00 453.00 458.00 464.00 467.00 473.00 477.00 487.00 492.00 498.00 503.00 514.00 519.00" y="284.00">preferencesandbehaviorsofNigerianconsumers,particularlyfocusingonfactorssuchas</text>
  <text font-family="f0f7" font-size="12" x="70.00 76.00 82.00 85.00 88.00 94.00 98.00 104.00 110.00 115.00 121.00 127.00 133.00 136.00 141.00 145.00 148.00 154.00 160.00 166.00 171.00 177.00 182.00 185.00 191.00 201.00 206.00 213.00 218.00 223.00 226.00 230.00 234.00 238.00 244.00 249.00 252.00 256.00 262.00 268.00 274.00 279.00 285.00 294.00 299.00 304.00 308.00 314.00 317.00 322.00 331.00 336.00 342.00 347.00 350.00 356.00 366.00 369.00 374.00 380.00 383.00 386.00 392.00 398.00" y="302.00">culturaladaptation,customersatisfaction,andservicecustomization.</text>
  <text font-family="f0f7" font-size="12" x="94.00 102.00 108.00 120.00 126.00 132.00 136.00 142.00 146.00 149.00 155.00 158.00 162.00 168.00 180.00 185.00 188.00 194.00 197.00 200.00 205.00 209.00 212.00 217.00 229.00 235.00 239.00 244.00 249.00 254.00 260.00 271.00 275.00 281.00 293.00 297.00 302.00 307.00 313.00 319.00 325.00 331.00 336.00 342.00 346.00 350.00 360.00 366.00 371.00 381.00 387.00 393.00 397.00 402.00 408.00 414.00 417.00 430.00 434.00 439.00 445.00 448.00 454.00 458.00 463.00 473.00 478.00 484.00 489.00 492.00 498.00 508.00 513.00 517.00 522.00" y="320.00">Thedescriptivestatisticspresenttherespondents'demographicfactors,customers'</text>
  <text font-family="f0f7" font-size="12" x="70.00 76.00 82.00 86.00 92.00 95.00 101.00 107.00 115.00 120.00 126.00 135.00 139.00 143.00 149.00 153.00 160.00 163.00 172.00 181.00 189.00 200.00 203.00 209.00 215.00 218.00 223.00 226.00 230.00 235.00 243.00 247.00 253.00 257.00 263.00 266.00 271.00 277.00 281.00 287.00 293.00 299.00 308.00 311.00 317.00 326.00 332.00 337.00 341.00 346.00 351.00 357.00 361.00 366.00 372.00 381.00 384.00 390.00 394.00 397.00 403.00 409.00 415.00 420.00 428.00 434.00 441.00 447.00 452.00 458.00 464.00 470.00 479.00 483.00 491.00 495.00 500.00 506.00 509.00 515.00 519.00" y="338.00">opinionsandtrustinDHLlogisticsservices,andthepercentageinfluenceofeconomicfactors</text>
  <text font-family="f0f7" font-size="12" x="70.00 76.00 86.00 92.00 98.00 104.00 108.00 114.00 124.00 129.00 137.00 143.00 148.00 154.00 160.00 166.00 169.00 175.00 183.00 186.00 196.00 205.00 208.00 214.00 220.00 224.00 227.00 232.00 249.00 256.00 262.00 272.00 276.00 281.00 286.00 291.00 295.00 298.00 307.00 312.00 315.00 320.00 330.00 335.00 341.00 347.00 356.00 359.00 365.00 375.00 378.00 384.00 393.00 397.00 403.00 407.00 410.00 416.00 421.00 427.00 433.00 442.00 448.00 456.00 461.00 467.00 473.00 479.00 485.00 494.00 497.00 506.00 512.00 518.00" y="356.00">onconsumerbehaviorinNigeria.Theresultsalsoexaminetheinfluenceofeconomicand</text>
  <text font-family="f0f7" font-size="12" x="70.00 76.00 82.00 85.00 88.00 94.00 98.00 104.00 113.00 117.00 123.00 128.00 131.00 137.00 141.00 153.00 159.00 171.00 180.00 188.00 195.00 198.00 209.00 212.00 218.00 222.00 227.00 231.00 237.00 242.00 245.00 249.00 255.00 261.00 266.00 276.00 285.00 290.00 294.00 300.00 306.00 309.00 312.00 318.00 331.00 335.00 339.00 343.00 348.00 351.00 357.00 363.00 366.00 371.00 383.00 386.00 398.00 407.00 410.00 416.00 422.00 426.00 429.00 434.00 443.00 451.00 457.00 462.00 467.00 479.00 483.00 487.00 491.00 496.00 499.00 504.00 510.00 514.00 519.00" y="374.00">culturalfactorsonDHL'sinternationalmarketingstrategiesinNigeria.Thesestrategies</text>
  <text font-family="f0f7" font-size="12" x="70.00 74.00 80.00 85.00 88.00 94.00 100.00 111.00 116.00 121.00 125.00 131.00 134.00 139.00 150.00 156.00 159.00 165.00 171.00 175.00 179.00 183.00 187.00 190.00 195.00 201.00 204.00 207.00 213.00 219.00 227.00 231.00 236.00 241.00 247.00 253.00 259.00 263.00 269.00 275.00 278.00 283.00 289.00 297.00 300.00 306.00 310.00 315.00 321.00 325.00 330.00 334.00 337.00 343.00 349.00 357.00 362.00 368.00 373.00 376.00 381.00 385.00 391.00 396.00 402.00 405.00 409.00 412.00 415.00 426.00 436.00 441.00 445.00 451.00 456.00 460.00 463.00 469.00 475.00 483.00 488.00 491.00 495.00 501.00 504.00 509.00 515.00 519.00" y="392.00">includeservicediversification,technologicalintegration,sustainabilitymarketing,strategic</text>
  <text font-family="f0f7" font-size="12" x="70.00 76.00 82.00 86.00 89.00 95.00 100.00 104.00 109.00 115.00 118.00 124.00 134.00 139.00 145.00 155.00 161.00 164.00 167.00 171.00 176.00 182.00 187.00 193.00 197.00 205.00 210.00 216.00 227.00 236.00 242.00 248.00 252.00 256.00 262.00 271.00 276.00 280.00 284.00 290.00 295.00 301.00 304.00 308.00 311.00 321.00 326.00 332.00 338.00 342.00 348.00 354.00 359.00 365.00 372.00 380.00 386.00 396.00 405.00 411.00 414.00 418.00 421.00 427.00 430.00 440.00 444.00 449.00 455.00 459.00 465.00 469.00 474.00 477.00 483.00 494.00 503.00 509.00 515.00 521.00" y="410.00">partnershipsand********s,andacustomer-centricapproach.Themultipleregressionmodel</text>
  <text font-family="f0f7" font-size="12" x="70.00 75.00 81.00 87.00 96.00 107.00 110.00 116.00 128.00 131.00 140.00 146.00 152.00 157.00 166.00 172.00 183.00 191.00 200.00 207.00 209.00 220.00 230.00 235.00 239.00 245.00 250.00 254.00 257.00 263.00 275.00 280.00 283.00 287.00 292.00 296.00 301.00 307.00 310.00 316.00 327.00 332.00 338.00 350.00 355.00 360.00 364.00 370.00 374.00 379.00 384.00 395.00 401.00 413.00 419.00 425.00 431.00 435.00 441.00 451.00 456.00 466.00 471.00 476.00 480.00 483.00 488.00 492.00 497.00 502.00 506.00 509.00 515.00 521.00" y="428.00">showstheimpactofDHL'smarketingstrategiesandservicesonconsumersatisfaction.</text>
  <text font-family="f0f7" font-size="12" x="70.00 77.00 83.00 87.00 90.00 96.00 102.00 106.00 115.00 121.00 125.00 130.00 137.00 140.00 146.00 149.00 157.00 162.00 165.00 171.00 177.00 186.00 191.00 198.00 203.00 212.00 216.00 222.00 227.00 235.00 238.00 244.00 253.00 256.00 262.00 266.00 269.00 275.00 281.00 286.00 292.00 300.00 306.00 313.00 319.00 324.00 330.00 336.00 342.00 351.00 355.00 363.00 368.00 374.00 384.00 389.00 395.00 398.00 402.00 408.00 412.00 417.00 423.00 427.00 433.00 438.00 441.00 447.00 451.00 456.00 462.00 469.00 475.00 484.00 488.00 493.00 498.00 503.00 509.00 512.00 518.00" y="446.00">Furthermore,thisstudyexaminestheinfluenceofeconomicandculturalfactors.Theresearch</text>
  <text font-family="f0f7" font-size="12" x="70.00 74.00 80.00 85.00 91.00 94.00 98.00 102.00 105.00 110.00 119.00 125.00 130.00 136.00 144.00 150.00 155.00 159.00 167.00 173.00 178.00 188.00 196.00 205.00 211.00 215.00 223.00 229.00 232.00 238.00 244.00 250.00 256.00 266.00 271.00 275.00 281.00 286.00 290.00 293.00 299.00 308.00 313.00 317.00 320.00 326.00 329.00 334.00 340.00 344.00 349.00 357.00 363.00 369.00 378.00 382.00 388.00 397.00 401.00 407.00 413.00 418.00 421.00 425.00 428.00 437.00 443.00 449.00 454.00 460.00 468.00 474.00 482.00 491.00 494.00 500.00 505.00 509.00 512.00 518.00" y="464.00">identifiesgapsbetweenDHL’sglobalmarketingstrategiesandthespecificneedsofNigerian</text>
  <text font-family="f0f7" font-size="12" x="70.00 76.00 82.00 88.00 92.00 98.00 108.00 113.00 117.00 122.00 129.00 136.00 142.00 145.00 154.00 158.00 163.00 168.00 173.00 179.00 183.00 188.00 198.00 203.00 213.00 219.00 222.00 228.00 234.00 243.00 252.00 262.00 265.00 271.00 276.00 282.00 286.00 296.00 301.00 304.00 310.00 316.00 322.00 331.00 336.00 342.00 348.00 352.00 358.00 364.00 369.00 375.00 382.00 388.00 392.00 395.00 398.00 401.00 407.00 410.00 416.00 426.00 436.00 442.00 446.00 449.00 458.00 464.00 468.00 478.00 482.00 488.00 492.00 498.00 504.00 514.00 520.00" y="482.00">consumers.Thisresearchemploysamixed-methodsapproach,utilizingaprimarysurveyof</text>
  <text font-family="f0f7" font-size="12" x="70.00 76.00 82.00 93.00 97.00 102.00 107.00 113.00 119.00 125.00 131.00 136.00 142.00 146.00 155.00 159.00 169.00 175.00 181.00 184.00 187.00 193.00 198.00 206.00 212.00 218.00 223.00 229.00 233.00 236.00 239.00 245.00 248.00 251.00 257.00 267.00 273.00 279.00 282.00 292.00 298.00 309.00 314.00 320.00 326.00 331.00 337.00 346.00 351.00 360.00 366.00 371.00 375.00 381.00 386.00 392.00 395.00 399.00 405.00 411.00 420.00 426.00 435.00 444.00 452.00 458.00 462.00 471.00 476.00 481.00 485.00 491.00 494.00 500.00 505.00 515.00 518.00" y="500.00">324respondentstocollectquantitativedataonconsumerperceptionsofDHL’sservicesin</text>
  <text font-family="f0f7" font-size="12" x="70.00 79.00 82.00 88.00 94.00 98.00 101.00 106.00 114.00 122.00 128.00 132.00 136.00 141.00 145.00 150.00 153.00 157.00 163.00 173.00 179.00 185.00 195.00 199.00 204.00 210.00 214.00 220.00 224.00 229.00 233.00 239.00 249.00 254.00 260.00 266.00 269.00 275.00 280.00 285.00 294.00 300.00 304.00 314.00 320.00 324.00 329.00 340.00 344.00 354.00 359.00 365.00 371.00 374.00 380.00 385.00 389.00 399.00 402.00 408.00 418.00 422.00 427.00 431.00 436.00 439.00 443.00 449.00 455.00 459.00 465.00 469.00 475.00 484.00 490.00 495.00 499.00 507.00 513.00 518.00" y="517.00">Nigeria.Correlationandregressionanalysesareusedtoevaluatetherelationshipsbetween</text>
  <text font-family="f0f7" font-size="12" x="70.00 76.00 82.00 92.00 98.00 103.00 107.00 110.00 116.00 122.00 125.00 130.00 135.00 142.00 147.00 153.00 158.00 168.00 173.00 182.00 186.00 192.00 196.00 202.00 205.00 210.00 220.00 223.00 228.00 234.00 240.00 244.00 250.00 253.00 256.00 260.00 263.00 268.00 275.00 280.00 285.00 290.00 296.00 300.00 305.00 311.00 316.00 322.00 329.00 334.00 340.00 350.00 355.00 361.00 366.00 369.00 375.00 385.00 390.00 398.00 402.00 408.00 411.00 414.00 419.00 423.00 428.00 434.00 437.00 440.00 446.00 452.00 459.00 465.00 468.00 474.00 480.00 486.00 491.00 494.00 500.00 509.00 513.00 519.00" y="535.00">keyvariables,suchasservicetangibility,assurance,andcustomersatisfaction,alongsidethe</text>
  <text font-family="f0f7" font-size="12" x="70.00 80.00 86.00 92.00 97.00 101.00 106.00 110.00 113.00 119.00 128.00 133.00 137.00 141.00 146.00 152.00 155.00 163.00 169.00 176.00 181.00 187.00 191.00 194.00 200.00 204.00 209.00 215.00 221.00 227.00 236.00 241.00 246.00 252.00 258.00 264.00 274.00 277.00 285.00 289.00 295.00 300.00 303.00 309.00 313.00 318.00" y="553.00">moderatingeffectsofculturalandeconomicfactors.</text>
  <text font-family="f0f7" font-size="12" x="94.00 102.00 108.00 120.00 124.00 128.00 134.00 140.00 143.00 149.00 155.00 167.00 171.00 176.00 182.00 188.00 193.00 204.00 207.00 213.00 219.00 229.00 238.00 244.00 247.00 251.00 263.00 272.00 281.00 288.00 290.00 302.00 308.00 312.00 318.00 324.00 329.00 340.00 349.00 354.00 358.00 364.00 370.00 373.00 376.00 382.00 396.00 400.00 404.00 408.00 413.00 416.00 422.00 428.00 431.00 436.00 449.00 454.00 460.00 466.00 471.00 475.00 480.00 484.00 487.00 501.00 510.00 515.00 521.00" y="571.00">ThefindingsrevealthatwhileDHL'sglobalmarketingstrategiesgenerallymeet</text>
  <text font-family="f0f7" font-size="12" x="70.00 76.00 82.00 88.00 92.00 98.00 108.00 113.00 123.00 128.00 134.00 140.00 146.00 151.00 154.00 160.00 163.00 166.00 172.00 178.00 183.00 192.00 195.00 201.00 207.00 211.00 222.00 227.00 231.00 243.00 248.00 252.00 257.00 263.00 273.00 277.00 283.00 293.00 296.00 306.00 312.00 316.00 322.00 328.00 333.00 342.00 348.00 354.00 357.00 366.00 372.00 377.00 381.00 385.00 388.00 393.00 399.00 403.00 408.00 412.00 415.00 427.00 431.00 443.00 448.00 454.00 460.00 464.00 469.00 474.00 479.00 482.00 488.00 500.00 506.00 510.00 513.00 518.00" y="589.00">consumerexpectations,thereareareasforimprovement,particularlyinaddressing*****</text>
  <text font-family="f0f7" font-size="12" x="70.00 75.00 80.00 86.00 91.00 94.00 98.00 101.00 107.00 110.00 114.00 127.00 133.00 139.00 152.00 156.00 162.00 167.00 172.00 183.00 187.00 192.00 198.00 204.00 210.00 215.00 221.00 234.00 239.00 245.00 251.00 256.00 259.00 265.00 271.00 275.00 280.00 283.00 287.00 293.00 299.00 303.00 313.00 322.00 328.00 334.00 337.00 341.00 344.00 350.00 356.00 361.00 365.00 368.00 373.00 384.00 387.00 393.00 406.00 410.00 415.00 420.00 425.00 431.00 434.00 440.00 454.00 460.00 463.00 469.00 475.00 478.00 482.00 488.00 494.00 497.00 509.00 512.00 518.00" y="607.00">sensitivityandlocallanguageconsiderations.Additionally,theresearchhighlightsthe</text>
  <text font-family="f0f7" font-size="12" x="70.00 74.00 83.00 89.00 95.00 99.00 102.00 108.00 114.00 119.00 129.00 135.00 144.00 149.00 155.00 158.00 162.00 168.00 172.00 177.00 185.00 189.00 194.00 200.00 203.00 209.00 213.00 223.00 226.00 237.00 241.00 247.00 253.00 259.00 262.00 268.00 279.00 284.00 290.00 295.00 298.00 304.00 313.00 319.00 327.00 333.00 339.00 343.00 348.00 353.00 359.00 363.00 366.00 372.00 378.00 387.00 393.00 399.00 410.00 414.00 420.00 423.00 426.00 431.00 435.00 440.00 445.00 449.00 452.00 458.00 464.00 472.00 479.00 485.00 488.00 498.00 503.00 506.00 512.00 518.00" y="625.00">importanceofculturalfactorsinshapingcustomerperceptionsandsatisfaction.Thisstudy</text>
  <text font-family="f0f7" font-size="12" x="70.00 74.00 80.00 85.00 91.00 100.00 110.00 115.00 121.00 127.00 135.00 139.00 145.00 149.00 152.00 158.00 164.00 171.00 174.00 180.00 186.00 191.00 194.00 198.00 203.00 208.00 212.00 215.00 221.00 230.00 236.00 244.00 248.00 254.00 257.00 263.00 267.00 272.00 278.00 286.00 291.00 297.00 306.00 315.00 321.00 325.00 331.00 336.00 339.00 343.00 349.00 358.00 363.00 369.00 379.00 388.00 394.00 400.00 403.00 409.00 414.00 417.00 421.00 427.00 433.00 441.00 444.00 453.00 459.00 465.00 468.00 471.00 477.00 484.00 488.00 493.00 498.00 504.00 510.00 515.00 519.00" y="643.00">recommendsfurtherlocalizationofservicesandmarketingcommunicationstobetterresonate</text>
  <text font-family="f0f7" font-size="12" x="70.00 79.00 82.00 86.00 96.00 104.00 108.00 113.00 119.00 123.00 126.00 131.00 141.00 147.00 153.00 159.00 163.00 169.00 179.00 184.00 188.00 193.00 199.00 205.00 211.00 215.00 220.00 226.00 229.00 233.00 238.00 241.00 245.00 255.00 260.00 266.00 272.00 277.00 283.00 288.00 292.00 298.00 308.00 316.00 325.00 332.00 334.00 343.00 352.00 357.00 361.00 367.00 373.00 380.00 385.00 391.00 396.00 400.00 409.00 414.00 420.00 430.00 436.00 442.00 447.00 451.00 457.00 460.00 463.00 469.00 475.00 481.00 488.00 493.00 499.00 504.00 509.00 515.00 519.00" y="661.00">withNigerianconsumers,potentiallyenhancingDHL'smarketshareandoperationalsuccess</text>
  <text font-family="f0f7" font-size="12" x="70.00 74.00 83.00 86.00 92.00 95.00 103.00 109.00 115.00 121.00 126.00 136.00 139.00 147.00 157.00 162.00 166.00 172.00 177.00 181.00" y="679.00">inthisdynamicmarket.</text>
  <text font-family="f0f7" font-size="12" x="94.00 103.00 108.00 121.00 131.00 137.00 141.00 147.00 152.00 162.00 171.00 180.00 187.00 197.00 201.00 207.00 211.00 216.00 220.00 226.00 231.00 235.00 238.00 244.00 250.00 255.00 266.00 276.00 282.00 286.00 291.00 297.00 300.00 303.00 309.00 322.00 329.00 332.00 336.00 342.00 345.00 350.00 356.00 360.00 365.00 370.00 380.00 388.00 394.00 400.00 405.00 411.00 420.00 425.00 436.00 444.00 450.00 456.00 461.00 467.00 470.00 476.00 480.00 491.00 499.00 503.00 508.00 512.00 515.00 520.00" y="697.00">KeyWords:DHL;InternationalMarketingStrategies;ConsumerBehavior;Digital</text>
  <text font-family="f0f7" font-size="14" x="70.00 74.00 80.00 86.00 92.00 98.00 104.00 107.00 111.00 118.00" y="722.00">Innovation</text>
</g>
<style >@font-face {
font-family: "f0f7";
src: url("../font/f0f7.ttf");
}
</style>
</svg>